%TF.GenerationSoftware,KiCad,Pcbnew,(5.1.6)-1*%
%TF.CreationDate,2021-01-03T13:05:20+07:00*%
%TF.ProjectId,morse_buffer_prod,6d6f7273-655f-4627-9566-6665725f7072,1*%
%TF.SameCoordinates,Original*%
%TF.FileFunction,Soldermask,Top*%
%TF.FilePolarity,Negative*%
%FSLAX46Y46*%
G04 Gerber Fmt 4.6, Leading zero omitted, Abs format (unit mm)*
G04 Created by KiCad (PCBNEW (5.1.6)-1) date 2021-01-03 13:05:20*
%MOMM*%
%LPD*%
G01*
G04 APERTURE LIST*
%ADD10R,0.800000X0.900000*%
%ADD11C,4.400000*%
%ADD12C,1.800000*%
%ADD13O,1.500000X2.600000*%
%ADD14O,1.600000X1.600000*%
%ADD15R,1.600000X1.600000*%
%ADD16O,3.500000X2.200000*%
%ADD17O,2.500000X1.500000*%
%ADD18R,2.500000X1.500000*%
%ADD19C,2.000000*%
%ADD20C,1.440000*%
%ADD21R,0.900000X0.800000*%
%ADD22R,2.000000X2.000000*%
%ADD23R,3.500000X3.500000*%
%ADD24C,3.000000*%
%ADD25R,3.000000X3.000000*%
%ADD26O,1.700000X1.700000*%
%ADD27R,1.700000X1.700000*%
%ADD28R,1.300000X1.700000*%
%ADD29R,1.100000X1.100000*%
%ADD30C,1.600000*%
G04 APERTURE END LIST*
%TO.C,R27*%
G36*
G01*
X75026000Y-102491250D02*
X75026000Y-101978750D01*
G75*
G02*
X75244750Y-101760000I218750J0D01*
G01*
X75682250Y-101760000D01*
G75*
G02*
X75901000Y-101978750I0J-218750D01*
G01*
X75901000Y-102491250D01*
G75*
G02*
X75682250Y-102710000I-218750J0D01*
G01*
X75244750Y-102710000D01*
G75*
G02*
X75026000Y-102491250I0J218750D01*
G01*
G37*
G36*
G01*
X73451000Y-102491250D02*
X73451000Y-101978750D01*
G75*
G02*
X73669750Y-101760000I218750J0D01*
G01*
X74107250Y-101760000D01*
G75*
G02*
X74326000Y-101978750I0J-218750D01*
G01*
X74326000Y-102491250D01*
G75*
G02*
X74107250Y-102710000I-218750J0D01*
G01*
X73669750Y-102710000D01*
G75*
G02*
X73451000Y-102491250I0J218750D01*
G01*
G37*
%TD*%
%TO.C,R26*%
G36*
G01*
X75153000Y-96141250D02*
X75153000Y-95628750D01*
G75*
G02*
X75371750Y-95410000I218750J0D01*
G01*
X75809250Y-95410000D01*
G75*
G02*
X76028000Y-95628750I0J-218750D01*
G01*
X76028000Y-96141250D01*
G75*
G02*
X75809250Y-96360000I-218750J0D01*
G01*
X75371750Y-96360000D01*
G75*
G02*
X75153000Y-96141250I0J218750D01*
G01*
G37*
G36*
G01*
X73578000Y-96141250D02*
X73578000Y-95628750D01*
G75*
G02*
X73796750Y-95410000I218750J0D01*
G01*
X74234250Y-95410000D01*
G75*
G02*
X74453000Y-95628750I0J-218750D01*
G01*
X74453000Y-96141250D01*
G75*
G02*
X74234250Y-96360000I-218750J0D01*
G01*
X73796750Y-96360000D01*
G75*
G02*
X73578000Y-96141250I0J218750D01*
G01*
G37*
%TD*%
D10*
%TO.C,Q4*%
X74803000Y-98060000D03*
X75753000Y-100060000D03*
X73853000Y-100060000D03*
%TD*%
D11*
%TO.C,H3*%
X161036000Y-63627000D03*
%TD*%
%TO.C,H2*%
X161036000Y-121031000D03*
%TD*%
%TO.C,H1*%
X68199000Y-140716000D03*
%TD*%
D12*
%TO.C,J2*%
X151842000Y-72080000D03*
X151842000Y-66030000D03*
D13*
X148692000Y-72080000D03*
X148692000Y-65380000D03*
X154992000Y-72080000D03*
X154992000Y-68580000D03*
X154992000Y-65380000D03*
%TD*%
%TO.C,U4*%
G36*
G01*
X116355000Y-120420000D02*
X116055000Y-120420000D01*
G75*
G02*
X115905000Y-120270000I0J150000D01*
G01*
X115905000Y-118620000D01*
G75*
G02*
X116055000Y-118470000I150000J0D01*
G01*
X116355000Y-118470000D01*
G75*
G02*
X116505000Y-118620000I0J-150000D01*
G01*
X116505000Y-120270000D01*
G75*
G02*
X116355000Y-120420000I-150000J0D01*
G01*
G37*
G36*
G01*
X117625000Y-120420000D02*
X117325000Y-120420000D01*
G75*
G02*
X117175000Y-120270000I0J150000D01*
G01*
X117175000Y-118620000D01*
G75*
G02*
X117325000Y-118470000I150000J0D01*
G01*
X117625000Y-118470000D01*
G75*
G02*
X117775000Y-118620000I0J-150000D01*
G01*
X117775000Y-120270000D01*
G75*
G02*
X117625000Y-120420000I-150000J0D01*
G01*
G37*
G36*
G01*
X118895000Y-120420000D02*
X118595000Y-120420000D01*
G75*
G02*
X118445000Y-120270000I0J150000D01*
G01*
X118445000Y-118620000D01*
G75*
G02*
X118595000Y-118470000I150000J0D01*
G01*
X118895000Y-118470000D01*
G75*
G02*
X119045000Y-118620000I0J-150000D01*
G01*
X119045000Y-120270000D01*
G75*
G02*
X118895000Y-120420000I-150000J0D01*
G01*
G37*
G36*
G01*
X120165000Y-120420000D02*
X119865000Y-120420000D01*
G75*
G02*
X119715000Y-120270000I0J150000D01*
G01*
X119715000Y-118620000D01*
G75*
G02*
X119865000Y-118470000I150000J0D01*
G01*
X120165000Y-118470000D01*
G75*
G02*
X120315000Y-118620000I0J-150000D01*
G01*
X120315000Y-120270000D01*
G75*
G02*
X120165000Y-120420000I-150000J0D01*
G01*
G37*
G36*
G01*
X121435000Y-120420000D02*
X121135000Y-120420000D01*
G75*
G02*
X120985000Y-120270000I0J150000D01*
G01*
X120985000Y-118620000D01*
G75*
G02*
X121135000Y-118470000I150000J0D01*
G01*
X121435000Y-118470000D01*
G75*
G02*
X121585000Y-118620000I0J-150000D01*
G01*
X121585000Y-120270000D01*
G75*
G02*
X121435000Y-120420000I-150000J0D01*
G01*
G37*
G36*
G01*
X122705000Y-120420000D02*
X122405000Y-120420000D01*
G75*
G02*
X122255000Y-120270000I0J150000D01*
G01*
X122255000Y-118620000D01*
G75*
G02*
X122405000Y-118470000I150000J0D01*
G01*
X122705000Y-118470000D01*
G75*
G02*
X122855000Y-118620000I0J-150000D01*
G01*
X122855000Y-120270000D01*
G75*
G02*
X122705000Y-120420000I-150000J0D01*
G01*
G37*
G36*
G01*
X123975000Y-120420000D02*
X123675000Y-120420000D01*
G75*
G02*
X123525000Y-120270000I0J150000D01*
G01*
X123525000Y-118620000D01*
G75*
G02*
X123675000Y-118470000I150000J0D01*
G01*
X123975000Y-118470000D01*
G75*
G02*
X124125000Y-118620000I0J-150000D01*
G01*
X124125000Y-120270000D01*
G75*
G02*
X123975000Y-120420000I-150000J0D01*
G01*
G37*
G36*
G01*
X123975000Y-125370000D02*
X123675000Y-125370000D01*
G75*
G02*
X123525000Y-125220000I0J150000D01*
G01*
X123525000Y-123570000D01*
G75*
G02*
X123675000Y-123420000I150000J0D01*
G01*
X123975000Y-123420000D01*
G75*
G02*
X124125000Y-123570000I0J-150000D01*
G01*
X124125000Y-125220000D01*
G75*
G02*
X123975000Y-125370000I-150000J0D01*
G01*
G37*
G36*
G01*
X122705000Y-125370000D02*
X122405000Y-125370000D01*
G75*
G02*
X122255000Y-125220000I0J150000D01*
G01*
X122255000Y-123570000D01*
G75*
G02*
X122405000Y-123420000I150000J0D01*
G01*
X122705000Y-123420000D01*
G75*
G02*
X122855000Y-123570000I0J-150000D01*
G01*
X122855000Y-125220000D01*
G75*
G02*
X122705000Y-125370000I-150000J0D01*
G01*
G37*
G36*
G01*
X121435000Y-125370000D02*
X121135000Y-125370000D01*
G75*
G02*
X120985000Y-125220000I0J150000D01*
G01*
X120985000Y-123570000D01*
G75*
G02*
X121135000Y-123420000I150000J0D01*
G01*
X121435000Y-123420000D01*
G75*
G02*
X121585000Y-123570000I0J-150000D01*
G01*
X121585000Y-125220000D01*
G75*
G02*
X121435000Y-125370000I-150000J0D01*
G01*
G37*
G36*
G01*
X120165000Y-125370000D02*
X119865000Y-125370000D01*
G75*
G02*
X119715000Y-125220000I0J150000D01*
G01*
X119715000Y-123570000D01*
G75*
G02*
X119865000Y-123420000I150000J0D01*
G01*
X120165000Y-123420000D01*
G75*
G02*
X120315000Y-123570000I0J-150000D01*
G01*
X120315000Y-125220000D01*
G75*
G02*
X120165000Y-125370000I-150000J0D01*
G01*
G37*
G36*
G01*
X118895000Y-125370000D02*
X118595000Y-125370000D01*
G75*
G02*
X118445000Y-125220000I0J150000D01*
G01*
X118445000Y-123570000D01*
G75*
G02*
X118595000Y-123420000I150000J0D01*
G01*
X118895000Y-123420000D01*
G75*
G02*
X119045000Y-123570000I0J-150000D01*
G01*
X119045000Y-125220000D01*
G75*
G02*
X118895000Y-125370000I-150000J0D01*
G01*
G37*
G36*
G01*
X117625000Y-125370000D02*
X117325000Y-125370000D01*
G75*
G02*
X117175000Y-125220000I0J150000D01*
G01*
X117175000Y-123570000D01*
G75*
G02*
X117325000Y-123420000I150000J0D01*
G01*
X117625000Y-123420000D01*
G75*
G02*
X117775000Y-123570000I0J-150000D01*
G01*
X117775000Y-125220000D01*
G75*
G02*
X117625000Y-125370000I-150000J0D01*
G01*
G37*
G36*
G01*
X116355000Y-125370000D02*
X116055000Y-125370000D01*
G75*
G02*
X115905000Y-125220000I0J150000D01*
G01*
X115905000Y-123570000D01*
G75*
G02*
X116055000Y-123420000I150000J0D01*
G01*
X116355000Y-123420000D01*
G75*
G02*
X116505000Y-123570000I0J-150000D01*
G01*
X116505000Y-125220000D01*
G75*
G02*
X116355000Y-125370000I-150000J0D01*
G01*
G37*
%TD*%
%TO.C,R11*%
G36*
G01*
X112773750Y-141955000D02*
X113286250Y-141955000D01*
G75*
G02*
X113505000Y-142173750I0J-218750D01*
G01*
X113505000Y-142611250D01*
G75*
G02*
X113286250Y-142830000I-218750J0D01*
G01*
X112773750Y-142830000D01*
G75*
G02*
X112555000Y-142611250I0J218750D01*
G01*
X112555000Y-142173750D01*
G75*
G02*
X112773750Y-141955000I218750J0D01*
G01*
G37*
G36*
G01*
X112773750Y-140380000D02*
X113286250Y-140380000D01*
G75*
G02*
X113505000Y-140598750I0J-218750D01*
G01*
X113505000Y-141036250D01*
G75*
G02*
X113286250Y-141255000I-218750J0D01*
G01*
X112773750Y-141255000D01*
G75*
G02*
X112555000Y-141036250I0J218750D01*
G01*
X112555000Y-140598750D01*
G75*
G02*
X112773750Y-140380000I218750J0D01*
G01*
G37*
%TD*%
%TO.C,R9*%
G36*
G01*
X110233750Y-141955000D02*
X110746250Y-141955000D01*
G75*
G02*
X110965000Y-142173750I0J-218750D01*
G01*
X110965000Y-142611250D01*
G75*
G02*
X110746250Y-142830000I-218750J0D01*
G01*
X110233750Y-142830000D01*
G75*
G02*
X110015000Y-142611250I0J218750D01*
G01*
X110015000Y-142173750D01*
G75*
G02*
X110233750Y-141955000I218750J0D01*
G01*
G37*
G36*
G01*
X110233750Y-140380000D02*
X110746250Y-140380000D01*
G75*
G02*
X110965000Y-140598750I0J-218750D01*
G01*
X110965000Y-141036250D01*
G75*
G02*
X110746250Y-141255000I-218750J0D01*
G01*
X110233750Y-141255000D01*
G75*
G02*
X110015000Y-141036250I0J218750D01*
G01*
X110015000Y-140598750D01*
G75*
G02*
X110233750Y-140380000I218750J0D01*
G01*
G37*
%TD*%
%TO.C,R8*%
G36*
G01*
X107693750Y-141955000D02*
X108206250Y-141955000D01*
G75*
G02*
X108425000Y-142173750I0J-218750D01*
G01*
X108425000Y-142611250D01*
G75*
G02*
X108206250Y-142830000I-218750J0D01*
G01*
X107693750Y-142830000D01*
G75*
G02*
X107475000Y-142611250I0J218750D01*
G01*
X107475000Y-142173750D01*
G75*
G02*
X107693750Y-141955000I218750J0D01*
G01*
G37*
G36*
G01*
X107693750Y-140380000D02*
X108206250Y-140380000D01*
G75*
G02*
X108425000Y-140598750I0J-218750D01*
G01*
X108425000Y-141036250D01*
G75*
G02*
X108206250Y-141255000I-218750J0D01*
G01*
X107693750Y-141255000D01*
G75*
G02*
X107475000Y-141036250I0J218750D01*
G01*
X107475000Y-140598750D01*
G75*
G02*
X107693750Y-140380000I218750J0D01*
G01*
G37*
%TD*%
%TO.C,R6*%
G36*
G01*
X105153750Y-141955000D02*
X105666250Y-141955000D01*
G75*
G02*
X105885000Y-142173750I0J-218750D01*
G01*
X105885000Y-142611250D01*
G75*
G02*
X105666250Y-142830000I-218750J0D01*
G01*
X105153750Y-142830000D01*
G75*
G02*
X104935000Y-142611250I0J218750D01*
G01*
X104935000Y-142173750D01*
G75*
G02*
X105153750Y-141955000I218750J0D01*
G01*
G37*
G36*
G01*
X105153750Y-140380000D02*
X105666250Y-140380000D01*
G75*
G02*
X105885000Y-140598750I0J-218750D01*
G01*
X105885000Y-141036250D01*
G75*
G02*
X105666250Y-141255000I-218750J0D01*
G01*
X105153750Y-141255000D01*
G75*
G02*
X104935000Y-141036250I0J218750D01*
G01*
X104935000Y-140598750D01*
G75*
G02*
X105153750Y-140380000I218750J0D01*
G01*
G37*
%TD*%
%TO.C,R25*%
G36*
G01*
X118366250Y-142830000D02*
X117853750Y-142830000D01*
G75*
G02*
X117635000Y-142611250I0J218750D01*
G01*
X117635000Y-142173750D01*
G75*
G02*
X117853750Y-141955000I218750J0D01*
G01*
X118366250Y-141955000D01*
G75*
G02*
X118585000Y-142173750I0J-218750D01*
G01*
X118585000Y-142611250D01*
G75*
G02*
X118366250Y-142830000I-218750J0D01*
G01*
G37*
G36*
G01*
X118366250Y-141255000D02*
X117853750Y-141255000D01*
G75*
G02*
X117635000Y-141036250I0J218750D01*
G01*
X117635000Y-140598750D01*
G75*
G02*
X117853750Y-140380000I218750J0D01*
G01*
X118366250Y-140380000D01*
G75*
G02*
X118585000Y-140598750I0J-218750D01*
G01*
X118585000Y-141036250D01*
G75*
G02*
X118366250Y-141255000I-218750J0D01*
G01*
G37*
%TD*%
%TO.C,R23*%
G36*
G01*
X131701250Y-142830000D02*
X131188750Y-142830000D01*
G75*
G02*
X130970000Y-142611250I0J218750D01*
G01*
X130970000Y-142173750D01*
G75*
G02*
X131188750Y-141955000I218750J0D01*
G01*
X131701250Y-141955000D01*
G75*
G02*
X131920000Y-142173750I0J-218750D01*
G01*
X131920000Y-142611250D01*
G75*
G02*
X131701250Y-142830000I-218750J0D01*
G01*
G37*
G36*
G01*
X131701250Y-141255000D02*
X131188750Y-141255000D01*
G75*
G02*
X130970000Y-141036250I0J218750D01*
G01*
X130970000Y-140598750D01*
G75*
G02*
X131188750Y-140380000I218750J0D01*
G01*
X131701250Y-140380000D01*
G75*
G02*
X131920000Y-140598750I0J-218750D01*
G01*
X131920000Y-141036250D01*
G75*
G02*
X131701250Y-141255000I-218750J0D01*
G01*
G37*
%TD*%
%TO.C,R22*%
G36*
G01*
X128526250Y-142830000D02*
X128013750Y-142830000D01*
G75*
G02*
X127795000Y-142611250I0J218750D01*
G01*
X127795000Y-142173750D01*
G75*
G02*
X128013750Y-141955000I218750J0D01*
G01*
X128526250Y-141955000D01*
G75*
G02*
X128745000Y-142173750I0J-218750D01*
G01*
X128745000Y-142611250D01*
G75*
G02*
X128526250Y-142830000I-218750J0D01*
G01*
G37*
G36*
G01*
X128526250Y-141255000D02*
X128013750Y-141255000D01*
G75*
G02*
X127795000Y-141036250I0J218750D01*
G01*
X127795000Y-140598750D01*
G75*
G02*
X128013750Y-140380000I218750J0D01*
G01*
X128526250Y-140380000D01*
G75*
G02*
X128745000Y-140598750I0J-218750D01*
G01*
X128745000Y-141036250D01*
G75*
G02*
X128526250Y-141255000I-218750J0D01*
G01*
G37*
%TD*%
%TO.C,R20*%
G36*
G01*
X146941250Y-142830000D02*
X146428750Y-142830000D01*
G75*
G02*
X146210000Y-142611250I0J218750D01*
G01*
X146210000Y-142173750D01*
G75*
G02*
X146428750Y-141955000I218750J0D01*
G01*
X146941250Y-141955000D01*
G75*
G02*
X147160000Y-142173750I0J-218750D01*
G01*
X147160000Y-142611250D01*
G75*
G02*
X146941250Y-142830000I-218750J0D01*
G01*
G37*
G36*
G01*
X146941250Y-141255000D02*
X146428750Y-141255000D01*
G75*
G02*
X146210000Y-141036250I0J218750D01*
G01*
X146210000Y-140598750D01*
G75*
G02*
X146428750Y-140380000I218750J0D01*
G01*
X146941250Y-140380000D01*
G75*
G02*
X147160000Y-140598750I0J-218750D01*
G01*
X147160000Y-141036250D01*
G75*
G02*
X146941250Y-141255000I-218750J0D01*
G01*
G37*
%TD*%
%TO.C,R19*%
G36*
G01*
X143766250Y-142830000D02*
X143253750Y-142830000D01*
G75*
G02*
X143035000Y-142611250I0J218750D01*
G01*
X143035000Y-142173750D01*
G75*
G02*
X143253750Y-141955000I218750J0D01*
G01*
X143766250Y-141955000D01*
G75*
G02*
X143985000Y-142173750I0J-218750D01*
G01*
X143985000Y-142611250D01*
G75*
G02*
X143766250Y-142830000I-218750J0D01*
G01*
G37*
G36*
G01*
X143766250Y-141255000D02*
X143253750Y-141255000D01*
G75*
G02*
X143035000Y-141036250I0J218750D01*
G01*
X143035000Y-140598750D01*
G75*
G02*
X143253750Y-140380000I218750J0D01*
G01*
X143766250Y-140380000D01*
G75*
G02*
X143985000Y-140598750I0J-218750D01*
G01*
X143985000Y-141036250D01*
G75*
G02*
X143766250Y-141255000I-218750J0D01*
G01*
G37*
%TD*%
%TO.C,R18*%
G36*
G01*
X140591250Y-142830000D02*
X140078750Y-142830000D01*
G75*
G02*
X139860000Y-142611250I0J218750D01*
G01*
X139860000Y-142173750D01*
G75*
G02*
X140078750Y-141955000I218750J0D01*
G01*
X140591250Y-141955000D01*
G75*
G02*
X140810000Y-142173750I0J-218750D01*
G01*
X140810000Y-142611250D01*
G75*
G02*
X140591250Y-142830000I-218750J0D01*
G01*
G37*
G36*
G01*
X140591250Y-141255000D02*
X140078750Y-141255000D01*
G75*
G02*
X139860000Y-141036250I0J218750D01*
G01*
X139860000Y-140598750D01*
G75*
G02*
X140078750Y-140380000I218750J0D01*
G01*
X140591250Y-140380000D01*
G75*
G02*
X140810000Y-140598750I0J-218750D01*
G01*
X140810000Y-141036250D01*
G75*
G02*
X140591250Y-141255000I-218750J0D01*
G01*
G37*
%TD*%
%TO.C,R17*%
G36*
G01*
X137416250Y-142830000D02*
X136903750Y-142830000D01*
G75*
G02*
X136685000Y-142611250I0J218750D01*
G01*
X136685000Y-142173750D01*
G75*
G02*
X136903750Y-141955000I218750J0D01*
G01*
X137416250Y-141955000D01*
G75*
G02*
X137635000Y-142173750I0J-218750D01*
G01*
X137635000Y-142611250D01*
G75*
G02*
X137416250Y-142830000I-218750J0D01*
G01*
G37*
G36*
G01*
X137416250Y-141255000D02*
X136903750Y-141255000D01*
G75*
G02*
X136685000Y-141036250I0J218750D01*
G01*
X136685000Y-140598750D01*
G75*
G02*
X136903750Y-140380000I218750J0D01*
G01*
X137416250Y-140380000D01*
G75*
G02*
X137635000Y-140598750I0J-218750D01*
G01*
X137635000Y-141036250D01*
G75*
G02*
X137416250Y-141255000I-218750J0D01*
G01*
G37*
%TD*%
%TO.C,R7*%
G36*
G01*
X123446250Y-142830000D02*
X122933750Y-142830000D01*
G75*
G02*
X122715000Y-142611250I0J218750D01*
G01*
X122715000Y-142173750D01*
G75*
G02*
X122933750Y-141955000I218750J0D01*
G01*
X123446250Y-141955000D01*
G75*
G02*
X123665000Y-142173750I0J-218750D01*
G01*
X123665000Y-142611250D01*
G75*
G02*
X123446250Y-142830000I-218750J0D01*
G01*
G37*
G36*
G01*
X123446250Y-141255000D02*
X122933750Y-141255000D01*
G75*
G02*
X122715000Y-141036250I0J218750D01*
G01*
X122715000Y-140598750D01*
G75*
G02*
X122933750Y-140380000I218750J0D01*
G01*
X123446250Y-140380000D01*
G75*
G02*
X123665000Y-140598750I0J-218750D01*
G01*
X123665000Y-141036250D01*
G75*
G02*
X123446250Y-141255000I-218750J0D01*
G01*
G37*
%TD*%
%TO.C,D10*%
G36*
G01*
X117853750Y-144190000D02*
X118366250Y-144190000D01*
G75*
G02*
X118585000Y-144408750I0J-218750D01*
G01*
X118585000Y-144846250D01*
G75*
G02*
X118366250Y-145065000I-218750J0D01*
G01*
X117853750Y-145065000D01*
G75*
G02*
X117635000Y-144846250I0J218750D01*
G01*
X117635000Y-144408750D01*
G75*
G02*
X117853750Y-144190000I218750J0D01*
G01*
G37*
G36*
G01*
X117853750Y-145765000D02*
X118366250Y-145765000D01*
G75*
G02*
X118585000Y-145983750I0J-218750D01*
G01*
X118585000Y-146421250D01*
G75*
G02*
X118366250Y-146640000I-218750J0D01*
G01*
X117853750Y-146640000D01*
G75*
G02*
X117635000Y-146421250I0J218750D01*
G01*
X117635000Y-145983750D01*
G75*
G02*
X117853750Y-145765000I218750J0D01*
G01*
G37*
%TD*%
%TO.C,D8*%
G36*
G01*
X131188750Y-144190000D02*
X131701250Y-144190000D01*
G75*
G02*
X131920000Y-144408750I0J-218750D01*
G01*
X131920000Y-144846250D01*
G75*
G02*
X131701250Y-145065000I-218750J0D01*
G01*
X131188750Y-145065000D01*
G75*
G02*
X130970000Y-144846250I0J218750D01*
G01*
X130970000Y-144408750D01*
G75*
G02*
X131188750Y-144190000I218750J0D01*
G01*
G37*
G36*
G01*
X131188750Y-145765000D02*
X131701250Y-145765000D01*
G75*
G02*
X131920000Y-145983750I0J-218750D01*
G01*
X131920000Y-146421250D01*
G75*
G02*
X131701250Y-146640000I-218750J0D01*
G01*
X131188750Y-146640000D01*
G75*
G02*
X130970000Y-146421250I0J218750D01*
G01*
X130970000Y-145983750D01*
G75*
G02*
X131188750Y-145765000I218750J0D01*
G01*
G37*
%TD*%
%TO.C,D7*%
G36*
G01*
X128013750Y-144190000D02*
X128526250Y-144190000D01*
G75*
G02*
X128745000Y-144408750I0J-218750D01*
G01*
X128745000Y-144846250D01*
G75*
G02*
X128526250Y-145065000I-218750J0D01*
G01*
X128013750Y-145065000D01*
G75*
G02*
X127795000Y-144846250I0J218750D01*
G01*
X127795000Y-144408750D01*
G75*
G02*
X128013750Y-144190000I218750J0D01*
G01*
G37*
G36*
G01*
X128013750Y-145765000D02*
X128526250Y-145765000D01*
G75*
G02*
X128745000Y-145983750I0J-218750D01*
G01*
X128745000Y-146421250D01*
G75*
G02*
X128526250Y-146640000I-218750J0D01*
G01*
X128013750Y-146640000D01*
G75*
G02*
X127795000Y-146421250I0J218750D01*
G01*
X127795000Y-145983750D01*
G75*
G02*
X128013750Y-145765000I218750J0D01*
G01*
G37*
%TD*%
%TO.C,D6*%
G36*
G01*
X146428750Y-144190000D02*
X146941250Y-144190000D01*
G75*
G02*
X147160000Y-144408750I0J-218750D01*
G01*
X147160000Y-144846250D01*
G75*
G02*
X146941250Y-145065000I-218750J0D01*
G01*
X146428750Y-145065000D01*
G75*
G02*
X146210000Y-144846250I0J218750D01*
G01*
X146210000Y-144408750D01*
G75*
G02*
X146428750Y-144190000I218750J0D01*
G01*
G37*
G36*
G01*
X146428750Y-145765000D02*
X146941250Y-145765000D01*
G75*
G02*
X147160000Y-145983750I0J-218750D01*
G01*
X147160000Y-146421250D01*
G75*
G02*
X146941250Y-146640000I-218750J0D01*
G01*
X146428750Y-146640000D01*
G75*
G02*
X146210000Y-146421250I0J218750D01*
G01*
X146210000Y-145983750D01*
G75*
G02*
X146428750Y-145765000I218750J0D01*
G01*
G37*
%TD*%
%TO.C,D5*%
G36*
G01*
X143253750Y-144190000D02*
X143766250Y-144190000D01*
G75*
G02*
X143985000Y-144408750I0J-218750D01*
G01*
X143985000Y-144846250D01*
G75*
G02*
X143766250Y-145065000I-218750J0D01*
G01*
X143253750Y-145065000D01*
G75*
G02*
X143035000Y-144846250I0J218750D01*
G01*
X143035000Y-144408750D01*
G75*
G02*
X143253750Y-144190000I218750J0D01*
G01*
G37*
G36*
G01*
X143253750Y-145765000D02*
X143766250Y-145765000D01*
G75*
G02*
X143985000Y-145983750I0J-218750D01*
G01*
X143985000Y-146421250D01*
G75*
G02*
X143766250Y-146640000I-218750J0D01*
G01*
X143253750Y-146640000D01*
G75*
G02*
X143035000Y-146421250I0J218750D01*
G01*
X143035000Y-145983750D01*
G75*
G02*
X143253750Y-145765000I218750J0D01*
G01*
G37*
%TD*%
%TO.C,D4*%
G36*
G01*
X140078750Y-144190000D02*
X140591250Y-144190000D01*
G75*
G02*
X140810000Y-144408750I0J-218750D01*
G01*
X140810000Y-144846250D01*
G75*
G02*
X140591250Y-145065000I-218750J0D01*
G01*
X140078750Y-145065000D01*
G75*
G02*
X139860000Y-144846250I0J218750D01*
G01*
X139860000Y-144408750D01*
G75*
G02*
X140078750Y-144190000I218750J0D01*
G01*
G37*
G36*
G01*
X140078750Y-145765000D02*
X140591250Y-145765000D01*
G75*
G02*
X140810000Y-145983750I0J-218750D01*
G01*
X140810000Y-146421250D01*
G75*
G02*
X140591250Y-146640000I-218750J0D01*
G01*
X140078750Y-146640000D01*
G75*
G02*
X139860000Y-146421250I0J218750D01*
G01*
X139860000Y-145983750D01*
G75*
G02*
X140078750Y-145765000I218750J0D01*
G01*
G37*
%TD*%
%TO.C,D3*%
G36*
G01*
X136903750Y-144190000D02*
X137416250Y-144190000D01*
G75*
G02*
X137635000Y-144408750I0J-218750D01*
G01*
X137635000Y-144846250D01*
G75*
G02*
X137416250Y-145065000I-218750J0D01*
G01*
X136903750Y-145065000D01*
G75*
G02*
X136685000Y-144846250I0J218750D01*
G01*
X136685000Y-144408750D01*
G75*
G02*
X136903750Y-144190000I218750J0D01*
G01*
G37*
G36*
G01*
X136903750Y-145765000D02*
X137416250Y-145765000D01*
G75*
G02*
X137635000Y-145983750I0J-218750D01*
G01*
X137635000Y-146421250D01*
G75*
G02*
X137416250Y-146640000I-218750J0D01*
G01*
X136903750Y-146640000D01*
G75*
G02*
X136685000Y-146421250I0J218750D01*
G01*
X136685000Y-145983750D01*
G75*
G02*
X136903750Y-145765000I218750J0D01*
G01*
G37*
%TD*%
%TO.C,D1*%
G36*
G01*
X122933750Y-144190000D02*
X123446250Y-144190000D01*
G75*
G02*
X123665000Y-144408750I0J-218750D01*
G01*
X123665000Y-144846250D01*
G75*
G02*
X123446250Y-145065000I-218750J0D01*
G01*
X122933750Y-145065000D01*
G75*
G02*
X122715000Y-144846250I0J218750D01*
G01*
X122715000Y-144408750D01*
G75*
G02*
X122933750Y-144190000I218750J0D01*
G01*
G37*
G36*
G01*
X122933750Y-145765000D02*
X123446250Y-145765000D01*
G75*
G02*
X123665000Y-145983750I0J-218750D01*
G01*
X123665000Y-146421250D01*
G75*
G02*
X123446250Y-146640000I-218750J0D01*
G01*
X122933750Y-146640000D01*
G75*
G02*
X122715000Y-146421250I0J218750D01*
G01*
X122715000Y-145983750D01*
G75*
G02*
X122933750Y-145765000I218750J0D01*
G01*
G37*
%TD*%
%TO.C,U14*%
G36*
G01*
X90320000Y-80830000D02*
X90020000Y-80830000D01*
G75*
G02*
X89870000Y-80680000I0J150000D01*
G01*
X89870000Y-78930000D01*
G75*
G02*
X90020000Y-78780000I150000J0D01*
G01*
X90320000Y-78780000D01*
G75*
G02*
X90470000Y-78930000I0J-150000D01*
G01*
X90470000Y-80680000D01*
G75*
G02*
X90320000Y-80830000I-150000J0D01*
G01*
G37*
G36*
G01*
X91590000Y-80830000D02*
X91290000Y-80830000D01*
G75*
G02*
X91140000Y-80680000I0J150000D01*
G01*
X91140000Y-78930000D01*
G75*
G02*
X91290000Y-78780000I150000J0D01*
G01*
X91590000Y-78780000D01*
G75*
G02*
X91740000Y-78930000I0J-150000D01*
G01*
X91740000Y-80680000D01*
G75*
G02*
X91590000Y-80830000I-150000J0D01*
G01*
G37*
G36*
G01*
X92860000Y-80830000D02*
X92560000Y-80830000D01*
G75*
G02*
X92410000Y-80680000I0J150000D01*
G01*
X92410000Y-78930000D01*
G75*
G02*
X92560000Y-78780000I150000J0D01*
G01*
X92860000Y-78780000D01*
G75*
G02*
X93010000Y-78930000I0J-150000D01*
G01*
X93010000Y-80680000D01*
G75*
G02*
X92860000Y-80830000I-150000J0D01*
G01*
G37*
G36*
G01*
X94130000Y-80830000D02*
X93830000Y-80830000D01*
G75*
G02*
X93680000Y-80680000I0J150000D01*
G01*
X93680000Y-78930000D01*
G75*
G02*
X93830000Y-78780000I150000J0D01*
G01*
X94130000Y-78780000D01*
G75*
G02*
X94280000Y-78930000I0J-150000D01*
G01*
X94280000Y-80680000D01*
G75*
G02*
X94130000Y-80830000I-150000J0D01*
G01*
G37*
G36*
G01*
X95400000Y-80830000D02*
X95100000Y-80830000D01*
G75*
G02*
X94950000Y-80680000I0J150000D01*
G01*
X94950000Y-78930000D01*
G75*
G02*
X95100000Y-78780000I150000J0D01*
G01*
X95400000Y-78780000D01*
G75*
G02*
X95550000Y-78930000I0J-150000D01*
G01*
X95550000Y-80680000D01*
G75*
G02*
X95400000Y-80830000I-150000J0D01*
G01*
G37*
G36*
G01*
X96670000Y-80830000D02*
X96370000Y-80830000D01*
G75*
G02*
X96220000Y-80680000I0J150000D01*
G01*
X96220000Y-78930000D01*
G75*
G02*
X96370000Y-78780000I150000J0D01*
G01*
X96670000Y-78780000D01*
G75*
G02*
X96820000Y-78930000I0J-150000D01*
G01*
X96820000Y-80680000D01*
G75*
G02*
X96670000Y-80830000I-150000J0D01*
G01*
G37*
G36*
G01*
X97940000Y-80830000D02*
X97640000Y-80830000D01*
G75*
G02*
X97490000Y-80680000I0J150000D01*
G01*
X97490000Y-78930000D01*
G75*
G02*
X97640000Y-78780000I150000J0D01*
G01*
X97940000Y-78780000D01*
G75*
G02*
X98090000Y-78930000I0J-150000D01*
G01*
X98090000Y-80680000D01*
G75*
G02*
X97940000Y-80830000I-150000J0D01*
G01*
G37*
G36*
G01*
X99210000Y-80830000D02*
X98910000Y-80830000D01*
G75*
G02*
X98760000Y-80680000I0J150000D01*
G01*
X98760000Y-78930000D01*
G75*
G02*
X98910000Y-78780000I150000J0D01*
G01*
X99210000Y-78780000D01*
G75*
G02*
X99360000Y-78930000I0J-150000D01*
G01*
X99360000Y-80680000D01*
G75*
G02*
X99210000Y-80830000I-150000J0D01*
G01*
G37*
G36*
G01*
X100480000Y-80830000D02*
X100180000Y-80830000D01*
G75*
G02*
X100030000Y-80680000I0J150000D01*
G01*
X100030000Y-78930000D01*
G75*
G02*
X100180000Y-78780000I150000J0D01*
G01*
X100480000Y-78780000D01*
G75*
G02*
X100630000Y-78930000I0J-150000D01*
G01*
X100630000Y-80680000D01*
G75*
G02*
X100480000Y-80830000I-150000J0D01*
G01*
G37*
G36*
G01*
X101750000Y-80830000D02*
X101450000Y-80830000D01*
G75*
G02*
X101300000Y-80680000I0J150000D01*
G01*
X101300000Y-78930000D01*
G75*
G02*
X101450000Y-78780000I150000J0D01*
G01*
X101750000Y-78780000D01*
G75*
G02*
X101900000Y-78930000I0J-150000D01*
G01*
X101900000Y-80680000D01*
G75*
G02*
X101750000Y-80830000I-150000J0D01*
G01*
G37*
G36*
G01*
X103020000Y-80830000D02*
X102720000Y-80830000D01*
G75*
G02*
X102570000Y-80680000I0J150000D01*
G01*
X102570000Y-78930000D01*
G75*
G02*
X102720000Y-78780000I150000J0D01*
G01*
X103020000Y-78780000D01*
G75*
G02*
X103170000Y-78930000I0J-150000D01*
G01*
X103170000Y-80680000D01*
G75*
G02*
X103020000Y-80830000I-150000J0D01*
G01*
G37*
G36*
G01*
X104290000Y-80830000D02*
X103990000Y-80830000D01*
G75*
G02*
X103840000Y-80680000I0J150000D01*
G01*
X103840000Y-78930000D01*
G75*
G02*
X103990000Y-78780000I150000J0D01*
G01*
X104290000Y-78780000D01*
G75*
G02*
X104440000Y-78930000I0J-150000D01*
G01*
X104440000Y-80680000D01*
G75*
G02*
X104290000Y-80830000I-150000J0D01*
G01*
G37*
G36*
G01*
X105560000Y-80830000D02*
X105260000Y-80830000D01*
G75*
G02*
X105110000Y-80680000I0J150000D01*
G01*
X105110000Y-78930000D01*
G75*
G02*
X105260000Y-78780000I150000J0D01*
G01*
X105560000Y-78780000D01*
G75*
G02*
X105710000Y-78930000I0J-150000D01*
G01*
X105710000Y-80680000D01*
G75*
G02*
X105560000Y-80830000I-150000J0D01*
G01*
G37*
G36*
G01*
X106830000Y-80830000D02*
X106530000Y-80830000D01*
G75*
G02*
X106380000Y-80680000I0J150000D01*
G01*
X106380000Y-78930000D01*
G75*
G02*
X106530000Y-78780000I150000J0D01*
G01*
X106830000Y-78780000D01*
G75*
G02*
X106980000Y-78930000I0J-150000D01*
G01*
X106980000Y-80680000D01*
G75*
G02*
X106830000Y-80830000I-150000J0D01*
G01*
G37*
G36*
G01*
X106830000Y-90130000D02*
X106530000Y-90130000D01*
G75*
G02*
X106380000Y-89980000I0J150000D01*
G01*
X106380000Y-88230000D01*
G75*
G02*
X106530000Y-88080000I150000J0D01*
G01*
X106830000Y-88080000D01*
G75*
G02*
X106980000Y-88230000I0J-150000D01*
G01*
X106980000Y-89980000D01*
G75*
G02*
X106830000Y-90130000I-150000J0D01*
G01*
G37*
G36*
G01*
X105560000Y-90130000D02*
X105260000Y-90130000D01*
G75*
G02*
X105110000Y-89980000I0J150000D01*
G01*
X105110000Y-88230000D01*
G75*
G02*
X105260000Y-88080000I150000J0D01*
G01*
X105560000Y-88080000D01*
G75*
G02*
X105710000Y-88230000I0J-150000D01*
G01*
X105710000Y-89980000D01*
G75*
G02*
X105560000Y-90130000I-150000J0D01*
G01*
G37*
G36*
G01*
X104290000Y-90130000D02*
X103990000Y-90130000D01*
G75*
G02*
X103840000Y-89980000I0J150000D01*
G01*
X103840000Y-88230000D01*
G75*
G02*
X103990000Y-88080000I150000J0D01*
G01*
X104290000Y-88080000D01*
G75*
G02*
X104440000Y-88230000I0J-150000D01*
G01*
X104440000Y-89980000D01*
G75*
G02*
X104290000Y-90130000I-150000J0D01*
G01*
G37*
G36*
G01*
X103020000Y-90130000D02*
X102720000Y-90130000D01*
G75*
G02*
X102570000Y-89980000I0J150000D01*
G01*
X102570000Y-88230000D01*
G75*
G02*
X102720000Y-88080000I150000J0D01*
G01*
X103020000Y-88080000D01*
G75*
G02*
X103170000Y-88230000I0J-150000D01*
G01*
X103170000Y-89980000D01*
G75*
G02*
X103020000Y-90130000I-150000J0D01*
G01*
G37*
G36*
G01*
X101750000Y-90130000D02*
X101450000Y-90130000D01*
G75*
G02*
X101300000Y-89980000I0J150000D01*
G01*
X101300000Y-88230000D01*
G75*
G02*
X101450000Y-88080000I150000J0D01*
G01*
X101750000Y-88080000D01*
G75*
G02*
X101900000Y-88230000I0J-150000D01*
G01*
X101900000Y-89980000D01*
G75*
G02*
X101750000Y-90130000I-150000J0D01*
G01*
G37*
G36*
G01*
X100480000Y-90130000D02*
X100180000Y-90130000D01*
G75*
G02*
X100030000Y-89980000I0J150000D01*
G01*
X100030000Y-88230000D01*
G75*
G02*
X100180000Y-88080000I150000J0D01*
G01*
X100480000Y-88080000D01*
G75*
G02*
X100630000Y-88230000I0J-150000D01*
G01*
X100630000Y-89980000D01*
G75*
G02*
X100480000Y-90130000I-150000J0D01*
G01*
G37*
G36*
G01*
X99210000Y-90130000D02*
X98910000Y-90130000D01*
G75*
G02*
X98760000Y-89980000I0J150000D01*
G01*
X98760000Y-88230000D01*
G75*
G02*
X98910000Y-88080000I150000J0D01*
G01*
X99210000Y-88080000D01*
G75*
G02*
X99360000Y-88230000I0J-150000D01*
G01*
X99360000Y-89980000D01*
G75*
G02*
X99210000Y-90130000I-150000J0D01*
G01*
G37*
G36*
G01*
X97940000Y-90130000D02*
X97640000Y-90130000D01*
G75*
G02*
X97490000Y-89980000I0J150000D01*
G01*
X97490000Y-88230000D01*
G75*
G02*
X97640000Y-88080000I150000J0D01*
G01*
X97940000Y-88080000D01*
G75*
G02*
X98090000Y-88230000I0J-150000D01*
G01*
X98090000Y-89980000D01*
G75*
G02*
X97940000Y-90130000I-150000J0D01*
G01*
G37*
G36*
G01*
X96670000Y-90130000D02*
X96370000Y-90130000D01*
G75*
G02*
X96220000Y-89980000I0J150000D01*
G01*
X96220000Y-88230000D01*
G75*
G02*
X96370000Y-88080000I150000J0D01*
G01*
X96670000Y-88080000D01*
G75*
G02*
X96820000Y-88230000I0J-150000D01*
G01*
X96820000Y-89980000D01*
G75*
G02*
X96670000Y-90130000I-150000J0D01*
G01*
G37*
G36*
G01*
X95400000Y-90130000D02*
X95100000Y-90130000D01*
G75*
G02*
X94950000Y-89980000I0J150000D01*
G01*
X94950000Y-88230000D01*
G75*
G02*
X95100000Y-88080000I150000J0D01*
G01*
X95400000Y-88080000D01*
G75*
G02*
X95550000Y-88230000I0J-150000D01*
G01*
X95550000Y-89980000D01*
G75*
G02*
X95400000Y-90130000I-150000J0D01*
G01*
G37*
G36*
G01*
X94130000Y-90130000D02*
X93830000Y-90130000D01*
G75*
G02*
X93680000Y-89980000I0J150000D01*
G01*
X93680000Y-88230000D01*
G75*
G02*
X93830000Y-88080000I150000J0D01*
G01*
X94130000Y-88080000D01*
G75*
G02*
X94280000Y-88230000I0J-150000D01*
G01*
X94280000Y-89980000D01*
G75*
G02*
X94130000Y-90130000I-150000J0D01*
G01*
G37*
G36*
G01*
X92860000Y-90130000D02*
X92560000Y-90130000D01*
G75*
G02*
X92410000Y-89980000I0J150000D01*
G01*
X92410000Y-88230000D01*
G75*
G02*
X92560000Y-88080000I150000J0D01*
G01*
X92860000Y-88080000D01*
G75*
G02*
X93010000Y-88230000I0J-150000D01*
G01*
X93010000Y-89980000D01*
G75*
G02*
X92860000Y-90130000I-150000J0D01*
G01*
G37*
G36*
G01*
X91590000Y-90130000D02*
X91290000Y-90130000D01*
G75*
G02*
X91140000Y-89980000I0J150000D01*
G01*
X91140000Y-88230000D01*
G75*
G02*
X91290000Y-88080000I150000J0D01*
G01*
X91590000Y-88080000D01*
G75*
G02*
X91740000Y-88230000I0J-150000D01*
G01*
X91740000Y-89980000D01*
G75*
G02*
X91590000Y-90130000I-150000J0D01*
G01*
G37*
G36*
G01*
X90320000Y-90130000D02*
X90020000Y-90130000D01*
G75*
G02*
X89870000Y-89980000I0J150000D01*
G01*
X89870000Y-88230000D01*
G75*
G02*
X90020000Y-88080000I150000J0D01*
G01*
X90320000Y-88080000D01*
G75*
G02*
X90470000Y-88230000I0J-150000D01*
G01*
X90470000Y-89980000D01*
G75*
G02*
X90320000Y-90130000I-150000J0D01*
G01*
G37*
%TD*%
%TO.C,C14*%
G36*
G01*
X86738750Y-84805000D02*
X87251250Y-84805000D01*
G75*
G02*
X87470000Y-85023750I0J-218750D01*
G01*
X87470000Y-85461250D01*
G75*
G02*
X87251250Y-85680000I-218750J0D01*
G01*
X86738750Y-85680000D01*
G75*
G02*
X86520000Y-85461250I0J218750D01*
G01*
X86520000Y-85023750D01*
G75*
G02*
X86738750Y-84805000I218750J0D01*
G01*
G37*
G36*
G01*
X86738750Y-83230000D02*
X87251250Y-83230000D01*
G75*
G02*
X87470000Y-83448750I0J-218750D01*
G01*
X87470000Y-83886250D01*
G75*
G02*
X87251250Y-84105000I-218750J0D01*
G01*
X86738750Y-84105000D01*
G75*
G02*
X86520000Y-83886250I0J218750D01*
G01*
X86520000Y-83448750D01*
G75*
G02*
X86738750Y-83230000I218750J0D01*
G01*
G37*
%TD*%
%TO.C,C20*%
G36*
G01*
X98803750Y-111475000D02*
X99316250Y-111475000D01*
G75*
G02*
X99535000Y-111693750I0J-218750D01*
G01*
X99535000Y-112131250D01*
G75*
G02*
X99316250Y-112350000I-218750J0D01*
G01*
X98803750Y-112350000D01*
G75*
G02*
X98585000Y-112131250I0J218750D01*
G01*
X98585000Y-111693750D01*
G75*
G02*
X98803750Y-111475000I218750J0D01*
G01*
G37*
G36*
G01*
X98803750Y-109900000D02*
X99316250Y-109900000D01*
G75*
G02*
X99535000Y-110118750I0J-218750D01*
G01*
X99535000Y-110556250D01*
G75*
G02*
X99316250Y-110775000I-218750J0D01*
G01*
X98803750Y-110775000D01*
G75*
G02*
X98585000Y-110556250I0J218750D01*
G01*
X98585000Y-110118750D01*
G75*
G02*
X98803750Y-109900000I218750J0D01*
G01*
G37*
%TD*%
%TO.C,C19*%
G36*
G01*
X83563750Y-111475000D02*
X84076250Y-111475000D01*
G75*
G02*
X84295000Y-111693750I0J-218750D01*
G01*
X84295000Y-112131250D01*
G75*
G02*
X84076250Y-112350000I-218750J0D01*
G01*
X83563750Y-112350000D01*
G75*
G02*
X83345000Y-112131250I0J218750D01*
G01*
X83345000Y-111693750D01*
G75*
G02*
X83563750Y-111475000I218750J0D01*
G01*
G37*
G36*
G01*
X83563750Y-109900000D02*
X84076250Y-109900000D01*
G75*
G02*
X84295000Y-110118750I0J-218750D01*
G01*
X84295000Y-110556250D01*
G75*
G02*
X84076250Y-110775000I-218750J0D01*
G01*
X83563750Y-110775000D01*
G75*
G02*
X83345000Y-110556250I0J218750D01*
G01*
X83345000Y-110118750D01*
G75*
G02*
X83563750Y-109900000I218750J0D01*
G01*
G37*
%TD*%
%TO.C,U13*%
G36*
G01*
X113815000Y-80830000D02*
X113515000Y-80830000D01*
G75*
G02*
X113365000Y-80680000I0J150000D01*
G01*
X113365000Y-78930000D01*
G75*
G02*
X113515000Y-78780000I150000J0D01*
G01*
X113815000Y-78780000D01*
G75*
G02*
X113965000Y-78930000I0J-150000D01*
G01*
X113965000Y-80680000D01*
G75*
G02*
X113815000Y-80830000I-150000J0D01*
G01*
G37*
G36*
G01*
X115085000Y-80830000D02*
X114785000Y-80830000D01*
G75*
G02*
X114635000Y-80680000I0J150000D01*
G01*
X114635000Y-78930000D01*
G75*
G02*
X114785000Y-78780000I150000J0D01*
G01*
X115085000Y-78780000D01*
G75*
G02*
X115235000Y-78930000I0J-150000D01*
G01*
X115235000Y-80680000D01*
G75*
G02*
X115085000Y-80830000I-150000J0D01*
G01*
G37*
G36*
G01*
X116355000Y-80830000D02*
X116055000Y-80830000D01*
G75*
G02*
X115905000Y-80680000I0J150000D01*
G01*
X115905000Y-78930000D01*
G75*
G02*
X116055000Y-78780000I150000J0D01*
G01*
X116355000Y-78780000D01*
G75*
G02*
X116505000Y-78930000I0J-150000D01*
G01*
X116505000Y-80680000D01*
G75*
G02*
X116355000Y-80830000I-150000J0D01*
G01*
G37*
G36*
G01*
X117625000Y-80830000D02*
X117325000Y-80830000D01*
G75*
G02*
X117175000Y-80680000I0J150000D01*
G01*
X117175000Y-78930000D01*
G75*
G02*
X117325000Y-78780000I150000J0D01*
G01*
X117625000Y-78780000D01*
G75*
G02*
X117775000Y-78930000I0J-150000D01*
G01*
X117775000Y-80680000D01*
G75*
G02*
X117625000Y-80830000I-150000J0D01*
G01*
G37*
G36*
G01*
X118895000Y-80830000D02*
X118595000Y-80830000D01*
G75*
G02*
X118445000Y-80680000I0J150000D01*
G01*
X118445000Y-78930000D01*
G75*
G02*
X118595000Y-78780000I150000J0D01*
G01*
X118895000Y-78780000D01*
G75*
G02*
X119045000Y-78930000I0J-150000D01*
G01*
X119045000Y-80680000D01*
G75*
G02*
X118895000Y-80830000I-150000J0D01*
G01*
G37*
G36*
G01*
X120165000Y-80830000D02*
X119865000Y-80830000D01*
G75*
G02*
X119715000Y-80680000I0J150000D01*
G01*
X119715000Y-78930000D01*
G75*
G02*
X119865000Y-78780000I150000J0D01*
G01*
X120165000Y-78780000D01*
G75*
G02*
X120315000Y-78930000I0J-150000D01*
G01*
X120315000Y-80680000D01*
G75*
G02*
X120165000Y-80830000I-150000J0D01*
G01*
G37*
G36*
G01*
X121435000Y-80830000D02*
X121135000Y-80830000D01*
G75*
G02*
X120985000Y-80680000I0J150000D01*
G01*
X120985000Y-78930000D01*
G75*
G02*
X121135000Y-78780000I150000J0D01*
G01*
X121435000Y-78780000D01*
G75*
G02*
X121585000Y-78930000I0J-150000D01*
G01*
X121585000Y-80680000D01*
G75*
G02*
X121435000Y-80830000I-150000J0D01*
G01*
G37*
G36*
G01*
X122705000Y-80830000D02*
X122405000Y-80830000D01*
G75*
G02*
X122255000Y-80680000I0J150000D01*
G01*
X122255000Y-78930000D01*
G75*
G02*
X122405000Y-78780000I150000J0D01*
G01*
X122705000Y-78780000D01*
G75*
G02*
X122855000Y-78930000I0J-150000D01*
G01*
X122855000Y-80680000D01*
G75*
G02*
X122705000Y-80830000I-150000J0D01*
G01*
G37*
G36*
G01*
X123975000Y-80830000D02*
X123675000Y-80830000D01*
G75*
G02*
X123525000Y-80680000I0J150000D01*
G01*
X123525000Y-78930000D01*
G75*
G02*
X123675000Y-78780000I150000J0D01*
G01*
X123975000Y-78780000D01*
G75*
G02*
X124125000Y-78930000I0J-150000D01*
G01*
X124125000Y-80680000D01*
G75*
G02*
X123975000Y-80830000I-150000J0D01*
G01*
G37*
G36*
G01*
X125245000Y-80830000D02*
X124945000Y-80830000D01*
G75*
G02*
X124795000Y-80680000I0J150000D01*
G01*
X124795000Y-78930000D01*
G75*
G02*
X124945000Y-78780000I150000J0D01*
G01*
X125245000Y-78780000D01*
G75*
G02*
X125395000Y-78930000I0J-150000D01*
G01*
X125395000Y-80680000D01*
G75*
G02*
X125245000Y-80830000I-150000J0D01*
G01*
G37*
G36*
G01*
X126515000Y-80830000D02*
X126215000Y-80830000D01*
G75*
G02*
X126065000Y-80680000I0J150000D01*
G01*
X126065000Y-78930000D01*
G75*
G02*
X126215000Y-78780000I150000J0D01*
G01*
X126515000Y-78780000D01*
G75*
G02*
X126665000Y-78930000I0J-150000D01*
G01*
X126665000Y-80680000D01*
G75*
G02*
X126515000Y-80830000I-150000J0D01*
G01*
G37*
G36*
G01*
X127785000Y-80830000D02*
X127485000Y-80830000D01*
G75*
G02*
X127335000Y-80680000I0J150000D01*
G01*
X127335000Y-78930000D01*
G75*
G02*
X127485000Y-78780000I150000J0D01*
G01*
X127785000Y-78780000D01*
G75*
G02*
X127935000Y-78930000I0J-150000D01*
G01*
X127935000Y-80680000D01*
G75*
G02*
X127785000Y-80830000I-150000J0D01*
G01*
G37*
G36*
G01*
X129055000Y-80830000D02*
X128755000Y-80830000D01*
G75*
G02*
X128605000Y-80680000I0J150000D01*
G01*
X128605000Y-78930000D01*
G75*
G02*
X128755000Y-78780000I150000J0D01*
G01*
X129055000Y-78780000D01*
G75*
G02*
X129205000Y-78930000I0J-150000D01*
G01*
X129205000Y-80680000D01*
G75*
G02*
X129055000Y-80830000I-150000J0D01*
G01*
G37*
G36*
G01*
X130325000Y-80830000D02*
X130025000Y-80830000D01*
G75*
G02*
X129875000Y-80680000I0J150000D01*
G01*
X129875000Y-78930000D01*
G75*
G02*
X130025000Y-78780000I150000J0D01*
G01*
X130325000Y-78780000D01*
G75*
G02*
X130475000Y-78930000I0J-150000D01*
G01*
X130475000Y-80680000D01*
G75*
G02*
X130325000Y-80830000I-150000J0D01*
G01*
G37*
G36*
G01*
X130325000Y-90130000D02*
X130025000Y-90130000D01*
G75*
G02*
X129875000Y-89980000I0J150000D01*
G01*
X129875000Y-88230000D01*
G75*
G02*
X130025000Y-88080000I150000J0D01*
G01*
X130325000Y-88080000D01*
G75*
G02*
X130475000Y-88230000I0J-150000D01*
G01*
X130475000Y-89980000D01*
G75*
G02*
X130325000Y-90130000I-150000J0D01*
G01*
G37*
G36*
G01*
X129055000Y-90130000D02*
X128755000Y-90130000D01*
G75*
G02*
X128605000Y-89980000I0J150000D01*
G01*
X128605000Y-88230000D01*
G75*
G02*
X128755000Y-88080000I150000J0D01*
G01*
X129055000Y-88080000D01*
G75*
G02*
X129205000Y-88230000I0J-150000D01*
G01*
X129205000Y-89980000D01*
G75*
G02*
X129055000Y-90130000I-150000J0D01*
G01*
G37*
G36*
G01*
X127785000Y-90130000D02*
X127485000Y-90130000D01*
G75*
G02*
X127335000Y-89980000I0J150000D01*
G01*
X127335000Y-88230000D01*
G75*
G02*
X127485000Y-88080000I150000J0D01*
G01*
X127785000Y-88080000D01*
G75*
G02*
X127935000Y-88230000I0J-150000D01*
G01*
X127935000Y-89980000D01*
G75*
G02*
X127785000Y-90130000I-150000J0D01*
G01*
G37*
G36*
G01*
X126515000Y-90130000D02*
X126215000Y-90130000D01*
G75*
G02*
X126065000Y-89980000I0J150000D01*
G01*
X126065000Y-88230000D01*
G75*
G02*
X126215000Y-88080000I150000J0D01*
G01*
X126515000Y-88080000D01*
G75*
G02*
X126665000Y-88230000I0J-150000D01*
G01*
X126665000Y-89980000D01*
G75*
G02*
X126515000Y-90130000I-150000J0D01*
G01*
G37*
G36*
G01*
X125245000Y-90130000D02*
X124945000Y-90130000D01*
G75*
G02*
X124795000Y-89980000I0J150000D01*
G01*
X124795000Y-88230000D01*
G75*
G02*
X124945000Y-88080000I150000J0D01*
G01*
X125245000Y-88080000D01*
G75*
G02*
X125395000Y-88230000I0J-150000D01*
G01*
X125395000Y-89980000D01*
G75*
G02*
X125245000Y-90130000I-150000J0D01*
G01*
G37*
G36*
G01*
X123975000Y-90130000D02*
X123675000Y-90130000D01*
G75*
G02*
X123525000Y-89980000I0J150000D01*
G01*
X123525000Y-88230000D01*
G75*
G02*
X123675000Y-88080000I150000J0D01*
G01*
X123975000Y-88080000D01*
G75*
G02*
X124125000Y-88230000I0J-150000D01*
G01*
X124125000Y-89980000D01*
G75*
G02*
X123975000Y-90130000I-150000J0D01*
G01*
G37*
G36*
G01*
X122705000Y-90130000D02*
X122405000Y-90130000D01*
G75*
G02*
X122255000Y-89980000I0J150000D01*
G01*
X122255000Y-88230000D01*
G75*
G02*
X122405000Y-88080000I150000J0D01*
G01*
X122705000Y-88080000D01*
G75*
G02*
X122855000Y-88230000I0J-150000D01*
G01*
X122855000Y-89980000D01*
G75*
G02*
X122705000Y-90130000I-150000J0D01*
G01*
G37*
G36*
G01*
X121435000Y-90130000D02*
X121135000Y-90130000D01*
G75*
G02*
X120985000Y-89980000I0J150000D01*
G01*
X120985000Y-88230000D01*
G75*
G02*
X121135000Y-88080000I150000J0D01*
G01*
X121435000Y-88080000D01*
G75*
G02*
X121585000Y-88230000I0J-150000D01*
G01*
X121585000Y-89980000D01*
G75*
G02*
X121435000Y-90130000I-150000J0D01*
G01*
G37*
G36*
G01*
X120165000Y-90130000D02*
X119865000Y-90130000D01*
G75*
G02*
X119715000Y-89980000I0J150000D01*
G01*
X119715000Y-88230000D01*
G75*
G02*
X119865000Y-88080000I150000J0D01*
G01*
X120165000Y-88080000D01*
G75*
G02*
X120315000Y-88230000I0J-150000D01*
G01*
X120315000Y-89980000D01*
G75*
G02*
X120165000Y-90130000I-150000J0D01*
G01*
G37*
G36*
G01*
X118895000Y-90130000D02*
X118595000Y-90130000D01*
G75*
G02*
X118445000Y-89980000I0J150000D01*
G01*
X118445000Y-88230000D01*
G75*
G02*
X118595000Y-88080000I150000J0D01*
G01*
X118895000Y-88080000D01*
G75*
G02*
X119045000Y-88230000I0J-150000D01*
G01*
X119045000Y-89980000D01*
G75*
G02*
X118895000Y-90130000I-150000J0D01*
G01*
G37*
G36*
G01*
X117625000Y-90130000D02*
X117325000Y-90130000D01*
G75*
G02*
X117175000Y-89980000I0J150000D01*
G01*
X117175000Y-88230000D01*
G75*
G02*
X117325000Y-88080000I150000J0D01*
G01*
X117625000Y-88080000D01*
G75*
G02*
X117775000Y-88230000I0J-150000D01*
G01*
X117775000Y-89980000D01*
G75*
G02*
X117625000Y-90130000I-150000J0D01*
G01*
G37*
G36*
G01*
X116355000Y-90130000D02*
X116055000Y-90130000D01*
G75*
G02*
X115905000Y-89980000I0J150000D01*
G01*
X115905000Y-88230000D01*
G75*
G02*
X116055000Y-88080000I150000J0D01*
G01*
X116355000Y-88080000D01*
G75*
G02*
X116505000Y-88230000I0J-150000D01*
G01*
X116505000Y-89980000D01*
G75*
G02*
X116355000Y-90130000I-150000J0D01*
G01*
G37*
G36*
G01*
X115085000Y-90130000D02*
X114785000Y-90130000D01*
G75*
G02*
X114635000Y-89980000I0J150000D01*
G01*
X114635000Y-88230000D01*
G75*
G02*
X114785000Y-88080000I150000J0D01*
G01*
X115085000Y-88080000D01*
G75*
G02*
X115235000Y-88230000I0J-150000D01*
G01*
X115235000Y-89980000D01*
G75*
G02*
X115085000Y-90130000I-150000J0D01*
G01*
G37*
G36*
G01*
X113815000Y-90130000D02*
X113515000Y-90130000D01*
G75*
G02*
X113365000Y-89980000I0J150000D01*
G01*
X113365000Y-88230000D01*
G75*
G02*
X113515000Y-88080000I150000J0D01*
G01*
X113815000Y-88080000D01*
G75*
G02*
X113965000Y-88230000I0J-150000D01*
G01*
X113965000Y-89980000D01*
G75*
G02*
X113815000Y-90130000I-150000J0D01*
G01*
G37*
%TD*%
%TO.C,C4*%
G36*
G01*
X112773750Y-122270000D02*
X113286250Y-122270000D01*
G75*
G02*
X113505000Y-122488750I0J-218750D01*
G01*
X113505000Y-122926250D01*
G75*
G02*
X113286250Y-123145000I-218750J0D01*
G01*
X112773750Y-123145000D01*
G75*
G02*
X112555000Y-122926250I0J218750D01*
G01*
X112555000Y-122488750D01*
G75*
G02*
X112773750Y-122270000I218750J0D01*
G01*
G37*
G36*
G01*
X112773750Y-120695000D02*
X113286250Y-120695000D01*
G75*
G02*
X113505000Y-120913750I0J-218750D01*
G01*
X113505000Y-121351250D01*
G75*
G02*
X113286250Y-121570000I-218750J0D01*
G01*
X112773750Y-121570000D01*
G75*
G02*
X112555000Y-121351250I0J218750D01*
G01*
X112555000Y-120913750D01*
G75*
G02*
X112773750Y-120695000I218750J0D01*
G01*
G37*
%TD*%
%TO.C,U20*%
G36*
G01*
X102385000Y-109625000D02*
X102085000Y-109625000D01*
G75*
G02*
X101935000Y-109475000I0J150000D01*
G01*
X101935000Y-107825000D01*
G75*
G02*
X102085000Y-107675000I150000J0D01*
G01*
X102385000Y-107675000D01*
G75*
G02*
X102535000Y-107825000I0J-150000D01*
G01*
X102535000Y-109475000D01*
G75*
G02*
X102385000Y-109625000I-150000J0D01*
G01*
G37*
G36*
G01*
X103655000Y-109625000D02*
X103355000Y-109625000D01*
G75*
G02*
X103205000Y-109475000I0J150000D01*
G01*
X103205000Y-107825000D01*
G75*
G02*
X103355000Y-107675000I150000J0D01*
G01*
X103655000Y-107675000D01*
G75*
G02*
X103805000Y-107825000I0J-150000D01*
G01*
X103805000Y-109475000D01*
G75*
G02*
X103655000Y-109625000I-150000J0D01*
G01*
G37*
G36*
G01*
X104925000Y-109625000D02*
X104625000Y-109625000D01*
G75*
G02*
X104475000Y-109475000I0J150000D01*
G01*
X104475000Y-107825000D01*
G75*
G02*
X104625000Y-107675000I150000J0D01*
G01*
X104925000Y-107675000D01*
G75*
G02*
X105075000Y-107825000I0J-150000D01*
G01*
X105075000Y-109475000D01*
G75*
G02*
X104925000Y-109625000I-150000J0D01*
G01*
G37*
G36*
G01*
X106195000Y-109625000D02*
X105895000Y-109625000D01*
G75*
G02*
X105745000Y-109475000I0J150000D01*
G01*
X105745000Y-107825000D01*
G75*
G02*
X105895000Y-107675000I150000J0D01*
G01*
X106195000Y-107675000D01*
G75*
G02*
X106345000Y-107825000I0J-150000D01*
G01*
X106345000Y-109475000D01*
G75*
G02*
X106195000Y-109625000I-150000J0D01*
G01*
G37*
G36*
G01*
X107465000Y-109625000D02*
X107165000Y-109625000D01*
G75*
G02*
X107015000Y-109475000I0J150000D01*
G01*
X107015000Y-107825000D01*
G75*
G02*
X107165000Y-107675000I150000J0D01*
G01*
X107465000Y-107675000D01*
G75*
G02*
X107615000Y-107825000I0J-150000D01*
G01*
X107615000Y-109475000D01*
G75*
G02*
X107465000Y-109625000I-150000J0D01*
G01*
G37*
G36*
G01*
X108735000Y-109625000D02*
X108435000Y-109625000D01*
G75*
G02*
X108285000Y-109475000I0J150000D01*
G01*
X108285000Y-107825000D01*
G75*
G02*
X108435000Y-107675000I150000J0D01*
G01*
X108735000Y-107675000D01*
G75*
G02*
X108885000Y-107825000I0J-150000D01*
G01*
X108885000Y-109475000D01*
G75*
G02*
X108735000Y-109625000I-150000J0D01*
G01*
G37*
G36*
G01*
X110005000Y-109625000D02*
X109705000Y-109625000D01*
G75*
G02*
X109555000Y-109475000I0J150000D01*
G01*
X109555000Y-107825000D01*
G75*
G02*
X109705000Y-107675000I150000J0D01*
G01*
X110005000Y-107675000D01*
G75*
G02*
X110155000Y-107825000I0J-150000D01*
G01*
X110155000Y-109475000D01*
G75*
G02*
X110005000Y-109625000I-150000J0D01*
G01*
G37*
G36*
G01*
X111275000Y-109625000D02*
X110975000Y-109625000D01*
G75*
G02*
X110825000Y-109475000I0J150000D01*
G01*
X110825000Y-107825000D01*
G75*
G02*
X110975000Y-107675000I150000J0D01*
G01*
X111275000Y-107675000D01*
G75*
G02*
X111425000Y-107825000I0J-150000D01*
G01*
X111425000Y-109475000D01*
G75*
G02*
X111275000Y-109625000I-150000J0D01*
G01*
G37*
G36*
G01*
X111275000Y-114575000D02*
X110975000Y-114575000D01*
G75*
G02*
X110825000Y-114425000I0J150000D01*
G01*
X110825000Y-112775000D01*
G75*
G02*
X110975000Y-112625000I150000J0D01*
G01*
X111275000Y-112625000D01*
G75*
G02*
X111425000Y-112775000I0J-150000D01*
G01*
X111425000Y-114425000D01*
G75*
G02*
X111275000Y-114575000I-150000J0D01*
G01*
G37*
G36*
G01*
X110005000Y-114575000D02*
X109705000Y-114575000D01*
G75*
G02*
X109555000Y-114425000I0J150000D01*
G01*
X109555000Y-112775000D01*
G75*
G02*
X109705000Y-112625000I150000J0D01*
G01*
X110005000Y-112625000D01*
G75*
G02*
X110155000Y-112775000I0J-150000D01*
G01*
X110155000Y-114425000D01*
G75*
G02*
X110005000Y-114575000I-150000J0D01*
G01*
G37*
G36*
G01*
X108735000Y-114575000D02*
X108435000Y-114575000D01*
G75*
G02*
X108285000Y-114425000I0J150000D01*
G01*
X108285000Y-112775000D01*
G75*
G02*
X108435000Y-112625000I150000J0D01*
G01*
X108735000Y-112625000D01*
G75*
G02*
X108885000Y-112775000I0J-150000D01*
G01*
X108885000Y-114425000D01*
G75*
G02*
X108735000Y-114575000I-150000J0D01*
G01*
G37*
G36*
G01*
X107465000Y-114575000D02*
X107165000Y-114575000D01*
G75*
G02*
X107015000Y-114425000I0J150000D01*
G01*
X107015000Y-112775000D01*
G75*
G02*
X107165000Y-112625000I150000J0D01*
G01*
X107465000Y-112625000D01*
G75*
G02*
X107615000Y-112775000I0J-150000D01*
G01*
X107615000Y-114425000D01*
G75*
G02*
X107465000Y-114575000I-150000J0D01*
G01*
G37*
G36*
G01*
X106195000Y-114575000D02*
X105895000Y-114575000D01*
G75*
G02*
X105745000Y-114425000I0J150000D01*
G01*
X105745000Y-112775000D01*
G75*
G02*
X105895000Y-112625000I150000J0D01*
G01*
X106195000Y-112625000D01*
G75*
G02*
X106345000Y-112775000I0J-150000D01*
G01*
X106345000Y-114425000D01*
G75*
G02*
X106195000Y-114575000I-150000J0D01*
G01*
G37*
G36*
G01*
X104925000Y-114575000D02*
X104625000Y-114575000D01*
G75*
G02*
X104475000Y-114425000I0J150000D01*
G01*
X104475000Y-112775000D01*
G75*
G02*
X104625000Y-112625000I150000J0D01*
G01*
X104925000Y-112625000D01*
G75*
G02*
X105075000Y-112775000I0J-150000D01*
G01*
X105075000Y-114425000D01*
G75*
G02*
X104925000Y-114575000I-150000J0D01*
G01*
G37*
G36*
G01*
X103655000Y-114575000D02*
X103355000Y-114575000D01*
G75*
G02*
X103205000Y-114425000I0J150000D01*
G01*
X103205000Y-112775000D01*
G75*
G02*
X103355000Y-112625000I150000J0D01*
G01*
X103655000Y-112625000D01*
G75*
G02*
X103805000Y-112775000I0J-150000D01*
G01*
X103805000Y-114425000D01*
G75*
G02*
X103655000Y-114575000I-150000J0D01*
G01*
G37*
G36*
G01*
X102385000Y-114575000D02*
X102085000Y-114575000D01*
G75*
G02*
X101935000Y-114425000I0J150000D01*
G01*
X101935000Y-112775000D01*
G75*
G02*
X102085000Y-112625000I150000J0D01*
G01*
X102385000Y-112625000D01*
G75*
G02*
X102535000Y-112775000I0J-150000D01*
G01*
X102535000Y-114425000D01*
G75*
G02*
X102385000Y-114575000I-150000J0D01*
G01*
G37*
%TD*%
%TO.C,U19*%
G36*
G01*
X87145000Y-109625000D02*
X86845000Y-109625000D01*
G75*
G02*
X86695000Y-109475000I0J150000D01*
G01*
X86695000Y-107825000D01*
G75*
G02*
X86845000Y-107675000I150000J0D01*
G01*
X87145000Y-107675000D01*
G75*
G02*
X87295000Y-107825000I0J-150000D01*
G01*
X87295000Y-109475000D01*
G75*
G02*
X87145000Y-109625000I-150000J0D01*
G01*
G37*
G36*
G01*
X88415000Y-109625000D02*
X88115000Y-109625000D01*
G75*
G02*
X87965000Y-109475000I0J150000D01*
G01*
X87965000Y-107825000D01*
G75*
G02*
X88115000Y-107675000I150000J0D01*
G01*
X88415000Y-107675000D01*
G75*
G02*
X88565000Y-107825000I0J-150000D01*
G01*
X88565000Y-109475000D01*
G75*
G02*
X88415000Y-109625000I-150000J0D01*
G01*
G37*
G36*
G01*
X89685000Y-109625000D02*
X89385000Y-109625000D01*
G75*
G02*
X89235000Y-109475000I0J150000D01*
G01*
X89235000Y-107825000D01*
G75*
G02*
X89385000Y-107675000I150000J0D01*
G01*
X89685000Y-107675000D01*
G75*
G02*
X89835000Y-107825000I0J-150000D01*
G01*
X89835000Y-109475000D01*
G75*
G02*
X89685000Y-109625000I-150000J0D01*
G01*
G37*
G36*
G01*
X90955000Y-109625000D02*
X90655000Y-109625000D01*
G75*
G02*
X90505000Y-109475000I0J150000D01*
G01*
X90505000Y-107825000D01*
G75*
G02*
X90655000Y-107675000I150000J0D01*
G01*
X90955000Y-107675000D01*
G75*
G02*
X91105000Y-107825000I0J-150000D01*
G01*
X91105000Y-109475000D01*
G75*
G02*
X90955000Y-109625000I-150000J0D01*
G01*
G37*
G36*
G01*
X92225000Y-109625000D02*
X91925000Y-109625000D01*
G75*
G02*
X91775000Y-109475000I0J150000D01*
G01*
X91775000Y-107825000D01*
G75*
G02*
X91925000Y-107675000I150000J0D01*
G01*
X92225000Y-107675000D01*
G75*
G02*
X92375000Y-107825000I0J-150000D01*
G01*
X92375000Y-109475000D01*
G75*
G02*
X92225000Y-109625000I-150000J0D01*
G01*
G37*
G36*
G01*
X93495000Y-109625000D02*
X93195000Y-109625000D01*
G75*
G02*
X93045000Y-109475000I0J150000D01*
G01*
X93045000Y-107825000D01*
G75*
G02*
X93195000Y-107675000I150000J0D01*
G01*
X93495000Y-107675000D01*
G75*
G02*
X93645000Y-107825000I0J-150000D01*
G01*
X93645000Y-109475000D01*
G75*
G02*
X93495000Y-109625000I-150000J0D01*
G01*
G37*
G36*
G01*
X94765000Y-109625000D02*
X94465000Y-109625000D01*
G75*
G02*
X94315000Y-109475000I0J150000D01*
G01*
X94315000Y-107825000D01*
G75*
G02*
X94465000Y-107675000I150000J0D01*
G01*
X94765000Y-107675000D01*
G75*
G02*
X94915000Y-107825000I0J-150000D01*
G01*
X94915000Y-109475000D01*
G75*
G02*
X94765000Y-109625000I-150000J0D01*
G01*
G37*
G36*
G01*
X96035000Y-109625000D02*
X95735000Y-109625000D01*
G75*
G02*
X95585000Y-109475000I0J150000D01*
G01*
X95585000Y-107825000D01*
G75*
G02*
X95735000Y-107675000I150000J0D01*
G01*
X96035000Y-107675000D01*
G75*
G02*
X96185000Y-107825000I0J-150000D01*
G01*
X96185000Y-109475000D01*
G75*
G02*
X96035000Y-109625000I-150000J0D01*
G01*
G37*
G36*
G01*
X96035000Y-114575000D02*
X95735000Y-114575000D01*
G75*
G02*
X95585000Y-114425000I0J150000D01*
G01*
X95585000Y-112775000D01*
G75*
G02*
X95735000Y-112625000I150000J0D01*
G01*
X96035000Y-112625000D01*
G75*
G02*
X96185000Y-112775000I0J-150000D01*
G01*
X96185000Y-114425000D01*
G75*
G02*
X96035000Y-114575000I-150000J0D01*
G01*
G37*
G36*
G01*
X94765000Y-114575000D02*
X94465000Y-114575000D01*
G75*
G02*
X94315000Y-114425000I0J150000D01*
G01*
X94315000Y-112775000D01*
G75*
G02*
X94465000Y-112625000I150000J0D01*
G01*
X94765000Y-112625000D01*
G75*
G02*
X94915000Y-112775000I0J-150000D01*
G01*
X94915000Y-114425000D01*
G75*
G02*
X94765000Y-114575000I-150000J0D01*
G01*
G37*
G36*
G01*
X93495000Y-114575000D02*
X93195000Y-114575000D01*
G75*
G02*
X93045000Y-114425000I0J150000D01*
G01*
X93045000Y-112775000D01*
G75*
G02*
X93195000Y-112625000I150000J0D01*
G01*
X93495000Y-112625000D01*
G75*
G02*
X93645000Y-112775000I0J-150000D01*
G01*
X93645000Y-114425000D01*
G75*
G02*
X93495000Y-114575000I-150000J0D01*
G01*
G37*
G36*
G01*
X92225000Y-114575000D02*
X91925000Y-114575000D01*
G75*
G02*
X91775000Y-114425000I0J150000D01*
G01*
X91775000Y-112775000D01*
G75*
G02*
X91925000Y-112625000I150000J0D01*
G01*
X92225000Y-112625000D01*
G75*
G02*
X92375000Y-112775000I0J-150000D01*
G01*
X92375000Y-114425000D01*
G75*
G02*
X92225000Y-114575000I-150000J0D01*
G01*
G37*
G36*
G01*
X90955000Y-114575000D02*
X90655000Y-114575000D01*
G75*
G02*
X90505000Y-114425000I0J150000D01*
G01*
X90505000Y-112775000D01*
G75*
G02*
X90655000Y-112625000I150000J0D01*
G01*
X90955000Y-112625000D01*
G75*
G02*
X91105000Y-112775000I0J-150000D01*
G01*
X91105000Y-114425000D01*
G75*
G02*
X90955000Y-114575000I-150000J0D01*
G01*
G37*
G36*
G01*
X89685000Y-114575000D02*
X89385000Y-114575000D01*
G75*
G02*
X89235000Y-114425000I0J150000D01*
G01*
X89235000Y-112775000D01*
G75*
G02*
X89385000Y-112625000I150000J0D01*
G01*
X89685000Y-112625000D01*
G75*
G02*
X89835000Y-112775000I0J-150000D01*
G01*
X89835000Y-114425000D01*
G75*
G02*
X89685000Y-114575000I-150000J0D01*
G01*
G37*
G36*
G01*
X88415000Y-114575000D02*
X88115000Y-114575000D01*
G75*
G02*
X87965000Y-114425000I0J150000D01*
G01*
X87965000Y-112775000D01*
G75*
G02*
X88115000Y-112625000I150000J0D01*
G01*
X88415000Y-112625000D01*
G75*
G02*
X88565000Y-112775000I0J-150000D01*
G01*
X88565000Y-114425000D01*
G75*
G02*
X88415000Y-114575000I-150000J0D01*
G01*
G37*
G36*
G01*
X87145000Y-114575000D02*
X86845000Y-114575000D01*
G75*
G02*
X86695000Y-114425000I0J150000D01*
G01*
X86695000Y-112775000D01*
G75*
G02*
X86845000Y-112625000I150000J0D01*
G01*
X87145000Y-112625000D01*
G75*
G02*
X87295000Y-112775000I0J-150000D01*
G01*
X87295000Y-114425000D01*
G75*
G02*
X87145000Y-114575000I-150000J0D01*
G01*
G37*
%TD*%
D14*
%TO.C,U21*%
X135890000Y-80645000D03*
X138430000Y-88265000D03*
X138430000Y-80645000D03*
D15*
X135890000Y-88265000D03*
%TD*%
%TO.C,U18*%
G36*
G01*
X117625000Y-109625000D02*
X117325000Y-109625000D01*
G75*
G02*
X117175000Y-109475000I0J150000D01*
G01*
X117175000Y-107825000D01*
G75*
G02*
X117325000Y-107675000I150000J0D01*
G01*
X117625000Y-107675000D01*
G75*
G02*
X117775000Y-107825000I0J-150000D01*
G01*
X117775000Y-109475000D01*
G75*
G02*
X117625000Y-109625000I-150000J0D01*
G01*
G37*
G36*
G01*
X118895000Y-109625000D02*
X118595000Y-109625000D01*
G75*
G02*
X118445000Y-109475000I0J150000D01*
G01*
X118445000Y-107825000D01*
G75*
G02*
X118595000Y-107675000I150000J0D01*
G01*
X118895000Y-107675000D01*
G75*
G02*
X119045000Y-107825000I0J-150000D01*
G01*
X119045000Y-109475000D01*
G75*
G02*
X118895000Y-109625000I-150000J0D01*
G01*
G37*
G36*
G01*
X120165000Y-109625000D02*
X119865000Y-109625000D01*
G75*
G02*
X119715000Y-109475000I0J150000D01*
G01*
X119715000Y-107825000D01*
G75*
G02*
X119865000Y-107675000I150000J0D01*
G01*
X120165000Y-107675000D01*
G75*
G02*
X120315000Y-107825000I0J-150000D01*
G01*
X120315000Y-109475000D01*
G75*
G02*
X120165000Y-109625000I-150000J0D01*
G01*
G37*
G36*
G01*
X121435000Y-109625000D02*
X121135000Y-109625000D01*
G75*
G02*
X120985000Y-109475000I0J150000D01*
G01*
X120985000Y-107825000D01*
G75*
G02*
X121135000Y-107675000I150000J0D01*
G01*
X121435000Y-107675000D01*
G75*
G02*
X121585000Y-107825000I0J-150000D01*
G01*
X121585000Y-109475000D01*
G75*
G02*
X121435000Y-109625000I-150000J0D01*
G01*
G37*
G36*
G01*
X122705000Y-109625000D02*
X122405000Y-109625000D01*
G75*
G02*
X122255000Y-109475000I0J150000D01*
G01*
X122255000Y-107825000D01*
G75*
G02*
X122405000Y-107675000I150000J0D01*
G01*
X122705000Y-107675000D01*
G75*
G02*
X122855000Y-107825000I0J-150000D01*
G01*
X122855000Y-109475000D01*
G75*
G02*
X122705000Y-109625000I-150000J0D01*
G01*
G37*
G36*
G01*
X123975000Y-109625000D02*
X123675000Y-109625000D01*
G75*
G02*
X123525000Y-109475000I0J150000D01*
G01*
X123525000Y-107825000D01*
G75*
G02*
X123675000Y-107675000I150000J0D01*
G01*
X123975000Y-107675000D01*
G75*
G02*
X124125000Y-107825000I0J-150000D01*
G01*
X124125000Y-109475000D01*
G75*
G02*
X123975000Y-109625000I-150000J0D01*
G01*
G37*
G36*
G01*
X125245000Y-109625000D02*
X124945000Y-109625000D01*
G75*
G02*
X124795000Y-109475000I0J150000D01*
G01*
X124795000Y-107825000D01*
G75*
G02*
X124945000Y-107675000I150000J0D01*
G01*
X125245000Y-107675000D01*
G75*
G02*
X125395000Y-107825000I0J-150000D01*
G01*
X125395000Y-109475000D01*
G75*
G02*
X125245000Y-109625000I-150000J0D01*
G01*
G37*
G36*
G01*
X125245000Y-114575000D02*
X124945000Y-114575000D01*
G75*
G02*
X124795000Y-114425000I0J150000D01*
G01*
X124795000Y-112775000D01*
G75*
G02*
X124945000Y-112625000I150000J0D01*
G01*
X125245000Y-112625000D01*
G75*
G02*
X125395000Y-112775000I0J-150000D01*
G01*
X125395000Y-114425000D01*
G75*
G02*
X125245000Y-114575000I-150000J0D01*
G01*
G37*
G36*
G01*
X123975000Y-114575000D02*
X123675000Y-114575000D01*
G75*
G02*
X123525000Y-114425000I0J150000D01*
G01*
X123525000Y-112775000D01*
G75*
G02*
X123675000Y-112625000I150000J0D01*
G01*
X123975000Y-112625000D01*
G75*
G02*
X124125000Y-112775000I0J-150000D01*
G01*
X124125000Y-114425000D01*
G75*
G02*
X123975000Y-114575000I-150000J0D01*
G01*
G37*
G36*
G01*
X122705000Y-114575000D02*
X122405000Y-114575000D01*
G75*
G02*
X122255000Y-114425000I0J150000D01*
G01*
X122255000Y-112775000D01*
G75*
G02*
X122405000Y-112625000I150000J0D01*
G01*
X122705000Y-112625000D01*
G75*
G02*
X122855000Y-112775000I0J-150000D01*
G01*
X122855000Y-114425000D01*
G75*
G02*
X122705000Y-114575000I-150000J0D01*
G01*
G37*
G36*
G01*
X121435000Y-114575000D02*
X121135000Y-114575000D01*
G75*
G02*
X120985000Y-114425000I0J150000D01*
G01*
X120985000Y-112775000D01*
G75*
G02*
X121135000Y-112625000I150000J0D01*
G01*
X121435000Y-112625000D01*
G75*
G02*
X121585000Y-112775000I0J-150000D01*
G01*
X121585000Y-114425000D01*
G75*
G02*
X121435000Y-114575000I-150000J0D01*
G01*
G37*
G36*
G01*
X120165000Y-114575000D02*
X119865000Y-114575000D01*
G75*
G02*
X119715000Y-114425000I0J150000D01*
G01*
X119715000Y-112775000D01*
G75*
G02*
X119865000Y-112625000I150000J0D01*
G01*
X120165000Y-112625000D01*
G75*
G02*
X120315000Y-112775000I0J-150000D01*
G01*
X120315000Y-114425000D01*
G75*
G02*
X120165000Y-114575000I-150000J0D01*
G01*
G37*
G36*
G01*
X118895000Y-114575000D02*
X118595000Y-114575000D01*
G75*
G02*
X118445000Y-114425000I0J150000D01*
G01*
X118445000Y-112775000D01*
G75*
G02*
X118595000Y-112625000I150000J0D01*
G01*
X118895000Y-112625000D01*
G75*
G02*
X119045000Y-112775000I0J-150000D01*
G01*
X119045000Y-114425000D01*
G75*
G02*
X118895000Y-114575000I-150000J0D01*
G01*
G37*
G36*
G01*
X117625000Y-114575000D02*
X117325000Y-114575000D01*
G75*
G02*
X117175000Y-114425000I0J150000D01*
G01*
X117175000Y-112775000D01*
G75*
G02*
X117325000Y-112625000I150000J0D01*
G01*
X117625000Y-112625000D01*
G75*
G02*
X117775000Y-112775000I0J-150000D01*
G01*
X117775000Y-114425000D01*
G75*
G02*
X117625000Y-114575000I-150000J0D01*
G01*
G37*
%TD*%
%TO.C,U17*%
G36*
G01*
X130325000Y-120420000D02*
X130025000Y-120420000D01*
G75*
G02*
X129875000Y-120270000I0J150000D01*
G01*
X129875000Y-118620000D01*
G75*
G02*
X130025000Y-118470000I150000J0D01*
G01*
X130325000Y-118470000D01*
G75*
G02*
X130475000Y-118620000I0J-150000D01*
G01*
X130475000Y-120270000D01*
G75*
G02*
X130325000Y-120420000I-150000J0D01*
G01*
G37*
G36*
G01*
X131595000Y-120420000D02*
X131295000Y-120420000D01*
G75*
G02*
X131145000Y-120270000I0J150000D01*
G01*
X131145000Y-118620000D01*
G75*
G02*
X131295000Y-118470000I150000J0D01*
G01*
X131595000Y-118470000D01*
G75*
G02*
X131745000Y-118620000I0J-150000D01*
G01*
X131745000Y-120270000D01*
G75*
G02*
X131595000Y-120420000I-150000J0D01*
G01*
G37*
G36*
G01*
X132865000Y-120420000D02*
X132565000Y-120420000D01*
G75*
G02*
X132415000Y-120270000I0J150000D01*
G01*
X132415000Y-118620000D01*
G75*
G02*
X132565000Y-118470000I150000J0D01*
G01*
X132865000Y-118470000D01*
G75*
G02*
X133015000Y-118620000I0J-150000D01*
G01*
X133015000Y-120270000D01*
G75*
G02*
X132865000Y-120420000I-150000J0D01*
G01*
G37*
G36*
G01*
X134135000Y-120420000D02*
X133835000Y-120420000D01*
G75*
G02*
X133685000Y-120270000I0J150000D01*
G01*
X133685000Y-118620000D01*
G75*
G02*
X133835000Y-118470000I150000J0D01*
G01*
X134135000Y-118470000D01*
G75*
G02*
X134285000Y-118620000I0J-150000D01*
G01*
X134285000Y-120270000D01*
G75*
G02*
X134135000Y-120420000I-150000J0D01*
G01*
G37*
G36*
G01*
X135405000Y-120420000D02*
X135105000Y-120420000D01*
G75*
G02*
X134955000Y-120270000I0J150000D01*
G01*
X134955000Y-118620000D01*
G75*
G02*
X135105000Y-118470000I150000J0D01*
G01*
X135405000Y-118470000D01*
G75*
G02*
X135555000Y-118620000I0J-150000D01*
G01*
X135555000Y-120270000D01*
G75*
G02*
X135405000Y-120420000I-150000J0D01*
G01*
G37*
G36*
G01*
X136675000Y-120420000D02*
X136375000Y-120420000D01*
G75*
G02*
X136225000Y-120270000I0J150000D01*
G01*
X136225000Y-118620000D01*
G75*
G02*
X136375000Y-118470000I150000J0D01*
G01*
X136675000Y-118470000D01*
G75*
G02*
X136825000Y-118620000I0J-150000D01*
G01*
X136825000Y-120270000D01*
G75*
G02*
X136675000Y-120420000I-150000J0D01*
G01*
G37*
G36*
G01*
X137945000Y-120420000D02*
X137645000Y-120420000D01*
G75*
G02*
X137495000Y-120270000I0J150000D01*
G01*
X137495000Y-118620000D01*
G75*
G02*
X137645000Y-118470000I150000J0D01*
G01*
X137945000Y-118470000D01*
G75*
G02*
X138095000Y-118620000I0J-150000D01*
G01*
X138095000Y-120270000D01*
G75*
G02*
X137945000Y-120420000I-150000J0D01*
G01*
G37*
G36*
G01*
X139215000Y-120420000D02*
X138915000Y-120420000D01*
G75*
G02*
X138765000Y-120270000I0J150000D01*
G01*
X138765000Y-118620000D01*
G75*
G02*
X138915000Y-118470000I150000J0D01*
G01*
X139215000Y-118470000D01*
G75*
G02*
X139365000Y-118620000I0J-150000D01*
G01*
X139365000Y-120270000D01*
G75*
G02*
X139215000Y-120420000I-150000J0D01*
G01*
G37*
G36*
G01*
X139215000Y-125370000D02*
X138915000Y-125370000D01*
G75*
G02*
X138765000Y-125220000I0J150000D01*
G01*
X138765000Y-123570000D01*
G75*
G02*
X138915000Y-123420000I150000J0D01*
G01*
X139215000Y-123420000D01*
G75*
G02*
X139365000Y-123570000I0J-150000D01*
G01*
X139365000Y-125220000D01*
G75*
G02*
X139215000Y-125370000I-150000J0D01*
G01*
G37*
G36*
G01*
X137945000Y-125370000D02*
X137645000Y-125370000D01*
G75*
G02*
X137495000Y-125220000I0J150000D01*
G01*
X137495000Y-123570000D01*
G75*
G02*
X137645000Y-123420000I150000J0D01*
G01*
X137945000Y-123420000D01*
G75*
G02*
X138095000Y-123570000I0J-150000D01*
G01*
X138095000Y-125220000D01*
G75*
G02*
X137945000Y-125370000I-150000J0D01*
G01*
G37*
G36*
G01*
X136675000Y-125370000D02*
X136375000Y-125370000D01*
G75*
G02*
X136225000Y-125220000I0J150000D01*
G01*
X136225000Y-123570000D01*
G75*
G02*
X136375000Y-123420000I150000J0D01*
G01*
X136675000Y-123420000D01*
G75*
G02*
X136825000Y-123570000I0J-150000D01*
G01*
X136825000Y-125220000D01*
G75*
G02*
X136675000Y-125370000I-150000J0D01*
G01*
G37*
G36*
G01*
X135405000Y-125370000D02*
X135105000Y-125370000D01*
G75*
G02*
X134955000Y-125220000I0J150000D01*
G01*
X134955000Y-123570000D01*
G75*
G02*
X135105000Y-123420000I150000J0D01*
G01*
X135405000Y-123420000D01*
G75*
G02*
X135555000Y-123570000I0J-150000D01*
G01*
X135555000Y-125220000D01*
G75*
G02*
X135405000Y-125370000I-150000J0D01*
G01*
G37*
G36*
G01*
X134135000Y-125370000D02*
X133835000Y-125370000D01*
G75*
G02*
X133685000Y-125220000I0J150000D01*
G01*
X133685000Y-123570000D01*
G75*
G02*
X133835000Y-123420000I150000J0D01*
G01*
X134135000Y-123420000D01*
G75*
G02*
X134285000Y-123570000I0J-150000D01*
G01*
X134285000Y-125220000D01*
G75*
G02*
X134135000Y-125370000I-150000J0D01*
G01*
G37*
G36*
G01*
X132865000Y-125370000D02*
X132565000Y-125370000D01*
G75*
G02*
X132415000Y-125220000I0J150000D01*
G01*
X132415000Y-123570000D01*
G75*
G02*
X132565000Y-123420000I150000J0D01*
G01*
X132865000Y-123420000D01*
G75*
G02*
X133015000Y-123570000I0J-150000D01*
G01*
X133015000Y-125220000D01*
G75*
G02*
X132865000Y-125370000I-150000J0D01*
G01*
G37*
G36*
G01*
X131595000Y-125370000D02*
X131295000Y-125370000D01*
G75*
G02*
X131145000Y-125220000I0J150000D01*
G01*
X131145000Y-123570000D01*
G75*
G02*
X131295000Y-123420000I150000J0D01*
G01*
X131595000Y-123420000D01*
G75*
G02*
X131745000Y-123570000I0J-150000D01*
G01*
X131745000Y-125220000D01*
G75*
G02*
X131595000Y-125370000I-150000J0D01*
G01*
G37*
G36*
G01*
X130325000Y-125370000D02*
X130025000Y-125370000D01*
G75*
G02*
X129875000Y-125220000I0J150000D01*
G01*
X129875000Y-123570000D01*
G75*
G02*
X130025000Y-123420000I150000J0D01*
G01*
X130325000Y-123420000D01*
G75*
G02*
X130475000Y-123570000I0J-150000D01*
G01*
X130475000Y-125220000D01*
G75*
G02*
X130325000Y-125370000I-150000J0D01*
G01*
G37*
%TD*%
%TO.C,U16*%
G36*
G01*
X71905000Y-80830000D02*
X71605000Y-80830000D01*
G75*
G02*
X71455000Y-80680000I0J150000D01*
G01*
X71455000Y-78930000D01*
G75*
G02*
X71605000Y-78780000I150000J0D01*
G01*
X71905000Y-78780000D01*
G75*
G02*
X72055000Y-78930000I0J-150000D01*
G01*
X72055000Y-80680000D01*
G75*
G02*
X71905000Y-80830000I-150000J0D01*
G01*
G37*
G36*
G01*
X73175000Y-80830000D02*
X72875000Y-80830000D01*
G75*
G02*
X72725000Y-80680000I0J150000D01*
G01*
X72725000Y-78930000D01*
G75*
G02*
X72875000Y-78780000I150000J0D01*
G01*
X73175000Y-78780000D01*
G75*
G02*
X73325000Y-78930000I0J-150000D01*
G01*
X73325000Y-80680000D01*
G75*
G02*
X73175000Y-80830000I-150000J0D01*
G01*
G37*
G36*
G01*
X74445000Y-80830000D02*
X74145000Y-80830000D01*
G75*
G02*
X73995000Y-80680000I0J150000D01*
G01*
X73995000Y-78930000D01*
G75*
G02*
X74145000Y-78780000I150000J0D01*
G01*
X74445000Y-78780000D01*
G75*
G02*
X74595000Y-78930000I0J-150000D01*
G01*
X74595000Y-80680000D01*
G75*
G02*
X74445000Y-80830000I-150000J0D01*
G01*
G37*
G36*
G01*
X75715000Y-80830000D02*
X75415000Y-80830000D01*
G75*
G02*
X75265000Y-80680000I0J150000D01*
G01*
X75265000Y-78930000D01*
G75*
G02*
X75415000Y-78780000I150000J0D01*
G01*
X75715000Y-78780000D01*
G75*
G02*
X75865000Y-78930000I0J-150000D01*
G01*
X75865000Y-80680000D01*
G75*
G02*
X75715000Y-80830000I-150000J0D01*
G01*
G37*
G36*
G01*
X76985000Y-80830000D02*
X76685000Y-80830000D01*
G75*
G02*
X76535000Y-80680000I0J150000D01*
G01*
X76535000Y-78930000D01*
G75*
G02*
X76685000Y-78780000I150000J0D01*
G01*
X76985000Y-78780000D01*
G75*
G02*
X77135000Y-78930000I0J-150000D01*
G01*
X77135000Y-80680000D01*
G75*
G02*
X76985000Y-80830000I-150000J0D01*
G01*
G37*
G36*
G01*
X78255000Y-80830000D02*
X77955000Y-80830000D01*
G75*
G02*
X77805000Y-80680000I0J150000D01*
G01*
X77805000Y-78930000D01*
G75*
G02*
X77955000Y-78780000I150000J0D01*
G01*
X78255000Y-78780000D01*
G75*
G02*
X78405000Y-78930000I0J-150000D01*
G01*
X78405000Y-80680000D01*
G75*
G02*
X78255000Y-80830000I-150000J0D01*
G01*
G37*
G36*
G01*
X79525000Y-80830000D02*
X79225000Y-80830000D01*
G75*
G02*
X79075000Y-80680000I0J150000D01*
G01*
X79075000Y-78930000D01*
G75*
G02*
X79225000Y-78780000I150000J0D01*
G01*
X79525000Y-78780000D01*
G75*
G02*
X79675000Y-78930000I0J-150000D01*
G01*
X79675000Y-80680000D01*
G75*
G02*
X79525000Y-80830000I-150000J0D01*
G01*
G37*
G36*
G01*
X80795000Y-80830000D02*
X80495000Y-80830000D01*
G75*
G02*
X80345000Y-80680000I0J150000D01*
G01*
X80345000Y-78930000D01*
G75*
G02*
X80495000Y-78780000I150000J0D01*
G01*
X80795000Y-78780000D01*
G75*
G02*
X80945000Y-78930000I0J-150000D01*
G01*
X80945000Y-80680000D01*
G75*
G02*
X80795000Y-80830000I-150000J0D01*
G01*
G37*
G36*
G01*
X82065000Y-80830000D02*
X81765000Y-80830000D01*
G75*
G02*
X81615000Y-80680000I0J150000D01*
G01*
X81615000Y-78930000D01*
G75*
G02*
X81765000Y-78780000I150000J0D01*
G01*
X82065000Y-78780000D01*
G75*
G02*
X82215000Y-78930000I0J-150000D01*
G01*
X82215000Y-80680000D01*
G75*
G02*
X82065000Y-80830000I-150000J0D01*
G01*
G37*
G36*
G01*
X83335000Y-80830000D02*
X83035000Y-80830000D01*
G75*
G02*
X82885000Y-80680000I0J150000D01*
G01*
X82885000Y-78930000D01*
G75*
G02*
X83035000Y-78780000I150000J0D01*
G01*
X83335000Y-78780000D01*
G75*
G02*
X83485000Y-78930000I0J-150000D01*
G01*
X83485000Y-80680000D01*
G75*
G02*
X83335000Y-80830000I-150000J0D01*
G01*
G37*
G36*
G01*
X83335000Y-90130000D02*
X83035000Y-90130000D01*
G75*
G02*
X82885000Y-89980000I0J150000D01*
G01*
X82885000Y-88230000D01*
G75*
G02*
X83035000Y-88080000I150000J0D01*
G01*
X83335000Y-88080000D01*
G75*
G02*
X83485000Y-88230000I0J-150000D01*
G01*
X83485000Y-89980000D01*
G75*
G02*
X83335000Y-90130000I-150000J0D01*
G01*
G37*
G36*
G01*
X82065000Y-90130000D02*
X81765000Y-90130000D01*
G75*
G02*
X81615000Y-89980000I0J150000D01*
G01*
X81615000Y-88230000D01*
G75*
G02*
X81765000Y-88080000I150000J0D01*
G01*
X82065000Y-88080000D01*
G75*
G02*
X82215000Y-88230000I0J-150000D01*
G01*
X82215000Y-89980000D01*
G75*
G02*
X82065000Y-90130000I-150000J0D01*
G01*
G37*
G36*
G01*
X80795000Y-90130000D02*
X80495000Y-90130000D01*
G75*
G02*
X80345000Y-89980000I0J150000D01*
G01*
X80345000Y-88230000D01*
G75*
G02*
X80495000Y-88080000I150000J0D01*
G01*
X80795000Y-88080000D01*
G75*
G02*
X80945000Y-88230000I0J-150000D01*
G01*
X80945000Y-89980000D01*
G75*
G02*
X80795000Y-90130000I-150000J0D01*
G01*
G37*
G36*
G01*
X79525000Y-90130000D02*
X79225000Y-90130000D01*
G75*
G02*
X79075000Y-89980000I0J150000D01*
G01*
X79075000Y-88230000D01*
G75*
G02*
X79225000Y-88080000I150000J0D01*
G01*
X79525000Y-88080000D01*
G75*
G02*
X79675000Y-88230000I0J-150000D01*
G01*
X79675000Y-89980000D01*
G75*
G02*
X79525000Y-90130000I-150000J0D01*
G01*
G37*
G36*
G01*
X78255000Y-90130000D02*
X77955000Y-90130000D01*
G75*
G02*
X77805000Y-89980000I0J150000D01*
G01*
X77805000Y-88230000D01*
G75*
G02*
X77955000Y-88080000I150000J0D01*
G01*
X78255000Y-88080000D01*
G75*
G02*
X78405000Y-88230000I0J-150000D01*
G01*
X78405000Y-89980000D01*
G75*
G02*
X78255000Y-90130000I-150000J0D01*
G01*
G37*
G36*
G01*
X76985000Y-90130000D02*
X76685000Y-90130000D01*
G75*
G02*
X76535000Y-89980000I0J150000D01*
G01*
X76535000Y-88230000D01*
G75*
G02*
X76685000Y-88080000I150000J0D01*
G01*
X76985000Y-88080000D01*
G75*
G02*
X77135000Y-88230000I0J-150000D01*
G01*
X77135000Y-89980000D01*
G75*
G02*
X76985000Y-90130000I-150000J0D01*
G01*
G37*
G36*
G01*
X75715000Y-90130000D02*
X75415000Y-90130000D01*
G75*
G02*
X75265000Y-89980000I0J150000D01*
G01*
X75265000Y-88230000D01*
G75*
G02*
X75415000Y-88080000I150000J0D01*
G01*
X75715000Y-88080000D01*
G75*
G02*
X75865000Y-88230000I0J-150000D01*
G01*
X75865000Y-89980000D01*
G75*
G02*
X75715000Y-90130000I-150000J0D01*
G01*
G37*
G36*
G01*
X74445000Y-90130000D02*
X74145000Y-90130000D01*
G75*
G02*
X73995000Y-89980000I0J150000D01*
G01*
X73995000Y-88230000D01*
G75*
G02*
X74145000Y-88080000I150000J0D01*
G01*
X74445000Y-88080000D01*
G75*
G02*
X74595000Y-88230000I0J-150000D01*
G01*
X74595000Y-89980000D01*
G75*
G02*
X74445000Y-90130000I-150000J0D01*
G01*
G37*
G36*
G01*
X73175000Y-90130000D02*
X72875000Y-90130000D01*
G75*
G02*
X72725000Y-89980000I0J150000D01*
G01*
X72725000Y-88230000D01*
G75*
G02*
X72875000Y-88080000I150000J0D01*
G01*
X73175000Y-88080000D01*
G75*
G02*
X73325000Y-88230000I0J-150000D01*
G01*
X73325000Y-89980000D01*
G75*
G02*
X73175000Y-90130000I-150000J0D01*
G01*
G37*
G36*
G01*
X71905000Y-90130000D02*
X71605000Y-90130000D01*
G75*
G02*
X71455000Y-89980000I0J150000D01*
G01*
X71455000Y-88230000D01*
G75*
G02*
X71605000Y-88080000I150000J0D01*
G01*
X71905000Y-88080000D01*
G75*
G02*
X72055000Y-88230000I0J-150000D01*
G01*
X72055000Y-89980000D01*
G75*
G02*
X71905000Y-90130000I-150000J0D01*
G01*
G37*
%TD*%
%TO.C,U15*%
G36*
G01*
X130325000Y-97560000D02*
X130025000Y-97560000D01*
G75*
G02*
X129875000Y-97410000I0J150000D01*
G01*
X129875000Y-95760000D01*
G75*
G02*
X130025000Y-95610000I150000J0D01*
G01*
X130325000Y-95610000D01*
G75*
G02*
X130475000Y-95760000I0J-150000D01*
G01*
X130475000Y-97410000D01*
G75*
G02*
X130325000Y-97560000I-150000J0D01*
G01*
G37*
G36*
G01*
X131595000Y-97560000D02*
X131295000Y-97560000D01*
G75*
G02*
X131145000Y-97410000I0J150000D01*
G01*
X131145000Y-95760000D01*
G75*
G02*
X131295000Y-95610000I150000J0D01*
G01*
X131595000Y-95610000D01*
G75*
G02*
X131745000Y-95760000I0J-150000D01*
G01*
X131745000Y-97410000D01*
G75*
G02*
X131595000Y-97560000I-150000J0D01*
G01*
G37*
G36*
G01*
X132865000Y-97560000D02*
X132565000Y-97560000D01*
G75*
G02*
X132415000Y-97410000I0J150000D01*
G01*
X132415000Y-95760000D01*
G75*
G02*
X132565000Y-95610000I150000J0D01*
G01*
X132865000Y-95610000D01*
G75*
G02*
X133015000Y-95760000I0J-150000D01*
G01*
X133015000Y-97410000D01*
G75*
G02*
X132865000Y-97560000I-150000J0D01*
G01*
G37*
G36*
G01*
X134135000Y-97560000D02*
X133835000Y-97560000D01*
G75*
G02*
X133685000Y-97410000I0J150000D01*
G01*
X133685000Y-95760000D01*
G75*
G02*
X133835000Y-95610000I150000J0D01*
G01*
X134135000Y-95610000D01*
G75*
G02*
X134285000Y-95760000I0J-150000D01*
G01*
X134285000Y-97410000D01*
G75*
G02*
X134135000Y-97560000I-150000J0D01*
G01*
G37*
G36*
G01*
X135405000Y-97560000D02*
X135105000Y-97560000D01*
G75*
G02*
X134955000Y-97410000I0J150000D01*
G01*
X134955000Y-95760000D01*
G75*
G02*
X135105000Y-95610000I150000J0D01*
G01*
X135405000Y-95610000D01*
G75*
G02*
X135555000Y-95760000I0J-150000D01*
G01*
X135555000Y-97410000D01*
G75*
G02*
X135405000Y-97560000I-150000J0D01*
G01*
G37*
G36*
G01*
X136675000Y-97560000D02*
X136375000Y-97560000D01*
G75*
G02*
X136225000Y-97410000I0J150000D01*
G01*
X136225000Y-95760000D01*
G75*
G02*
X136375000Y-95610000I150000J0D01*
G01*
X136675000Y-95610000D01*
G75*
G02*
X136825000Y-95760000I0J-150000D01*
G01*
X136825000Y-97410000D01*
G75*
G02*
X136675000Y-97560000I-150000J0D01*
G01*
G37*
G36*
G01*
X137945000Y-97560000D02*
X137645000Y-97560000D01*
G75*
G02*
X137495000Y-97410000I0J150000D01*
G01*
X137495000Y-95760000D01*
G75*
G02*
X137645000Y-95610000I150000J0D01*
G01*
X137945000Y-95610000D01*
G75*
G02*
X138095000Y-95760000I0J-150000D01*
G01*
X138095000Y-97410000D01*
G75*
G02*
X137945000Y-97560000I-150000J0D01*
G01*
G37*
G36*
G01*
X139215000Y-97560000D02*
X138915000Y-97560000D01*
G75*
G02*
X138765000Y-97410000I0J150000D01*
G01*
X138765000Y-95760000D01*
G75*
G02*
X138915000Y-95610000I150000J0D01*
G01*
X139215000Y-95610000D01*
G75*
G02*
X139365000Y-95760000I0J-150000D01*
G01*
X139365000Y-97410000D01*
G75*
G02*
X139215000Y-97560000I-150000J0D01*
G01*
G37*
G36*
G01*
X139215000Y-102510000D02*
X138915000Y-102510000D01*
G75*
G02*
X138765000Y-102360000I0J150000D01*
G01*
X138765000Y-100710000D01*
G75*
G02*
X138915000Y-100560000I150000J0D01*
G01*
X139215000Y-100560000D01*
G75*
G02*
X139365000Y-100710000I0J-150000D01*
G01*
X139365000Y-102360000D01*
G75*
G02*
X139215000Y-102510000I-150000J0D01*
G01*
G37*
G36*
G01*
X137945000Y-102510000D02*
X137645000Y-102510000D01*
G75*
G02*
X137495000Y-102360000I0J150000D01*
G01*
X137495000Y-100710000D01*
G75*
G02*
X137645000Y-100560000I150000J0D01*
G01*
X137945000Y-100560000D01*
G75*
G02*
X138095000Y-100710000I0J-150000D01*
G01*
X138095000Y-102360000D01*
G75*
G02*
X137945000Y-102510000I-150000J0D01*
G01*
G37*
G36*
G01*
X136675000Y-102510000D02*
X136375000Y-102510000D01*
G75*
G02*
X136225000Y-102360000I0J150000D01*
G01*
X136225000Y-100710000D01*
G75*
G02*
X136375000Y-100560000I150000J0D01*
G01*
X136675000Y-100560000D01*
G75*
G02*
X136825000Y-100710000I0J-150000D01*
G01*
X136825000Y-102360000D01*
G75*
G02*
X136675000Y-102510000I-150000J0D01*
G01*
G37*
G36*
G01*
X135405000Y-102510000D02*
X135105000Y-102510000D01*
G75*
G02*
X134955000Y-102360000I0J150000D01*
G01*
X134955000Y-100710000D01*
G75*
G02*
X135105000Y-100560000I150000J0D01*
G01*
X135405000Y-100560000D01*
G75*
G02*
X135555000Y-100710000I0J-150000D01*
G01*
X135555000Y-102360000D01*
G75*
G02*
X135405000Y-102510000I-150000J0D01*
G01*
G37*
G36*
G01*
X134135000Y-102510000D02*
X133835000Y-102510000D01*
G75*
G02*
X133685000Y-102360000I0J150000D01*
G01*
X133685000Y-100710000D01*
G75*
G02*
X133835000Y-100560000I150000J0D01*
G01*
X134135000Y-100560000D01*
G75*
G02*
X134285000Y-100710000I0J-150000D01*
G01*
X134285000Y-102360000D01*
G75*
G02*
X134135000Y-102510000I-150000J0D01*
G01*
G37*
G36*
G01*
X132865000Y-102510000D02*
X132565000Y-102510000D01*
G75*
G02*
X132415000Y-102360000I0J150000D01*
G01*
X132415000Y-100710000D01*
G75*
G02*
X132565000Y-100560000I150000J0D01*
G01*
X132865000Y-100560000D01*
G75*
G02*
X133015000Y-100710000I0J-150000D01*
G01*
X133015000Y-102360000D01*
G75*
G02*
X132865000Y-102510000I-150000J0D01*
G01*
G37*
G36*
G01*
X131595000Y-102510000D02*
X131295000Y-102510000D01*
G75*
G02*
X131145000Y-102360000I0J150000D01*
G01*
X131145000Y-100710000D01*
G75*
G02*
X131295000Y-100560000I150000J0D01*
G01*
X131595000Y-100560000D01*
G75*
G02*
X131745000Y-100710000I0J-150000D01*
G01*
X131745000Y-102360000D01*
G75*
G02*
X131595000Y-102510000I-150000J0D01*
G01*
G37*
G36*
G01*
X130325000Y-102510000D02*
X130025000Y-102510000D01*
G75*
G02*
X129875000Y-102360000I0J150000D01*
G01*
X129875000Y-100710000D01*
G75*
G02*
X130025000Y-100560000I150000J0D01*
G01*
X130325000Y-100560000D01*
G75*
G02*
X130475000Y-100710000I0J-150000D01*
G01*
X130475000Y-102360000D01*
G75*
G02*
X130325000Y-102510000I-150000J0D01*
G01*
G37*
%TD*%
D14*
%TO.C,U12*%
X88900000Y-95250000D03*
X121920000Y-102870000D03*
X91440000Y-95250000D03*
X119380000Y-102870000D03*
X93980000Y-95250000D03*
X116840000Y-102870000D03*
X96520000Y-95250000D03*
X114300000Y-102870000D03*
X99060000Y-95250000D03*
X111760000Y-102870000D03*
X101600000Y-95250000D03*
X109220000Y-102870000D03*
X104140000Y-95250000D03*
X106680000Y-102870000D03*
X106680000Y-95250000D03*
X104140000Y-102870000D03*
X109220000Y-95250000D03*
X101600000Y-102870000D03*
X111760000Y-95250000D03*
X99060000Y-102870000D03*
X114300000Y-95250000D03*
X96520000Y-102870000D03*
X116840000Y-95250000D03*
X93980000Y-102870000D03*
X119380000Y-95250000D03*
X91440000Y-102870000D03*
X121920000Y-95250000D03*
D15*
X88900000Y-102870000D03*
%TD*%
%TO.C,U11*%
G36*
G01*
X87145000Y-131215000D02*
X86845000Y-131215000D01*
G75*
G02*
X86695000Y-131065000I0J150000D01*
G01*
X86695000Y-129415000D01*
G75*
G02*
X86845000Y-129265000I150000J0D01*
G01*
X87145000Y-129265000D01*
G75*
G02*
X87295000Y-129415000I0J-150000D01*
G01*
X87295000Y-131065000D01*
G75*
G02*
X87145000Y-131215000I-150000J0D01*
G01*
G37*
G36*
G01*
X88415000Y-131215000D02*
X88115000Y-131215000D01*
G75*
G02*
X87965000Y-131065000I0J150000D01*
G01*
X87965000Y-129415000D01*
G75*
G02*
X88115000Y-129265000I150000J0D01*
G01*
X88415000Y-129265000D01*
G75*
G02*
X88565000Y-129415000I0J-150000D01*
G01*
X88565000Y-131065000D01*
G75*
G02*
X88415000Y-131215000I-150000J0D01*
G01*
G37*
G36*
G01*
X89685000Y-131215000D02*
X89385000Y-131215000D01*
G75*
G02*
X89235000Y-131065000I0J150000D01*
G01*
X89235000Y-129415000D01*
G75*
G02*
X89385000Y-129265000I150000J0D01*
G01*
X89685000Y-129265000D01*
G75*
G02*
X89835000Y-129415000I0J-150000D01*
G01*
X89835000Y-131065000D01*
G75*
G02*
X89685000Y-131215000I-150000J0D01*
G01*
G37*
G36*
G01*
X90955000Y-131215000D02*
X90655000Y-131215000D01*
G75*
G02*
X90505000Y-131065000I0J150000D01*
G01*
X90505000Y-129415000D01*
G75*
G02*
X90655000Y-129265000I150000J0D01*
G01*
X90955000Y-129265000D01*
G75*
G02*
X91105000Y-129415000I0J-150000D01*
G01*
X91105000Y-131065000D01*
G75*
G02*
X90955000Y-131215000I-150000J0D01*
G01*
G37*
G36*
G01*
X92225000Y-131215000D02*
X91925000Y-131215000D01*
G75*
G02*
X91775000Y-131065000I0J150000D01*
G01*
X91775000Y-129415000D01*
G75*
G02*
X91925000Y-129265000I150000J0D01*
G01*
X92225000Y-129265000D01*
G75*
G02*
X92375000Y-129415000I0J-150000D01*
G01*
X92375000Y-131065000D01*
G75*
G02*
X92225000Y-131215000I-150000J0D01*
G01*
G37*
G36*
G01*
X93495000Y-131215000D02*
X93195000Y-131215000D01*
G75*
G02*
X93045000Y-131065000I0J150000D01*
G01*
X93045000Y-129415000D01*
G75*
G02*
X93195000Y-129265000I150000J0D01*
G01*
X93495000Y-129265000D01*
G75*
G02*
X93645000Y-129415000I0J-150000D01*
G01*
X93645000Y-131065000D01*
G75*
G02*
X93495000Y-131215000I-150000J0D01*
G01*
G37*
G36*
G01*
X94765000Y-131215000D02*
X94465000Y-131215000D01*
G75*
G02*
X94315000Y-131065000I0J150000D01*
G01*
X94315000Y-129415000D01*
G75*
G02*
X94465000Y-129265000I150000J0D01*
G01*
X94765000Y-129265000D01*
G75*
G02*
X94915000Y-129415000I0J-150000D01*
G01*
X94915000Y-131065000D01*
G75*
G02*
X94765000Y-131215000I-150000J0D01*
G01*
G37*
G36*
G01*
X96035000Y-131215000D02*
X95735000Y-131215000D01*
G75*
G02*
X95585000Y-131065000I0J150000D01*
G01*
X95585000Y-129415000D01*
G75*
G02*
X95735000Y-129265000I150000J0D01*
G01*
X96035000Y-129265000D01*
G75*
G02*
X96185000Y-129415000I0J-150000D01*
G01*
X96185000Y-131065000D01*
G75*
G02*
X96035000Y-131215000I-150000J0D01*
G01*
G37*
G36*
G01*
X96035000Y-136165000D02*
X95735000Y-136165000D01*
G75*
G02*
X95585000Y-136015000I0J150000D01*
G01*
X95585000Y-134365000D01*
G75*
G02*
X95735000Y-134215000I150000J0D01*
G01*
X96035000Y-134215000D01*
G75*
G02*
X96185000Y-134365000I0J-150000D01*
G01*
X96185000Y-136015000D01*
G75*
G02*
X96035000Y-136165000I-150000J0D01*
G01*
G37*
G36*
G01*
X94765000Y-136165000D02*
X94465000Y-136165000D01*
G75*
G02*
X94315000Y-136015000I0J150000D01*
G01*
X94315000Y-134365000D01*
G75*
G02*
X94465000Y-134215000I150000J0D01*
G01*
X94765000Y-134215000D01*
G75*
G02*
X94915000Y-134365000I0J-150000D01*
G01*
X94915000Y-136015000D01*
G75*
G02*
X94765000Y-136165000I-150000J0D01*
G01*
G37*
G36*
G01*
X93495000Y-136165000D02*
X93195000Y-136165000D01*
G75*
G02*
X93045000Y-136015000I0J150000D01*
G01*
X93045000Y-134365000D01*
G75*
G02*
X93195000Y-134215000I150000J0D01*
G01*
X93495000Y-134215000D01*
G75*
G02*
X93645000Y-134365000I0J-150000D01*
G01*
X93645000Y-136015000D01*
G75*
G02*
X93495000Y-136165000I-150000J0D01*
G01*
G37*
G36*
G01*
X92225000Y-136165000D02*
X91925000Y-136165000D01*
G75*
G02*
X91775000Y-136015000I0J150000D01*
G01*
X91775000Y-134365000D01*
G75*
G02*
X91925000Y-134215000I150000J0D01*
G01*
X92225000Y-134215000D01*
G75*
G02*
X92375000Y-134365000I0J-150000D01*
G01*
X92375000Y-136015000D01*
G75*
G02*
X92225000Y-136165000I-150000J0D01*
G01*
G37*
G36*
G01*
X90955000Y-136165000D02*
X90655000Y-136165000D01*
G75*
G02*
X90505000Y-136015000I0J150000D01*
G01*
X90505000Y-134365000D01*
G75*
G02*
X90655000Y-134215000I150000J0D01*
G01*
X90955000Y-134215000D01*
G75*
G02*
X91105000Y-134365000I0J-150000D01*
G01*
X91105000Y-136015000D01*
G75*
G02*
X90955000Y-136165000I-150000J0D01*
G01*
G37*
G36*
G01*
X89685000Y-136165000D02*
X89385000Y-136165000D01*
G75*
G02*
X89235000Y-136015000I0J150000D01*
G01*
X89235000Y-134365000D01*
G75*
G02*
X89385000Y-134215000I150000J0D01*
G01*
X89685000Y-134215000D01*
G75*
G02*
X89835000Y-134365000I0J-150000D01*
G01*
X89835000Y-136015000D01*
G75*
G02*
X89685000Y-136165000I-150000J0D01*
G01*
G37*
G36*
G01*
X88415000Y-136165000D02*
X88115000Y-136165000D01*
G75*
G02*
X87965000Y-136015000I0J150000D01*
G01*
X87965000Y-134365000D01*
G75*
G02*
X88115000Y-134215000I150000J0D01*
G01*
X88415000Y-134215000D01*
G75*
G02*
X88565000Y-134365000I0J-150000D01*
G01*
X88565000Y-136015000D01*
G75*
G02*
X88415000Y-136165000I-150000J0D01*
G01*
G37*
G36*
G01*
X87145000Y-136165000D02*
X86845000Y-136165000D01*
G75*
G02*
X86695000Y-136015000I0J150000D01*
G01*
X86695000Y-134365000D01*
G75*
G02*
X86845000Y-134215000I150000J0D01*
G01*
X87145000Y-134215000D01*
G75*
G02*
X87295000Y-134365000I0J-150000D01*
G01*
X87295000Y-136015000D01*
G75*
G02*
X87145000Y-136165000I-150000J0D01*
G01*
G37*
%TD*%
%TO.C,U10*%
G36*
G01*
X71905000Y-131215000D02*
X71605000Y-131215000D01*
G75*
G02*
X71455000Y-131065000I0J150000D01*
G01*
X71455000Y-129415000D01*
G75*
G02*
X71605000Y-129265000I150000J0D01*
G01*
X71905000Y-129265000D01*
G75*
G02*
X72055000Y-129415000I0J-150000D01*
G01*
X72055000Y-131065000D01*
G75*
G02*
X71905000Y-131215000I-150000J0D01*
G01*
G37*
G36*
G01*
X73175000Y-131215000D02*
X72875000Y-131215000D01*
G75*
G02*
X72725000Y-131065000I0J150000D01*
G01*
X72725000Y-129415000D01*
G75*
G02*
X72875000Y-129265000I150000J0D01*
G01*
X73175000Y-129265000D01*
G75*
G02*
X73325000Y-129415000I0J-150000D01*
G01*
X73325000Y-131065000D01*
G75*
G02*
X73175000Y-131215000I-150000J0D01*
G01*
G37*
G36*
G01*
X74445000Y-131215000D02*
X74145000Y-131215000D01*
G75*
G02*
X73995000Y-131065000I0J150000D01*
G01*
X73995000Y-129415000D01*
G75*
G02*
X74145000Y-129265000I150000J0D01*
G01*
X74445000Y-129265000D01*
G75*
G02*
X74595000Y-129415000I0J-150000D01*
G01*
X74595000Y-131065000D01*
G75*
G02*
X74445000Y-131215000I-150000J0D01*
G01*
G37*
G36*
G01*
X75715000Y-131215000D02*
X75415000Y-131215000D01*
G75*
G02*
X75265000Y-131065000I0J150000D01*
G01*
X75265000Y-129415000D01*
G75*
G02*
X75415000Y-129265000I150000J0D01*
G01*
X75715000Y-129265000D01*
G75*
G02*
X75865000Y-129415000I0J-150000D01*
G01*
X75865000Y-131065000D01*
G75*
G02*
X75715000Y-131215000I-150000J0D01*
G01*
G37*
G36*
G01*
X76985000Y-131215000D02*
X76685000Y-131215000D01*
G75*
G02*
X76535000Y-131065000I0J150000D01*
G01*
X76535000Y-129415000D01*
G75*
G02*
X76685000Y-129265000I150000J0D01*
G01*
X76985000Y-129265000D01*
G75*
G02*
X77135000Y-129415000I0J-150000D01*
G01*
X77135000Y-131065000D01*
G75*
G02*
X76985000Y-131215000I-150000J0D01*
G01*
G37*
G36*
G01*
X78255000Y-131215000D02*
X77955000Y-131215000D01*
G75*
G02*
X77805000Y-131065000I0J150000D01*
G01*
X77805000Y-129415000D01*
G75*
G02*
X77955000Y-129265000I150000J0D01*
G01*
X78255000Y-129265000D01*
G75*
G02*
X78405000Y-129415000I0J-150000D01*
G01*
X78405000Y-131065000D01*
G75*
G02*
X78255000Y-131215000I-150000J0D01*
G01*
G37*
G36*
G01*
X79525000Y-131215000D02*
X79225000Y-131215000D01*
G75*
G02*
X79075000Y-131065000I0J150000D01*
G01*
X79075000Y-129415000D01*
G75*
G02*
X79225000Y-129265000I150000J0D01*
G01*
X79525000Y-129265000D01*
G75*
G02*
X79675000Y-129415000I0J-150000D01*
G01*
X79675000Y-131065000D01*
G75*
G02*
X79525000Y-131215000I-150000J0D01*
G01*
G37*
G36*
G01*
X80795000Y-131215000D02*
X80495000Y-131215000D01*
G75*
G02*
X80345000Y-131065000I0J150000D01*
G01*
X80345000Y-129415000D01*
G75*
G02*
X80495000Y-129265000I150000J0D01*
G01*
X80795000Y-129265000D01*
G75*
G02*
X80945000Y-129415000I0J-150000D01*
G01*
X80945000Y-131065000D01*
G75*
G02*
X80795000Y-131215000I-150000J0D01*
G01*
G37*
G36*
G01*
X80795000Y-136165000D02*
X80495000Y-136165000D01*
G75*
G02*
X80345000Y-136015000I0J150000D01*
G01*
X80345000Y-134365000D01*
G75*
G02*
X80495000Y-134215000I150000J0D01*
G01*
X80795000Y-134215000D01*
G75*
G02*
X80945000Y-134365000I0J-150000D01*
G01*
X80945000Y-136015000D01*
G75*
G02*
X80795000Y-136165000I-150000J0D01*
G01*
G37*
G36*
G01*
X79525000Y-136165000D02*
X79225000Y-136165000D01*
G75*
G02*
X79075000Y-136015000I0J150000D01*
G01*
X79075000Y-134365000D01*
G75*
G02*
X79225000Y-134215000I150000J0D01*
G01*
X79525000Y-134215000D01*
G75*
G02*
X79675000Y-134365000I0J-150000D01*
G01*
X79675000Y-136015000D01*
G75*
G02*
X79525000Y-136165000I-150000J0D01*
G01*
G37*
G36*
G01*
X78255000Y-136165000D02*
X77955000Y-136165000D01*
G75*
G02*
X77805000Y-136015000I0J150000D01*
G01*
X77805000Y-134365000D01*
G75*
G02*
X77955000Y-134215000I150000J0D01*
G01*
X78255000Y-134215000D01*
G75*
G02*
X78405000Y-134365000I0J-150000D01*
G01*
X78405000Y-136015000D01*
G75*
G02*
X78255000Y-136165000I-150000J0D01*
G01*
G37*
G36*
G01*
X76985000Y-136165000D02*
X76685000Y-136165000D01*
G75*
G02*
X76535000Y-136015000I0J150000D01*
G01*
X76535000Y-134365000D01*
G75*
G02*
X76685000Y-134215000I150000J0D01*
G01*
X76985000Y-134215000D01*
G75*
G02*
X77135000Y-134365000I0J-150000D01*
G01*
X77135000Y-136015000D01*
G75*
G02*
X76985000Y-136165000I-150000J0D01*
G01*
G37*
G36*
G01*
X75715000Y-136165000D02*
X75415000Y-136165000D01*
G75*
G02*
X75265000Y-136015000I0J150000D01*
G01*
X75265000Y-134365000D01*
G75*
G02*
X75415000Y-134215000I150000J0D01*
G01*
X75715000Y-134215000D01*
G75*
G02*
X75865000Y-134365000I0J-150000D01*
G01*
X75865000Y-136015000D01*
G75*
G02*
X75715000Y-136165000I-150000J0D01*
G01*
G37*
G36*
G01*
X74445000Y-136165000D02*
X74145000Y-136165000D01*
G75*
G02*
X73995000Y-136015000I0J150000D01*
G01*
X73995000Y-134365000D01*
G75*
G02*
X74145000Y-134215000I150000J0D01*
G01*
X74445000Y-134215000D01*
G75*
G02*
X74595000Y-134365000I0J-150000D01*
G01*
X74595000Y-136015000D01*
G75*
G02*
X74445000Y-136165000I-150000J0D01*
G01*
G37*
G36*
G01*
X73175000Y-136165000D02*
X72875000Y-136165000D01*
G75*
G02*
X72725000Y-136015000I0J150000D01*
G01*
X72725000Y-134365000D01*
G75*
G02*
X72875000Y-134215000I150000J0D01*
G01*
X73175000Y-134215000D01*
G75*
G02*
X73325000Y-134365000I0J-150000D01*
G01*
X73325000Y-136015000D01*
G75*
G02*
X73175000Y-136165000I-150000J0D01*
G01*
G37*
G36*
G01*
X71905000Y-136165000D02*
X71605000Y-136165000D01*
G75*
G02*
X71455000Y-136015000I0J150000D01*
G01*
X71455000Y-134365000D01*
G75*
G02*
X71605000Y-134215000I150000J0D01*
G01*
X71905000Y-134215000D01*
G75*
G02*
X72055000Y-134365000I0J-150000D01*
G01*
X72055000Y-136015000D01*
G75*
G02*
X71905000Y-136165000I-150000J0D01*
G01*
G37*
%TD*%
%TO.C,U9*%
G36*
G01*
X87145000Y-120420000D02*
X86845000Y-120420000D01*
G75*
G02*
X86695000Y-120270000I0J150000D01*
G01*
X86695000Y-118620000D01*
G75*
G02*
X86845000Y-118470000I150000J0D01*
G01*
X87145000Y-118470000D01*
G75*
G02*
X87295000Y-118620000I0J-150000D01*
G01*
X87295000Y-120270000D01*
G75*
G02*
X87145000Y-120420000I-150000J0D01*
G01*
G37*
G36*
G01*
X88415000Y-120420000D02*
X88115000Y-120420000D01*
G75*
G02*
X87965000Y-120270000I0J150000D01*
G01*
X87965000Y-118620000D01*
G75*
G02*
X88115000Y-118470000I150000J0D01*
G01*
X88415000Y-118470000D01*
G75*
G02*
X88565000Y-118620000I0J-150000D01*
G01*
X88565000Y-120270000D01*
G75*
G02*
X88415000Y-120420000I-150000J0D01*
G01*
G37*
G36*
G01*
X89685000Y-120420000D02*
X89385000Y-120420000D01*
G75*
G02*
X89235000Y-120270000I0J150000D01*
G01*
X89235000Y-118620000D01*
G75*
G02*
X89385000Y-118470000I150000J0D01*
G01*
X89685000Y-118470000D01*
G75*
G02*
X89835000Y-118620000I0J-150000D01*
G01*
X89835000Y-120270000D01*
G75*
G02*
X89685000Y-120420000I-150000J0D01*
G01*
G37*
G36*
G01*
X90955000Y-120420000D02*
X90655000Y-120420000D01*
G75*
G02*
X90505000Y-120270000I0J150000D01*
G01*
X90505000Y-118620000D01*
G75*
G02*
X90655000Y-118470000I150000J0D01*
G01*
X90955000Y-118470000D01*
G75*
G02*
X91105000Y-118620000I0J-150000D01*
G01*
X91105000Y-120270000D01*
G75*
G02*
X90955000Y-120420000I-150000J0D01*
G01*
G37*
G36*
G01*
X92225000Y-120420000D02*
X91925000Y-120420000D01*
G75*
G02*
X91775000Y-120270000I0J150000D01*
G01*
X91775000Y-118620000D01*
G75*
G02*
X91925000Y-118470000I150000J0D01*
G01*
X92225000Y-118470000D01*
G75*
G02*
X92375000Y-118620000I0J-150000D01*
G01*
X92375000Y-120270000D01*
G75*
G02*
X92225000Y-120420000I-150000J0D01*
G01*
G37*
G36*
G01*
X93495000Y-120420000D02*
X93195000Y-120420000D01*
G75*
G02*
X93045000Y-120270000I0J150000D01*
G01*
X93045000Y-118620000D01*
G75*
G02*
X93195000Y-118470000I150000J0D01*
G01*
X93495000Y-118470000D01*
G75*
G02*
X93645000Y-118620000I0J-150000D01*
G01*
X93645000Y-120270000D01*
G75*
G02*
X93495000Y-120420000I-150000J0D01*
G01*
G37*
G36*
G01*
X94765000Y-120420000D02*
X94465000Y-120420000D01*
G75*
G02*
X94315000Y-120270000I0J150000D01*
G01*
X94315000Y-118620000D01*
G75*
G02*
X94465000Y-118470000I150000J0D01*
G01*
X94765000Y-118470000D01*
G75*
G02*
X94915000Y-118620000I0J-150000D01*
G01*
X94915000Y-120270000D01*
G75*
G02*
X94765000Y-120420000I-150000J0D01*
G01*
G37*
G36*
G01*
X96035000Y-120420000D02*
X95735000Y-120420000D01*
G75*
G02*
X95585000Y-120270000I0J150000D01*
G01*
X95585000Y-118620000D01*
G75*
G02*
X95735000Y-118470000I150000J0D01*
G01*
X96035000Y-118470000D01*
G75*
G02*
X96185000Y-118620000I0J-150000D01*
G01*
X96185000Y-120270000D01*
G75*
G02*
X96035000Y-120420000I-150000J0D01*
G01*
G37*
G36*
G01*
X96035000Y-125370000D02*
X95735000Y-125370000D01*
G75*
G02*
X95585000Y-125220000I0J150000D01*
G01*
X95585000Y-123570000D01*
G75*
G02*
X95735000Y-123420000I150000J0D01*
G01*
X96035000Y-123420000D01*
G75*
G02*
X96185000Y-123570000I0J-150000D01*
G01*
X96185000Y-125220000D01*
G75*
G02*
X96035000Y-125370000I-150000J0D01*
G01*
G37*
G36*
G01*
X94765000Y-125370000D02*
X94465000Y-125370000D01*
G75*
G02*
X94315000Y-125220000I0J150000D01*
G01*
X94315000Y-123570000D01*
G75*
G02*
X94465000Y-123420000I150000J0D01*
G01*
X94765000Y-123420000D01*
G75*
G02*
X94915000Y-123570000I0J-150000D01*
G01*
X94915000Y-125220000D01*
G75*
G02*
X94765000Y-125370000I-150000J0D01*
G01*
G37*
G36*
G01*
X93495000Y-125370000D02*
X93195000Y-125370000D01*
G75*
G02*
X93045000Y-125220000I0J150000D01*
G01*
X93045000Y-123570000D01*
G75*
G02*
X93195000Y-123420000I150000J0D01*
G01*
X93495000Y-123420000D01*
G75*
G02*
X93645000Y-123570000I0J-150000D01*
G01*
X93645000Y-125220000D01*
G75*
G02*
X93495000Y-125370000I-150000J0D01*
G01*
G37*
G36*
G01*
X92225000Y-125370000D02*
X91925000Y-125370000D01*
G75*
G02*
X91775000Y-125220000I0J150000D01*
G01*
X91775000Y-123570000D01*
G75*
G02*
X91925000Y-123420000I150000J0D01*
G01*
X92225000Y-123420000D01*
G75*
G02*
X92375000Y-123570000I0J-150000D01*
G01*
X92375000Y-125220000D01*
G75*
G02*
X92225000Y-125370000I-150000J0D01*
G01*
G37*
G36*
G01*
X90955000Y-125370000D02*
X90655000Y-125370000D01*
G75*
G02*
X90505000Y-125220000I0J150000D01*
G01*
X90505000Y-123570000D01*
G75*
G02*
X90655000Y-123420000I150000J0D01*
G01*
X90955000Y-123420000D01*
G75*
G02*
X91105000Y-123570000I0J-150000D01*
G01*
X91105000Y-125220000D01*
G75*
G02*
X90955000Y-125370000I-150000J0D01*
G01*
G37*
G36*
G01*
X89685000Y-125370000D02*
X89385000Y-125370000D01*
G75*
G02*
X89235000Y-125220000I0J150000D01*
G01*
X89235000Y-123570000D01*
G75*
G02*
X89385000Y-123420000I150000J0D01*
G01*
X89685000Y-123420000D01*
G75*
G02*
X89835000Y-123570000I0J-150000D01*
G01*
X89835000Y-125220000D01*
G75*
G02*
X89685000Y-125370000I-150000J0D01*
G01*
G37*
G36*
G01*
X88415000Y-125370000D02*
X88115000Y-125370000D01*
G75*
G02*
X87965000Y-125220000I0J150000D01*
G01*
X87965000Y-123570000D01*
G75*
G02*
X88115000Y-123420000I150000J0D01*
G01*
X88415000Y-123420000D01*
G75*
G02*
X88565000Y-123570000I0J-150000D01*
G01*
X88565000Y-125220000D01*
G75*
G02*
X88415000Y-125370000I-150000J0D01*
G01*
G37*
G36*
G01*
X87145000Y-125370000D02*
X86845000Y-125370000D01*
G75*
G02*
X86695000Y-125220000I0J150000D01*
G01*
X86695000Y-123570000D01*
G75*
G02*
X86845000Y-123420000I150000J0D01*
G01*
X87145000Y-123420000D01*
G75*
G02*
X87295000Y-123570000I0J-150000D01*
G01*
X87295000Y-125220000D01*
G75*
G02*
X87145000Y-125370000I-150000J0D01*
G01*
G37*
%TD*%
%TO.C,U8*%
G36*
G01*
X116355000Y-131215000D02*
X116055000Y-131215000D01*
G75*
G02*
X115905000Y-131065000I0J150000D01*
G01*
X115905000Y-129415000D01*
G75*
G02*
X116055000Y-129265000I150000J0D01*
G01*
X116355000Y-129265000D01*
G75*
G02*
X116505000Y-129415000I0J-150000D01*
G01*
X116505000Y-131065000D01*
G75*
G02*
X116355000Y-131215000I-150000J0D01*
G01*
G37*
G36*
G01*
X117625000Y-131215000D02*
X117325000Y-131215000D01*
G75*
G02*
X117175000Y-131065000I0J150000D01*
G01*
X117175000Y-129415000D01*
G75*
G02*
X117325000Y-129265000I150000J0D01*
G01*
X117625000Y-129265000D01*
G75*
G02*
X117775000Y-129415000I0J-150000D01*
G01*
X117775000Y-131065000D01*
G75*
G02*
X117625000Y-131215000I-150000J0D01*
G01*
G37*
G36*
G01*
X118895000Y-131215000D02*
X118595000Y-131215000D01*
G75*
G02*
X118445000Y-131065000I0J150000D01*
G01*
X118445000Y-129415000D01*
G75*
G02*
X118595000Y-129265000I150000J0D01*
G01*
X118895000Y-129265000D01*
G75*
G02*
X119045000Y-129415000I0J-150000D01*
G01*
X119045000Y-131065000D01*
G75*
G02*
X118895000Y-131215000I-150000J0D01*
G01*
G37*
G36*
G01*
X120165000Y-131215000D02*
X119865000Y-131215000D01*
G75*
G02*
X119715000Y-131065000I0J150000D01*
G01*
X119715000Y-129415000D01*
G75*
G02*
X119865000Y-129265000I150000J0D01*
G01*
X120165000Y-129265000D01*
G75*
G02*
X120315000Y-129415000I0J-150000D01*
G01*
X120315000Y-131065000D01*
G75*
G02*
X120165000Y-131215000I-150000J0D01*
G01*
G37*
G36*
G01*
X121435000Y-131215000D02*
X121135000Y-131215000D01*
G75*
G02*
X120985000Y-131065000I0J150000D01*
G01*
X120985000Y-129415000D01*
G75*
G02*
X121135000Y-129265000I150000J0D01*
G01*
X121435000Y-129265000D01*
G75*
G02*
X121585000Y-129415000I0J-150000D01*
G01*
X121585000Y-131065000D01*
G75*
G02*
X121435000Y-131215000I-150000J0D01*
G01*
G37*
G36*
G01*
X122705000Y-131215000D02*
X122405000Y-131215000D01*
G75*
G02*
X122255000Y-131065000I0J150000D01*
G01*
X122255000Y-129415000D01*
G75*
G02*
X122405000Y-129265000I150000J0D01*
G01*
X122705000Y-129265000D01*
G75*
G02*
X122855000Y-129415000I0J-150000D01*
G01*
X122855000Y-131065000D01*
G75*
G02*
X122705000Y-131215000I-150000J0D01*
G01*
G37*
G36*
G01*
X123975000Y-131215000D02*
X123675000Y-131215000D01*
G75*
G02*
X123525000Y-131065000I0J150000D01*
G01*
X123525000Y-129415000D01*
G75*
G02*
X123675000Y-129265000I150000J0D01*
G01*
X123975000Y-129265000D01*
G75*
G02*
X124125000Y-129415000I0J-150000D01*
G01*
X124125000Y-131065000D01*
G75*
G02*
X123975000Y-131215000I-150000J0D01*
G01*
G37*
G36*
G01*
X123975000Y-136165000D02*
X123675000Y-136165000D01*
G75*
G02*
X123525000Y-136015000I0J150000D01*
G01*
X123525000Y-134365000D01*
G75*
G02*
X123675000Y-134215000I150000J0D01*
G01*
X123975000Y-134215000D01*
G75*
G02*
X124125000Y-134365000I0J-150000D01*
G01*
X124125000Y-136015000D01*
G75*
G02*
X123975000Y-136165000I-150000J0D01*
G01*
G37*
G36*
G01*
X122705000Y-136165000D02*
X122405000Y-136165000D01*
G75*
G02*
X122255000Y-136015000I0J150000D01*
G01*
X122255000Y-134365000D01*
G75*
G02*
X122405000Y-134215000I150000J0D01*
G01*
X122705000Y-134215000D01*
G75*
G02*
X122855000Y-134365000I0J-150000D01*
G01*
X122855000Y-136015000D01*
G75*
G02*
X122705000Y-136165000I-150000J0D01*
G01*
G37*
G36*
G01*
X121435000Y-136165000D02*
X121135000Y-136165000D01*
G75*
G02*
X120985000Y-136015000I0J150000D01*
G01*
X120985000Y-134365000D01*
G75*
G02*
X121135000Y-134215000I150000J0D01*
G01*
X121435000Y-134215000D01*
G75*
G02*
X121585000Y-134365000I0J-150000D01*
G01*
X121585000Y-136015000D01*
G75*
G02*
X121435000Y-136165000I-150000J0D01*
G01*
G37*
G36*
G01*
X120165000Y-136165000D02*
X119865000Y-136165000D01*
G75*
G02*
X119715000Y-136015000I0J150000D01*
G01*
X119715000Y-134365000D01*
G75*
G02*
X119865000Y-134215000I150000J0D01*
G01*
X120165000Y-134215000D01*
G75*
G02*
X120315000Y-134365000I0J-150000D01*
G01*
X120315000Y-136015000D01*
G75*
G02*
X120165000Y-136165000I-150000J0D01*
G01*
G37*
G36*
G01*
X118895000Y-136165000D02*
X118595000Y-136165000D01*
G75*
G02*
X118445000Y-136015000I0J150000D01*
G01*
X118445000Y-134365000D01*
G75*
G02*
X118595000Y-134215000I150000J0D01*
G01*
X118895000Y-134215000D01*
G75*
G02*
X119045000Y-134365000I0J-150000D01*
G01*
X119045000Y-136015000D01*
G75*
G02*
X118895000Y-136165000I-150000J0D01*
G01*
G37*
G36*
G01*
X117625000Y-136165000D02*
X117325000Y-136165000D01*
G75*
G02*
X117175000Y-136015000I0J150000D01*
G01*
X117175000Y-134365000D01*
G75*
G02*
X117325000Y-134215000I150000J0D01*
G01*
X117625000Y-134215000D01*
G75*
G02*
X117775000Y-134365000I0J-150000D01*
G01*
X117775000Y-136015000D01*
G75*
G02*
X117625000Y-136165000I-150000J0D01*
G01*
G37*
G36*
G01*
X116355000Y-136165000D02*
X116055000Y-136165000D01*
G75*
G02*
X115905000Y-136015000I0J150000D01*
G01*
X115905000Y-134365000D01*
G75*
G02*
X116055000Y-134215000I150000J0D01*
G01*
X116355000Y-134215000D01*
G75*
G02*
X116505000Y-134365000I0J-150000D01*
G01*
X116505000Y-136015000D01*
G75*
G02*
X116355000Y-136165000I-150000J0D01*
G01*
G37*
%TD*%
%TO.C,U7*%
G36*
G01*
X102385000Y-131215000D02*
X102085000Y-131215000D01*
G75*
G02*
X101935000Y-131065000I0J150000D01*
G01*
X101935000Y-129415000D01*
G75*
G02*
X102085000Y-129265000I150000J0D01*
G01*
X102385000Y-129265000D01*
G75*
G02*
X102535000Y-129415000I0J-150000D01*
G01*
X102535000Y-131065000D01*
G75*
G02*
X102385000Y-131215000I-150000J0D01*
G01*
G37*
G36*
G01*
X103655000Y-131215000D02*
X103355000Y-131215000D01*
G75*
G02*
X103205000Y-131065000I0J150000D01*
G01*
X103205000Y-129415000D01*
G75*
G02*
X103355000Y-129265000I150000J0D01*
G01*
X103655000Y-129265000D01*
G75*
G02*
X103805000Y-129415000I0J-150000D01*
G01*
X103805000Y-131065000D01*
G75*
G02*
X103655000Y-131215000I-150000J0D01*
G01*
G37*
G36*
G01*
X104925000Y-131215000D02*
X104625000Y-131215000D01*
G75*
G02*
X104475000Y-131065000I0J150000D01*
G01*
X104475000Y-129415000D01*
G75*
G02*
X104625000Y-129265000I150000J0D01*
G01*
X104925000Y-129265000D01*
G75*
G02*
X105075000Y-129415000I0J-150000D01*
G01*
X105075000Y-131065000D01*
G75*
G02*
X104925000Y-131215000I-150000J0D01*
G01*
G37*
G36*
G01*
X106195000Y-131215000D02*
X105895000Y-131215000D01*
G75*
G02*
X105745000Y-131065000I0J150000D01*
G01*
X105745000Y-129415000D01*
G75*
G02*
X105895000Y-129265000I150000J0D01*
G01*
X106195000Y-129265000D01*
G75*
G02*
X106345000Y-129415000I0J-150000D01*
G01*
X106345000Y-131065000D01*
G75*
G02*
X106195000Y-131215000I-150000J0D01*
G01*
G37*
G36*
G01*
X107465000Y-131215000D02*
X107165000Y-131215000D01*
G75*
G02*
X107015000Y-131065000I0J150000D01*
G01*
X107015000Y-129415000D01*
G75*
G02*
X107165000Y-129265000I150000J0D01*
G01*
X107465000Y-129265000D01*
G75*
G02*
X107615000Y-129415000I0J-150000D01*
G01*
X107615000Y-131065000D01*
G75*
G02*
X107465000Y-131215000I-150000J0D01*
G01*
G37*
G36*
G01*
X108735000Y-131215000D02*
X108435000Y-131215000D01*
G75*
G02*
X108285000Y-131065000I0J150000D01*
G01*
X108285000Y-129415000D01*
G75*
G02*
X108435000Y-129265000I150000J0D01*
G01*
X108735000Y-129265000D01*
G75*
G02*
X108885000Y-129415000I0J-150000D01*
G01*
X108885000Y-131065000D01*
G75*
G02*
X108735000Y-131215000I-150000J0D01*
G01*
G37*
G36*
G01*
X110005000Y-131215000D02*
X109705000Y-131215000D01*
G75*
G02*
X109555000Y-131065000I0J150000D01*
G01*
X109555000Y-129415000D01*
G75*
G02*
X109705000Y-129265000I150000J0D01*
G01*
X110005000Y-129265000D01*
G75*
G02*
X110155000Y-129415000I0J-150000D01*
G01*
X110155000Y-131065000D01*
G75*
G02*
X110005000Y-131215000I-150000J0D01*
G01*
G37*
G36*
G01*
X110005000Y-136165000D02*
X109705000Y-136165000D01*
G75*
G02*
X109555000Y-136015000I0J150000D01*
G01*
X109555000Y-134365000D01*
G75*
G02*
X109705000Y-134215000I150000J0D01*
G01*
X110005000Y-134215000D01*
G75*
G02*
X110155000Y-134365000I0J-150000D01*
G01*
X110155000Y-136015000D01*
G75*
G02*
X110005000Y-136165000I-150000J0D01*
G01*
G37*
G36*
G01*
X108735000Y-136165000D02*
X108435000Y-136165000D01*
G75*
G02*
X108285000Y-136015000I0J150000D01*
G01*
X108285000Y-134365000D01*
G75*
G02*
X108435000Y-134215000I150000J0D01*
G01*
X108735000Y-134215000D01*
G75*
G02*
X108885000Y-134365000I0J-150000D01*
G01*
X108885000Y-136015000D01*
G75*
G02*
X108735000Y-136165000I-150000J0D01*
G01*
G37*
G36*
G01*
X107465000Y-136165000D02*
X107165000Y-136165000D01*
G75*
G02*
X107015000Y-136015000I0J150000D01*
G01*
X107015000Y-134365000D01*
G75*
G02*
X107165000Y-134215000I150000J0D01*
G01*
X107465000Y-134215000D01*
G75*
G02*
X107615000Y-134365000I0J-150000D01*
G01*
X107615000Y-136015000D01*
G75*
G02*
X107465000Y-136165000I-150000J0D01*
G01*
G37*
G36*
G01*
X106195000Y-136165000D02*
X105895000Y-136165000D01*
G75*
G02*
X105745000Y-136015000I0J150000D01*
G01*
X105745000Y-134365000D01*
G75*
G02*
X105895000Y-134215000I150000J0D01*
G01*
X106195000Y-134215000D01*
G75*
G02*
X106345000Y-134365000I0J-150000D01*
G01*
X106345000Y-136015000D01*
G75*
G02*
X106195000Y-136165000I-150000J0D01*
G01*
G37*
G36*
G01*
X104925000Y-136165000D02*
X104625000Y-136165000D01*
G75*
G02*
X104475000Y-136015000I0J150000D01*
G01*
X104475000Y-134365000D01*
G75*
G02*
X104625000Y-134215000I150000J0D01*
G01*
X104925000Y-134215000D01*
G75*
G02*
X105075000Y-134365000I0J-150000D01*
G01*
X105075000Y-136015000D01*
G75*
G02*
X104925000Y-136165000I-150000J0D01*
G01*
G37*
G36*
G01*
X103655000Y-136165000D02*
X103355000Y-136165000D01*
G75*
G02*
X103205000Y-136015000I0J150000D01*
G01*
X103205000Y-134365000D01*
G75*
G02*
X103355000Y-134215000I150000J0D01*
G01*
X103655000Y-134215000D01*
G75*
G02*
X103805000Y-134365000I0J-150000D01*
G01*
X103805000Y-136015000D01*
G75*
G02*
X103655000Y-136165000I-150000J0D01*
G01*
G37*
G36*
G01*
X102385000Y-136165000D02*
X102085000Y-136165000D01*
G75*
G02*
X101935000Y-136015000I0J150000D01*
G01*
X101935000Y-134365000D01*
G75*
G02*
X102085000Y-134215000I150000J0D01*
G01*
X102385000Y-134215000D01*
G75*
G02*
X102535000Y-134365000I0J-150000D01*
G01*
X102535000Y-136015000D01*
G75*
G02*
X102385000Y-136165000I-150000J0D01*
G01*
G37*
%TD*%
%TO.C,U6*%
G36*
G01*
X131595000Y-109625000D02*
X131295000Y-109625000D01*
G75*
G02*
X131145000Y-109475000I0J150000D01*
G01*
X131145000Y-107825000D01*
G75*
G02*
X131295000Y-107675000I150000J0D01*
G01*
X131595000Y-107675000D01*
G75*
G02*
X131745000Y-107825000I0J-150000D01*
G01*
X131745000Y-109475000D01*
G75*
G02*
X131595000Y-109625000I-150000J0D01*
G01*
G37*
G36*
G01*
X132865000Y-109625000D02*
X132565000Y-109625000D01*
G75*
G02*
X132415000Y-109475000I0J150000D01*
G01*
X132415000Y-107825000D01*
G75*
G02*
X132565000Y-107675000I150000J0D01*
G01*
X132865000Y-107675000D01*
G75*
G02*
X133015000Y-107825000I0J-150000D01*
G01*
X133015000Y-109475000D01*
G75*
G02*
X132865000Y-109625000I-150000J0D01*
G01*
G37*
G36*
G01*
X134135000Y-109625000D02*
X133835000Y-109625000D01*
G75*
G02*
X133685000Y-109475000I0J150000D01*
G01*
X133685000Y-107825000D01*
G75*
G02*
X133835000Y-107675000I150000J0D01*
G01*
X134135000Y-107675000D01*
G75*
G02*
X134285000Y-107825000I0J-150000D01*
G01*
X134285000Y-109475000D01*
G75*
G02*
X134135000Y-109625000I-150000J0D01*
G01*
G37*
G36*
G01*
X135405000Y-109625000D02*
X135105000Y-109625000D01*
G75*
G02*
X134955000Y-109475000I0J150000D01*
G01*
X134955000Y-107825000D01*
G75*
G02*
X135105000Y-107675000I150000J0D01*
G01*
X135405000Y-107675000D01*
G75*
G02*
X135555000Y-107825000I0J-150000D01*
G01*
X135555000Y-109475000D01*
G75*
G02*
X135405000Y-109625000I-150000J0D01*
G01*
G37*
G36*
G01*
X136675000Y-109625000D02*
X136375000Y-109625000D01*
G75*
G02*
X136225000Y-109475000I0J150000D01*
G01*
X136225000Y-107825000D01*
G75*
G02*
X136375000Y-107675000I150000J0D01*
G01*
X136675000Y-107675000D01*
G75*
G02*
X136825000Y-107825000I0J-150000D01*
G01*
X136825000Y-109475000D01*
G75*
G02*
X136675000Y-109625000I-150000J0D01*
G01*
G37*
G36*
G01*
X137945000Y-109625000D02*
X137645000Y-109625000D01*
G75*
G02*
X137495000Y-109475000I0J150000D01*
G01*
X137495000Y-107825000D01*
G75*
G02*
X137645000Y-107675000I150000J0D01*
G01*
X137945000Y-107675000D01*
G75*
G02*
X138095000Y-107825000I0J-150000D01*
G01*
X138095000Y-109475000D01*
G75*
G02*
X137945000Y-109625000I-150000J0D01*
G01*
G37*
G36*
G01*
X139215000Y-109625000D02*
X138915000Y-109625000D01*
G75*
G02*
X138765000Y-109475000I0J150000D01*
G01*
X138765000Y-107825000D01*
G75*
G02*
X138915000Y-107675000I150000J0D01*
G01*
X139215000Y-107675000D01*
G75*
G02*
X139365000Y-107825000I0J-150000D01*
G01*
X139365000Y-109475000D01*
G75*
G02*
X139215000Y-109625000I-150000J0D01*
G01*
G37*
G36*
G01*
X139215000Y-114575000D02*
X138915000Y-114575000D01*
G75*
G02*
X138765000Y-114425000I0J150000D01*
G01*
X138765000Y-112775000D01*
G75*
G02*
X138915000Y-112625000I150000J0D01*
G01*
X139215000Y-112625000D01*
G75*
G02*
X139365000Y-112775000I0J-150000D01*
G01*
X139365000Y-114425000D01*
G75*
G02*
X139215000Y-114575000I-150000J0D01*
G01*
G37*
G36*
G01*
X137945000Y-114575000D02*
X137645000Y-114575000D01*
G75*
G02*
X137495000Y-114425000I0J150000D01*
G01*
X137495000Y-112775000D01*
G75*
G02*
X137645000Y-112625000I150000J0D01*
G01*
X137945000Y-112625000D01*
G75*
G02*
X138095000Y-112775000I0J-150000D01*
G01*
X138095000Y-114425000D01*
G75*
G02*
X137945000Y-114575000I-150000J0D01*
G01*
G37*
G36*
G01*
X136675000Y-114575000D02*
X136375000Y-114575000D01*
G75*
G02*
X136225000Y-114425000I0J150000D01*
G01*
X136225000Y-112775000D01*
G75*
G02*
X136375000Y-112625000I150000J0D01*
G01*
X136675000Y-112625000D01*
G75*
G02*
X136825000Y-112775000I0J-150000D01*
G01*
X136825000Y-114425000D01*
G75*
G02*
X136675000Y-114575000I-150000J0D01*
G01*
G37*
G36*
G01*
X135405000Y-114575000D02*
X135105000Y-114575000D01*
G75*
G02*
X134955000Y-114425000I0J150000D01*
G01*
X134955000Y-112775000D01*
G75*
G02*
X135105000Y-112625000I150000J0D01*
G01*
X135405000Y-112625000D01*
G75*
G02*
X135555000Y-112775000I0J-150000D01*
G01*
X135555000Y-114425000D01*
G75*
G02*
X135405000Y-114575000I-150000J0D01*
G01*
G37*
G36*
G01*
X134135000Y-114575000D02*
X133835000Y-114575000D01*
G75*
G02*
X133685000Y-114425000I0J150000D01*
G01*
X133685000Y-112775000D01*
G75*
G02*
X133835000Y-112625000I150000J0D01*
G01*
X134135000Y-112625000D01*
G75*
G02*
X134285000Y-112775000I0J-150000D01*
G01*
X134285000Y-114425000D01*
G75*
G02*
X134135000Y-114575000I-150000J0D01*
G01*
G37*
G36*
G01*
X132865000Y-114575000D02*
X132565000Y-114575000D01*
G75*
G02*
X132415000Y-114425000I0J150000D01*
G01*
X132415000Y-112775000D01*
G75*
G02*
X132565000Y-112625000I150000J0D01*
G01*
X132865000Y-112625000D01*
G75*
G02*
X133015000Y-112775000I0J-150000D01*
G01*
X133015000Y-114425000D01*
G75*
G02*
X132865000Y-114575000I-150000J0D01*
G01*
G37*
G36*
G01*
X131595000Y-114575000D02*
X131295000Y-114575000D01*
G75*
G02*
X131145000Y-114425000I0J150000D01*
G01*
X131145000Y-112775000D01*
G75*
G02*
X131295000Y-112625000I150000J0D01*
G01*
X131595000Y-112625000D01*
G75*
G02*
X131745000Y-112775000I0J-150000D01*
G01*
X131745000Y-114425000D01*
G75*
G02*
X131595000Y-114575000I-150000J0D01*
G01*
G37*
%TD*%
%TO.C,U5*%
G36*
G01*
X102385000Y-120420000D02*
X102085000Y-120420000D01*
G75*
G02*
X101935000Y-120270000I0J150000D01*
G01*
X101935000Y-118620000D01*
G75*
G02*
X102085000Y-118470000I150000J0D01*
G01*
X102385000Y-118470000D01*
G75*
G02*
X102535000Y-118620000I0J-150000D01*
G01*
X102535000Y-120270000D01*
G75*
G02*
X102385000Y-120420000I-150000J0D01*
G01*
G37*
G36*
G01*
X103655000Y-120420000D02*
X103355000Y-120420000D01*
G75*
G02*
X103205000Y-120270000I0J150000D01*
G01*
X103205000Y-118620000D01*
G75*
G02*
X103355000Y-118470000I150000J0D01*
G01*
X103655000Y-118470000D01*
G75*
G02*
X103805000Y-118620000I0J-150000D01*
G01*
X103805000Y-120270000D01*
G75*
G02*
X103655000Y-120420000I-150000J0D01*
G01*
G37*
G36*
G01*
X104925000Y-120420000D02*
X104625000Y-120420000D01*
G75*
G02*
X104475000Y-120270000I0J150000D01*
G01*
X104475000Y-118620000D01*
G75*
G02*
X104625000Y-118470000I150000J0D01*
G01*
X104925000Y-118470000D01*
G75*
G02*
X105075000Y-118620000I0J-150000D01*
G01*
X105075000Y-120270000D01*
G75*
G02*
X104925000Y-120420000I-150000J0D01*
G01*
G37*
G36*
G01*
X106195000Y-120420000D02*
X105895000Y-120420000D01*
G75*
G02*
X105745000Y-120270000I0J150000D01*
G01*
X105745000Y-118620000D01*
G75*
G02*
X105895000Y-118470000I150000J0D01*
G01*
X106195000Y-118470000D01*
G75*
G02*
X106345000Y-118620000I0J-150000D01*
G01*
X106345000Y-120270000D01*
G75*
G02*
X106195000Y-120420000I-150000J0D01*
G01*
G37*
G36*
G01*
X107465000Y-120420000D02*
X107165000Y-120420000D01*
G75*
G02*
X107015000Y-120270000I0J150000D01*
G01*
X107015000Y-118620000D01*
G75*
G02*
X107165000Y-118470000I150000J0D01*
G01*
X107465000Y-118470000D01*
G75*
G02*
X107615000Y-118620000I0J-150000D01*
G01*
X107615000Y-120270000D01*
G75*
G02*
X107465000Y-120420000I-150000J0D01*
G01*
G37*
G36*
G01*
X108735000Y-120420000D02*
X108435000Y-120420000D01*
G75*
G02*
X108285000Y-120270000I0J150000D01*
G01*
X108285000Y-118620000D01*
G75*
G02*
X108435000Y-118470000I150000J0D01*
G01*
X108735000Y-118470000D01*
G75*
G02*
X108885000Y-118620000I0J-150000D01*
G01*
X108885000Y-120270000D01*
G75*
G02*
X108735000Y-120420000I-150000J0D01*
G01*
G37*
G36*
G01*
X110005000Y-120420000D02*
X109705000Y-120420000D01*
G75*
G02*
X109555000Y-120270000I0J150000D01*
G01*
X109555000Y-118620000D01*
G75*
G02*
X109705000Y-118470000I150000J0D01*
G01*
X110005000Y-118470000D01*
G75*
G02*
X110155000Y-118620000I0J-150000D01*
G01*
X110155000Y-120270000D01*
G75*
G02*
X110005000Y-120420000I-150000J0D01*
G01*
G37*
G36*
G01*
X110005000Y-125370000D02*
X109705000Y-125370000D01*
G75*
G02*
X109555000Y-125220000I0J150000D01*
G01*
X109555000Y-123570000D01*
G75*
G02*
X109705000Y-123420000I150000J0D01*
G01*
X110005000Y-123420000D01*
G75*
G02*
X110155000Y-123570000I0J-150000D01*
G01*
X110155000Y-125220000D01*
G75*
G02*
X110005000Y-125370000I-150000J0D01*
G01*
G37*
G36*
G01*
X108735000Y-125370000D02*
X108435000Y-125370000D01*
G75*
G02*
X108285000Y-125220000I0J150000D01*
G01*
X108285000Y-123570000D01*
G75*
G02*
X108435000Y-123420000I150000J0D01*
G01*
X108735000Y-123420000D01*
G75*
G02*
X108885000Y-123570000I0J-150000D01*
G01*
X108885000Y-125220000D01*
G75*
G02*
X108735000Y-125370000I-150000J0D01*
G01*
G37*
G36*
G01*
X107465000Y-125370000D02*
X107165000Y-125370000D01*
G75*
G02*
X107015000Y-125220000I0J150000D01*
G01*
X107015000Y-123570000D01*
G75*
G02*
X107165000Y-123420000I150000J0D01*
G01*
X107465000Y-123420000D01*
G75*
G02*
X107615000Y-123570000I0J-150000D01*
G01*
X107615000Y-125220000D01*
G75*
G02*
X107465000Y-125370000I-150000J0D01*
G01*
G37*
G36*
G01*
X106195000Y-125370000D02*
X105895000Y-125370000D01*
G75*
G02*
X105745000Y-125220000I0J150000D01*
G01*
X105745000Y-123570000D01*
G75*
G02*
X105895000Y-123420000I150000J0D01*
G01*
X106195000Y-123420000D01*
G75*
G02*
X106345000Y-123570000I0J-150000D01*
G01*
X106345000Y-125220000D01*
G75*
G02*
X106195000Y-125370000I-150000J0D01*
G01*
G37*
G36*
G01*
X104925000Y-125370000D02*
X104625000Y-125370000D01*
G75*
G02*
X104475000Y-125220000I0J150000D01*
G01*
X104475000Y-123570000D01*
G75*
G02*
X104625000Y-123420000I150000J0D01*
G01*
X104925000Y-123420000D01*
G75*
G02*
X105075000Y-123570000I0J-150000D01*
G01*
X105075000Y-125220000D01*
G75*
G02*
X104925000Y-125370000I-150000J0D01*
G01*
G37*
G36*
G01*
X103655000Y-125370000D02*
X103355000Y-125370000D01*
G75*
G02*
X103205000Y-125220000I0J150000D01*
G01*
X103205000Y-123570000D01*
G75*
G02*
X103355000Y-123420000I150000J0D01*
G01*
X103655000Y-123420000D01*
G75*
G02*
X103805000Y-123570000I0J-150000D01*
G01*
X103805000Y-125220000D01*
G75*
G02*
X103655000Y-125370000I-150000J0D01*
G01*
G37*
G36*
G01*
X102385000Y-125370000D02*
X102085000Y-125370000D01*
G75*
G02*
X101935000Y-125220000I0J150000D01*
G01*
X101935000Y-123570000D01*
G75*
G02*
X102085000Y-123420000I150000J0D01*
G01*
X102385000Y-123420000D01*
G75*
G02*
X102535000Y-123570000I0J-150000D01*
G01*
X102535000Y-125220000D01*
G75*
G02*
X102385000Y-125370000I-150000J0D01*
G01*
G37*
%TD*%
%TO.C,U3*%
G36*
G01*
X131595000Y-131215000D02*
X131295000Y-131215000D01*
G75*
G02*
X131145000Y-131065000I0J150000D01*
G01*
X131145000Y-129415000D01*
G75*
G02*
X131295000Y-129265000I150000J0D01*
G01*
X131595000Y-129265000D01*
G75*
G02*
X131745000Y-129415000I0J-150000D01*
G01*
X131745000Y-131065000D01*
G75*
G02*
X131595000Y-131215000I-150000J0D01*
G01*
G37*
G36*
G01*
X132865000Y-131215000D02*
X132565000Y-131215000D01*
G75*
G02*
X132415000Y-131065000I0J150000D01*
G01*
X132415000Y-129415000D01*
G75*
G02*
X132565000Y-129265000I150000J0D01*
G01*
X132865000Y-129265000D01*
G75*
G02*
X133015000Y-129415000I0J-150000D01*
G01*
X133015000Y-131065000D01*
G75*
G02*
X132865000Y-131215000I-150000J0D01*
G01*
G37*
G36*
G01*
X134135000Y-131215000D02*
X133835000Y-131215000D01*
G75*
G02*
X133685000Y-131065000I0J150000D01*
G01*
X133685000Y-129415000D01*
G75*
G02*
X133835000Y-129265000I150000J0D01*
G01*
X134135000Y-129265000D01*
G75*
G02*
X134285000Y-129415000I0J-150000D01*
G01*
X134285000Y-131065000D01*
G75*
G02*
X134135000Y-131215000I-150000J0D01*
G01*
G37*
G36*
G01*
X135405000Y-131215000D02*
X135105000Y-131215000D01*
G75*
G02*
X134955000Y-131065000I0J150000D01*
G01*
X134955000Y-129415000D01*
G75*
G02*
X135105000Y-129265000I150000J0D01*
G01*
X135405000Y-129265000D01*
G75*
G02*
X135555000Y-129415000I0J-150000D01*
G01*
X135555000Y-131065000D01*
G75*
G02*
X135405000Y-131215000I-150000J0D01*
G01*
G37*
G36*
G01*
X136675000Y-131215000D02*
X136375000Y-131215000D01*
G75*
G02*
X136225000Y-131065000I0J150000D01*
G01*
X136225000Y-129415000D01*
G75*
G02*
X136375000Y-129265000I150000J0D01*
G01*
X136675000Y-129265000D01*
G75*
G02*
X136825000Y-129415000I0J-150000D01*
G01*
X136825000Y-131065000D01*
G75*
G02*
X136675000Y-131215000I-150000J0D01*
G01*
G37*
G36*
G01*
X137945000Y-131215000D02*
X137645000Y-131215000D01*
G75*
G02*
X137495000Y-131065000I0J150000D01*
G01*
X137495000Y-129415000D01*
G75*
G02*
X137645000Y-129265000I150000J0D01*
G01*
X137945000Y-129265000D01*
G75*
G02*
X138095000Y-129415000I0J-150000D01*
G01*
X138095000Y-131065000D01*
G75*
G02*
X137945000Y-131215000I-150000J0D01*
G01*
G37*
G36*
G01*
X139215000Y-131215000D02*
X138915000Y-131215000D01*
G75*
G02*
X138765000Y-131065000I0J150000D01*
G01*
X138765000Y-129415000D01*
G75*
G02*
X138915000Y-129265000I150000J0D01*
G01*
X139215000Y-129265000D01*
G75*
G02*
X139365000Y-129415000I0J-150000D01*
G01*
X139365000Y-131065000D01*
G75*
G02*
X139215000Y-131215000I-150000J0D01*
G01*
G37*
G36*
G01*
X139215000Y-136165000D02*
X138915000Y-136165000D01*
G75*
G02*
X138765000Y-136015000I0J150000D01*
G01*
X138765000Y-134365000D01*
G75*
G02*
X138915000Y-134215000I150000J0D01*
G01*
X139215000Y-134215000D01*
G75*
G02*
X139365000Y-134365000I0J-150000D01*
G01*
X139365000Y-136015000D01*
G75*
G02*
X139215000Y-136165000I-150000J0D01*
G01*
G37*
G36*
G01*
X137945000Y-136165000D02*
X137645000Y-136165000D01*
G75*
G02*
X137495000Y-136015000I0J150000D01*
G01*
X137495000Y-134365000D01*
G75*
G02*
X137645000Y-134215000I150000J0D01*
G01*
X137945000Y-134215000D01*
G75*
G02*
X138095000Y-134365000I0J-150000D01*
G01*
X138095000Y-136015000D01*
G75*
G02*
X137945000Y-136165000I-150000J0D01*
G01*
G37*
G36*
G01*
X136675000Y-136165000D02*
X136375000Y-136165000D01*
G75*
G02*
X136225000Y-136015000I0J150000D01*
G01*
X136225000Y-134365000D01*
G75*
G02*
X136375000Y-134215000I150000J0D01*
G01*
X136675000Y-134215000D01*
G75*
G02*
X136825000Y-134365000I0J-150000D01*
G01*
X136825000Y-136015000D01*
G75*
G02*
X136675000Y-136165000I-150000J0D01*
G01*
G37*
G36*
G01*
X135405000Y-136165000D02*
X135105000Y-136165000D01*
G75*
G02*
X134955000Y-136015000I0J150000D01*
G01*
X134955000Y-134365000D01*
G75*
G02*
X135105000Y-134215000I150000J0D01*
G01*
X135405000Y-134215000D01*
G75*
G02*
X135555000Y-134365000I0J-150000D01*
G01*
X135555000Y-136015000D01*
G75*
G02*
X135405000Y-136165000I-150000J0D01*
G01*
G37*
G36*
G01*
X134135000Y-136165000D02*
X133835000Y-136165000D01*
G75*
G02*
X133685000Y-136015000I0J150000D01*
G01*
X133685000Y-134365000D01*
G75*
G02*
X133835000Y-134215000I150000J0D01*
G01*
X134135000Y-134215000D01*
G75*
G02*
X134285000Y-134365000I0J-150000D01*
G01*
X134285000Y-136015000D01*
G75*
G02*
X134135000Y-136165000I-150000J0D01*
G01*
G37*
G36*
G01*
X132865000Y-136165000D02*
X132565000Y-136165000D01*
G75*
G02*
X132415000Y-136015000I0J150000D01*
G01*
X132415000Y-134365000D01*
G75*
G02*
X132565000Y-134215000I150000J0D01*
G01*
X132865000Y-134215000D01*
G75*
G02*
X133015000Y-134365000I0J-150000D01*
G01*
X133015000Y-136015000D01*
G75*
G02*
X132865000Y-136165000I-150000J0D01*
G01*
G37*
G36*
G01*
X131595000Y-136165000D02*
X131295000Y-136165000D01*
G75*
G02*
X131145000Y-136015000I0J150000D01*
G01*
X131145000Y-134365000D01*
G75*
G02*
X131295000Y-134215000I150000J0D01*
G01*
X131595000Y-134215000D01*
G75*
G02*
X131745000Y-134365000I0J-150000D01*
G01*
X131745000Y-136015000D01*
G75*
G02*
X131595000Y-136165000I-150000J0D01*
G01*
G37*
%TD*%
%TO.C,U2*%
G36*
G01*
X71905000Y-109625000D02*
X71605000Y-109625000D01*
G75*
G02*
X71455000Y-109475000I0J150000D01*
G01*
X71455000Y-107825000D01*
G75*
G02*
X71605000Y-107675000I150000J0D01*
G01*
X71905000Y-107675000D01*
G75*
G02*
X72055000Y-107825000I0J-150000D01*
G01*
X72055000Y-109475000D01*
G75*
G02*
X71905000Y-109625000I-150000J0D01*
G01*
G37*
G36*
G01*
X73175000Y-109625000D02*
X72875000Y-109625000D01*
G75*
G02*
X72725000Y-109475000I0J150000D01*
G01*
X72725000Y-107825000D01*
G75*
G02*
X72875000Y-107675000I150000J0D01*
G01*
X73175000Y-107675000D01*
G75*
G02*
X73325000Y-107825000I0J-150000D01*
G01*
X73325000Y-109475000D01*
G75*
G02*
X73175000Y-109625000I-150000J0D01*
G01*
G37*
G36*
G01*
X74445000Y-109625000D02*
X74145000Y-109625000D01*
G75*
G02*
X73995000Y-109475000I0J150000D01*
G01*
X73995000Y-107825000D01*
G75*
G02*
X74145000Y-107675000I150000J0D01*
G01*
X74445000Y-107675000D01*
G75*
G02*
X74595000Y-107825000I0J-150000D01*
G01*
X74595000Y-109475000D01*
G75*
G02*
X74445000Y-109625000I-150000J0D01*
G01*
G37*
G36*
G01*
X75715000Y-109625000D02*
X75415000Y-109625000D01*
G75*
G02*
X75265000Y-109475000I0J150000D01*
G01*
X75265000Y-107825000D01*
G75*
G02*
X75415000Y-107675000I150000J0D01*
G01*
X75715000Y-107675000D01*
G75*
G02*
X75865000Y-107825000I0J-150000D01*
G01*
X75865000Y-109475000D01*
G75*
G02*
X75715000Y-109625000I-150000J0D01*
G01*
G37*
G36*
G01*
X75715000Y-114575000D02*
X75415000Y-114575000D01*
G75*
G02*
X75265000Y-114425000I0J150000D01*
G01*
X75265000Y-112775000D01*
G75*
G02*
X75415000Y-112625000I150000J0D01*
G01*
X75715000Y-112625000D01*
G75*
G02*
X75865000Y-112775000I0J-150000D01*
G01*
X75865000Y-114425000D01*
G75*
G02*
X75715000Y-114575000I-150000J0D01*
G01*
G37*
G36*
G01*
X74445000Y-114575000D02*
X74145000Y-114575000D01*
G75*
G02*
X73995000Y-114425000I0J150000D01*
G01*
X73995000Y-112775000D01*
G75*
G02*
X74145000Y-112625000I150000J0D01*
G01*
X74445000Y-112625000D01*
G75*
G02*
X74595000Y-112775000I0J-150000D01*
G01*
X74595000Y-114425000D01*
G75*
G02*
X74445000Y-114575000I-150000J0D01*
G01*
G37*
G36*
G01*
X73175000Y-114575000D02*
X72875000Y-114575000D01*
G75*
G02*
X72725000Y-114425000I0J150000D01*
G01*
X72725000Y-112775000D01*
G75*
G02*
X72875000Y-112625000I150000J0D01*
G01*
X73175000Y-112625000D01*
G75*
G02*
X73325000Y-112775000I0J-150000D01*
G01*
X73325000Y-114425000D01*
G75*
G02*
X73175000Y-114575000I-150000J0D01*
G01*
G37*
G36*
G01*
X71905000Y-114575000D02*
X71605000Y-114575000D01*
G75*
G02*
X71455000Y-114425000I0J150000D01*
G01*
X71455000Y-112775000D01*
G75*
G02*
X71605000Y-112625000I150000J0D01*
G01*
X71905000Y-112625000D01*
G75*
G02*
X72055000Y-112775000I0J-150000D01*
G01*
X72055000Y-114425000D01*
G75*
G02*
X71905000Y-114575000I-150000J0D01*
G01*
G37*
%TD*%
%TO.C,U1*%
G36*
G01*
X71905000Y-120420000D02*
X71605000Y-120420000D01*
G75*
G02*
X71455000Y-120270000I0J150000D01*
G01*
X71455000Y-118620000D01*
G75*
G02*
X71605000Y-118470000I150000J0D01*
G01*
X71905000Y-118470000D01*
G75*
G02*
X72055000Y-118620000I0J-150000D01*
G01*
X72055000Y-120270000D01*
G75*
G02*
X71905000Y-120420000I-150000J0D01*
G01*
G37*
G36*
G01*
X73175000Y-120420000D02*
X72875000Y-120420000D01*
G75*
G02*
X72725000Y-120270000I0J150000D01*
G01*
X72725000Y-118620000D01*
G75*
G02*
X72875000Y-118470000I150000J0D01*
G01*
X73175000Y-118470000D01*
G75*
G02*
X73325000Y-118620000I0J-150000D01*
G01*
X73325000Y-120270000D01*
G75*
G02*
X73175000Y-120420000I-150000J0D01*
G01*
G37*
G36*
G01*
X74445000Y-120420000D02*
X74145000Y-120420000D01*
G75*
G02*
X73995000Y-120270000I0J150000D01*
G01*
X73995000Y-118620000D01*
G75*
G02*
X74145000Y-118470000I150000J0D01*
G01*
X74445000Y-118470000D01*
G75*
G02*
X74595000Y-118620000I0J-150000D01*
G01*
X74595000Y-120270000D01*
G75*
G02*
X74445000Y-120420000I-150000J0D01*
G01*
G37*
G36*
G01*
X75715000Y-120420000D02*
X75415000Y-120420000D01*
G75*
G02*
X75265000Y-120270000I0J150000D01*
G01*
X75265000Y-118620000D01*
G75*
G02*
X75415000Y-118470000I150000J0D01*
G01*
X75715000Y-118470000D01*
G75*
G02*
X75865000Y-118620000I0J-150000D01*
G01*
X75865000Y-120270000D01*
G75*
G02*
X75715000Y-120420000I-150000J0D01*
G01*
G37*
G36*
G01*
X75715000Y-125370000D02*
X75415000Y-125370000D01*
G75*
G02*
X75265000Y-125220000I0J150000D01*
G01*
X75265000Y-123570000D01*
G75*
G02*
X75415000Y-123420000I150000J0D01*
G01*
X75715000Y-123420000D01*
G75*
G02*
X75865000Y-123570000I0J-150000D01*
G01*
X75865000Y-125220000D01*
G75*
G02*
X75715000Y-125370000I-150000J0D01*
G01*
G37*
G36*
G01*
X74445000Y-125370000D02*
X74145000Y-125370000D01*
G75*
G02*
X73995000Y-125220000I0J150000D01*
G01*
X73995000Y-123570000D01*
G75*
G02*
X74145000Y-123420000I150000J0D01*
G01*
X74445000Y-123420000D01*
G75*
G02*
X74595000Y-123570000I0J-150000D01*
G01*
X74595000Y-125220000D01*
G75*
G02*
X74445000Y-125370000I-150000J0D01*
G01*
G37*
G36*
G01*
X73175000Y-125370000D02*
X72875000Y-125370000D01*
G75*
G02*
X72725000Y-125220000I0J150000D01*
G01*
X72725000Y-123570000D01*
G75*
G02*
X72875000Y-123420000I150000J0D01*
G01*
X73175000Y-123420000D01*
G75*
G02*
X73325000Y-123570000I0J-150000D01*
G01*
X73325000Y-125220000D01*
G75*
G02*
X73175000Y-125370000I-150000J0D01*
G01*
G37*
G36*
G01*
X71905000Y-125370000D02*
X71605000Y-125370000D01*
G75*
G02*
X71455000Y-125220000I0J150000D01*
G01*
X71455000Y-123570000D01*
G75*
G02*
X71605000Y-123420000I150000J0D01*
G01*
X71905000Y-123420000D01*
G75*
G02*
X72055000Y-123570000I0J-150000D01*
G01*
X72055000Y-125220000D01*
G75*
G02*
X71905000Y-125370000I-150000J0D01*
G01*
G37*
%TD*%
D16*
%TO.C,SW3*%
X161290000Y-94865000D03*
X161290000Y-103065000D03*
D17*
X161290000Y-96965000D03*
X161290000Y-98965000D03*
D18*
X161290000Y-100965000D03*
%TD*%
D19*
%TO.C,SW2*%
X159535000Y-140970000D03*
X159535000Y-145470000D03*
X153035000Y-140970000D03*
X153035000Y-145470000D03*
%TD*%
%TO.C,SW1*%
X159535000Y-130175000D03*
X159535000Y-134675000D03*
X153035000Y-130175000D03*
X153035000Y-134675000D03*
%TD*%
D20*
%TO.C,RV1*%
X68707000Y-101600000D03*
X68707000Y-99060000D03*
X68707000Y-96520000D03*
%TD*%
%TO.C,R24*%
G36*
G01*
X92331250Y-66960000D02*
X91818750Y-66960000D01*
G75*
G02*
X91600000Y-66741250I0J218750D01*
G01*
X91600000Y-66303750D01*
G75*
G02*
X91818750Y-66085000I218750J0D01*
G01*
X92331250Y-66085000D01*
G75*
G02*
X92550000Y-66303750I0J-218750D01*
G01*
X92550000Y-66741250D01*
G75*
G02*
X92331250Y-66960000I-218750J0D01*
G01*
G37*
G36*
G01*
X92331250Y-68535000D02*
X91818750Y-68535000D01*
G75*
G02*
X91600000Y-68316250I0J218750D01*
G01*
X91600000Y-67878750D01*
G75*
G02*
X91818750Y-67660000I218750J0D01*
G01*
X92331250Y-67660000D01*
G75*
G02*
X92550000Y-67878750I0J-218750D01*
G01*
X92550000Y-68316250D01*
G75*
G02*
X92331250Y-68535000I-218750J0D01*
G01*
G37*
%TD*%
%TO.C,R21*%
G36*
G01*
X80360000Y-102491250D02*
X80360000Y-101978750D01*
G75*
G02*
X80578750Y-101760000I218750J0D01*
G01*
X81016250Y-101760000D01*
G75*
G02*
X81235000Y-101978750I0J-218750D01*
G01*
X81235000Y-102491250D01*
G75*
G02*
X81016250Y-102710000I-218750J0D01*
G01*
X80578750Y-102710000D01*
G75*
G02*
X80360000Y-102491250I0J218750D01*
G01*
G37*
G36*
G01*
X78785000Y-102491250D02*
X78785000Y-101978750D01*
G75*
G02*
X79003750Y-101760000I218750J0D01*
G01*
X79441250Y-101760000D01*
G75*
G02*
X79660000Y-101978750I0J-218750D01*
G01*
X79660000Y-102491250D01*
G75*
G02*
X79441250Y-102710000I-218750J0D01*
G01*
X79003750Y-102710000D01*
G75*
G02*
X78785000Y-102491250I0J218750D01*
G01*
G37*
%TD*%
%TO.C,R16*%
G36*
G01*
X80360000Y-96141250D02*
X80360000Y-95628750D01*
G75*
G02*
X80578750Y-95410000I218750J0D01*
G01*
X81016250Y-95410000D01*
G75*
G02*
X81235000Y-95628750I0J-218750D01*
G01*
X81235000Y-96141250D01*
G75*
G02*
X81016250Y-96360000I-218750J0D01*
G01*
X80578750Y-96360000D01*
G75*
G02*
X80360000Y-96141250I0J218750D01*
G01*
G37*
G36*
G01*
X78785000Y-96141250D02*
X78785000Y-95628750D01*
G75*
G02*
X79003750Y-95410000I218750J0D01*
G01*
X79441250Y-95410000D01*
G75*
G02*
X79660000Y-95628750I0J-218750D01*
G01*
X79660000Y-96141250D01*
G75*
G02*
X79441250Y-96360000I-218750J0D01*
G01*
X79003750Y-96360000D01*
G75*
G02*
X78785000Y-96141250I0J218750D01*
G01*
G37*
%TD*%
%TO.C,R15*%
G36*
G01*
X72359000Y-106555250D02*
X72359000Y-106042750D01*
G75*
G02*
X72577750Y-105824000I218750J0D01*
G01*
X73015250Y-105824000D01*
G75*
G02*
X73234000Y-106042750I0J-218750D01*
G01*
X73234000Y-106555250D01*
G75*
G02*
X73015250Y-106774000I-218750J0D01*
G01*
X72577750Y-106774000D01*
G75*
G02*
X72359000Y-106555250I0J218750D01*
G01*
G37*
G36*
G01*
X70784000Y-106555250D02*
X70784000Y-106042750D01*
G75*
G02*
X71002750Y-105824000I218750J0D01*
G01*
X71440250Y-105824000D01*
G75*
G02*
X71659000Y-106042750I0J-218750D01*
G01*
X71659000Y-106555250D01*
G75*
G02*
X71440250Y-106774000I-218750J0D01*
G01*
X71002750Y-106774000D01*
G75*
G02*
X70784000Y-106555250I0J218750D01*
G01*
G37*
%TD*%
%TO.C,R14*%
G36*
G01*
X135478000Y-127002250D02*
X135478000Y-126489750D01*
G75*
G02*
X135696750Y-126271000I218750J0D01*
G01*
X136134250Y-126271000D01*
G75*
G02*
X136353000Y-126489750I0J-218750D01*
G01*
X136353000Y-127002250D01*
G75*
G02*
X136134250Y-127221000I-218750J0D01*
G01*
X135696750Y-127221000D01*
G75*
G02*
X135478000Y-127002250I0J218750D01*
G01*
G37*
G36*
G01*
X133903000Y-127002250D02*
X133903000Y-126489750D01*
G75*
G02*
X134121750Y-126271000I218750J0D01*
G01*
X134559250Y-126271000D01*
G75*
G02*
X134778000Y-126489750I0J-218750D01*
G01*
X134778000Y-127002250D01*
G75*
G02*
X134559250Y-127221000I-218750J0D01*
G01*
X134121750Y-127221000D01*
G75*
G02*
X133903000Y-127002250I0J218750D01*
G01*
G37*
%TD*%
%TO.C,R13*%
G36*
G01*
X135478000Y-117477250D02*
X135478000Y-116964750D01*
G75*
G02*
X135696750Y-116746000I218750J0D01*
G01*
X136134250Y-116746000D01*
G75*
G02*
X136353000Y-116964750I0J-218750D01*
G01*
X136353000Y-117477250D01*
G75*
G02*
X136134250Y-117696000I-218750J0D01*
G01*
X135696750Y-117696000D01*
G75*
G02*
X135478000Y-117477250I0J218750D01*
G01*
G37*
G36*
G01*
X133903000Y-117477250D02*
X133903000Y-116964750D01*
G75*
G02*
X134121750Y-116746000I218750J0D01*
G01*
X134559250Y-116746000D01*
G75*
G02*
X134778000Y-116964750I0J-218750D01*
G01*
X134778000Y-117477250D01*
G75*
G02*
X134559250Y-117696000I-218750J0D01*
G01*
X134121750Y-117696000D01*
G75*
G02*
X133903000Y-117477250I0J218750D01*
G01*
G37*
%TD*%
%TO.C,R12*%
G36*
G01*
X137510000Y-92712250D02*
X137510000Y-92199750D01*
G75*
G02*
X137728750Y-91981000I218750J0D01*
G01*
X138166250Y-91981000D01*
G75*
G02*
X138385000Y-92199750I0J-218750D01*
G01*
X138385000Y-92712250D01*
G75*
G02*
X138166250Y-92931000I-218750J0D01*
G01*
X137728750Y-92931000D01*
G75*
G02*
X137510000Y-92712250I0J218750D01*
G01*
G37*
G36*
G01*
X135935000Y-92712250D02*
X135935000Y-92199750D01*
G75*
G02*
X136153750Y-91981000I218750J0D01*
G01*
X136591250Y-91981000D01*
G75*
G02*
X136810000Y-92199750I0J-218750D01*
G01*
X136810000Y-92712250D01*
G75*
G02*
X136591250Y-92931000I-218750J0D01*
G01*
X136153750Y-92931000D01*
G75*
G02*
X135935000Y-92712250I0J218750D01*
G01*
G37*
%TD*%
%TO.C,R10*%
G36*
G01*
X127251750Y-75127500D02*
X127764250Y-75127500D01*
G75*
G02*
X127983000Y-75346250I0J-218750D01*
G01*
X127983000Y-75783750D01*
G75*
G02*
X127764250Y-76002500I-218750J0D01*
G01*
X127251750Y-76002500D01*
G75*
G02*
X127033000Y-75783750I0J218750D01*
G01*
X127033000Y-75346250D01*
G75*
G02*
X127251750Y-75127500I218750J0D01*
G01*
G37*
G36*
G01*
X127251750Y-73552500D02*
X127764250Y-73552500D01*
G75*
G02*
X127983000Y-73771250I0J-218750D01*
G01*
X127983000Y-74208750D01*
G75*
G02*
X127764250Y-74427500I-218750J0D01*
G01*
X127251750Y-74427500D01*
G75*
G02*
X127033000Y-74208750I0J218750D01*
G01*
X127033000Y-73771250D01*
G75*
G02*
X127251750Y-73552500I218750J0D01*
G01*
G37*
%TD*%
%TO.C,R5*%
G36*
G01*
X157511000Y-127124750D02*
X157511000Y-127637250D01*
G75*
G02*
X157292250Y-127856000I-218750J0D01*
G01*
X156854750Y-127856000D01*
G75*
G02*
X156636000Y-127637250I0J218750D01*
G01*
X156636000Y-127124750D01*
G75*
G02*
X156854750Y-126906000I218750J0D01*
G01*
X157292250Y-126906000D01*
G75*
G02*
X157511000Y-127124750I0J-218750D01*
G01*
G37*
G36*
G01*
X159086000Y-127124750D02*
X159086000Y-127637250D01*
G75*
G02*
X158867250Y-127856000I-218750J0D01*
G01*
X158429750Y-127856000D01*
G75*
G02*
X158211000Y-127637250I0J218750D01*
G01*
X158211000Y-127124750D01*
G75*
G02*
X158429750Y-126906000I218750J0D01*
G01*
X158867250Y-126906000D01*
G75*
G02*
X159086000Y-127124750I0J-218750D01*
G01*
G37*
%TD*%
%TO.C,R4*%
G36*
G01*
X75534000Y-117350250D02*
X75534000Y-116837750D01*
G75*
G02*
X75752750Y-116619000I218750J0D01*
G01*
X76190250Y-116619000D01*
G75*
G02*
X76409000Y-116837750I0J-218750D01*
G01*
X76409000Y-117350250D01*
G75*
G02*
X76190250Y-117569000I-218750J0D01*
G01*
X75752750Y-117569000D01*
G75*
G02*
X75534000Y-117350250I0J218750D01*
G01*
G37*
G36*
G01*
X73959000Y-117350250D02*
X73959000Y-116837750D01*
G75*
G02*
X74177750Y-116619000I218750J0D01*
G01*
X74615250Y-116619000D01*
G75*
G02*
X74834000Y-116837750I0J-218750D01*
G01*
X74834000Y-117350250D01*
G75*
G02*
X74615250Y-117569000I-218750J0D01*
G01*
X74177750Y-117569000D01*
G75*
G02*
X73959000Y-117350250I0J218750D01*
G01*
G37*
%TD*%
%TO.C,R3*%
G36*
G01*
X155036000Y-127637250D02*
X155036000Y-127124750D01*
G75*
G02*
X155254750Y-126906000I218750J0D01*
G01*
X155692250Y-126906000D01*
G75*
G02*
X155911000Y-127124750I0J-218750D01*
G01*
X155911000Y-127637250D01*
G75*
G02*
X155692250Y-127856000I-218750J0D01*
G01*
X155254750Y-127856000D01*
G75*
G02*
X155036000Y-127637250I0J218750D01*
G01*
G37*
G36*
G01*
X153461000Y-127637250D02*
X153461000Y-127124750D01*
G75*
G02*
X153679750Y-126906000I218750J0D01*
G01*
X154117250Y-126906000D01*
G75*
G02*
X154336000Y-127124750I0J-218750D01*
G01*
X154336000Y-127637250D01*
G75*
G02*
X154117250Y-127856000I-218750J0D01*
G01*
X153679750Y-127856000D01*
G75*
G02*
X153461000Y-127637250I0J218750D01*
G01*
G37*
%TD*%
%TO.C,R2*%
G36*
G01*
X151161000Y-127124750D02*
X151161000Y-127637250D01*
G75*
G02*
X150942250Y-127856000I-218750J0D01*
G01*
X150504750Y-127856000D01*
G75*
G02*
X150286000Y-127637250I0J218750D01*
G01*
X150286000Y-127124750D01*
G75*
G02*
X150504750Y-126906000I218750J0D01*
G01*
X150942250Y-126906000D01*
G75*
G02*
X151161000Y-127124750I0J-218750D01*
G01*
G37*
G36*
G01*
X152736000Y-127124750D02*
X152736000Y-127637250D01*
G75*
G02*
X152517250Y-127856000I-218750J0D01*
G01*
X152079750Y-127856000D01*
G75*
G02*
X151861000Y-127637250I0J218750D01*
G01*
X151861000Y-127124750D01*
G75*
G02*
X152079750Y-126906000I218750J0D01*
G01*
X152517250Y-126906000D01*
G75*
G02*
X152736000Y-127124750I0J-218750D01*
G01*
G37*
%TD*%
%TO.C,R1*%
G36*
G01*
X72359000Y-117350250D02*
X72359000Y-116837750D01*
G75*
G02*
X72577750Y-116619000I218750J0D01*
G01*
X73015250Y-116619000D01*
G75*
G02*
X73234000Y-116837750I0J-218750D01*
G01*
X73234000Y-117350250D01*
G75*
G02*
X73015250Y-117569000I-218750J0D01*
G01*
X72577750Y-117569000D01*
G75*
G02*
X72359000Y-117350250I0J218750D01*
G01*
G37*
G36*
G01*
X70784000Y-117350250D02*
X70784000Y-116837750D01*
G75*
G02*
X71002750Y-116619000I218750J0D01*
G01*
X71440250Y-116619000D01*
G75*
G02*
X71659000Y-116837750I0J-218750D01*
G01*
X71659000Y-117350250D01*
G75*
G02*
X71440250Y-117569000I-218750J0D01*
G01*
X71002750Y-117569000D01*
G75*
G02*
X70784000Y-117350250I0J218750D01*
G01*
G37*
%TD*%
%TO.C,Q3*%
G36*
G01*
X85240000Y-65810000D02*
X84940000Y-65810000D01*
G75*
G02*
X84790000Y-65660000I0J150000D01*
G01*
X84790000Y-64010000D01*
G75*
G02*
X84940000Y-63860000I150000J0D01*
G01*
X85240000Y-63860000D01*
G75*
G02*
X85390000Y-64010000I0J-150000D01*
G01*
X85390000Y-65660000D01*
G75*
G02*
X85240000Y-65810000I-150000J0D01*
G01*
G37*
G36*
G01*
X86510000Y-65810000D02*
X86210000Y-65810000D01*
G75*
G02*
X86060000Y-65660000I0J150000D01*
G01*
X86060000Y-64010000D01*
G75*
G02*
X86210000Y-63860000I150000J0D01*
G01*
X86510000Y-63860000D01*
G75*
G02*
X86660000Y-64010000I0J-150000D01*
G01*
X86660000Y-65660000D01*
G75*
G02*
X86510000Y-65810000I-150000J0D01*
G01*
G37*
G36*
G01*
X87780000Y-65810000D02*
X87480000Y-65810000D01*
G75*
G02*
X87330000Y-65660000I0J150000D01*
G01*
X87330000Y-64010000D01*
G75*
G02*
X87480000Y-63860000I150000J0D01*
G01*
X87780000Y-63860000D01*
G75*
G02*
X87930000Y-64010000I0J-150000D01*
G01*
X87930000Y-65660000D01*
G75*
G02*
X87780000Y-65810000I-150000J0D01*
G01*
G37*
G36*
G01*
X89050000Y-65810000D02*
X88750000Y-65810000D01*
G75*
G02*
X88600000Y-65660000I0J150000D01*
G01*
X88600000Y-64010000D01*
G75*
G02*
X88750000Y-63860000I150000J0D01*
G01*
X89050000Y-63860000D01*
G75*
G02*
X89200000Y-64010000I0J-150000D01*
G01*
X89200000Y-65660000D01*
G75*
G02*
X89050000Y-65810000I-150000J0D01*
G01*
G37*
G36*
G01*
X89050000Y-70760000D02*
X88750000Y-70760000D01*
G75*
G02*
X88600000Y-70610000I0J150000D01*
G01*
X88600000Y-68960000D01*
G75*
G02*
X88750000Y-68810000I150000J0D01*
G01*
X89050000Y-68810000D01*
G75*
G02*
X89200000Y-68960000I0J-150000D01*
G01*
X89200000Y-70610000D01*
G75*
G02*
X89050000Y-70760000I-150000J0D01*
G01*
G37*
G36*
G01*
X87780000Y-70760000D02*
X87480000Y-70760000D01*
G75*
G02*
X87330000Y-70610000I0J150000D01*
G01*
X87330000Y-68960000D01*
G75*
G02*
X87480000Y-68810000I150000J0D01*
G01*
X87780000Y-68810000D01*
G75*
G02*
X87930000Y-68960000I0J-150000D01*
G01*
X87930000Y-70610000D01*
G75*
G02*
X87780000Y-70760000I-150000J0D01*
G01*
G37*
G36*
G01*
X86510000Y-70760000D02*
X86210000Y-70760000D01*
G75*
G02*
X86060000Y-70610000I0J150000D01*
G01*
X86060000Y-68960000D01*
G75*
G02*
X86210000Y-68810000I150000J0D01*
G01*
X86510000Y-68810000D01*
G75*
G02*
X86660000Y-68960000I0J-150000D01*
G01*
X86660000Y-70610000D01*
G75*
G02*
X86510000Y-70760000I-150000J0D01*
G01*
G37*
G36*
G01*
X85240000Y-70760000D02*
X84940000Y-70760000D01*
G75*
G02*
X84790000Y-70610000I0J150000D01*
G01*
X84790000Y-68960000D01*
G75*
G02*
X84940000Y-68810000I150000J0D01*
G01*
X85240000Y-68810000D01*
G75*
G02*
X85390000Y-68960000I0J-150000D01*
G01*
X85390000Y-70610000D01*
G75*
G02*
X85240000Y-70760000I-150000J0D01*
G01*
G37*
%TD*%
D10*
%TO.C,Q2*%
X80010000Y-98060000D03*
X80960000Y-100060000D03*
X79060000Y-100060000D03*
%TD*%
D21*
%TO.C,Q1*%
X132445000Y-74930000D03*
X130445000Y-75880000D03*
X130445000Y-73980000D03*
%TD*%
D19*
%TO.C,K1*%
X139700000Y-75565000D03*
X144780000Y-75565000D03*
X139700000Y-67945000D03*
D22*
X139700000Y-65405000D03*
D19*
X144780000Y-67945000D03*
X144780000Y-65405000D03*
%TD*%
%TO.C,J5*%
G36*
G01*
X69863000Y-70180000D02*
X71613000Y-70180000D01*
G75*
G02*
X72488000Y-71055000I0J-875000D01*
G01*
X72488000Y-72805000D01*
G75*
G02*
X71613000Y-73680000I-875000J0D01*
G01*
X69863000Y-73680000D01*
G75*
G02*
X68988000Y-72805000I0J875000D01*
G01*
X68988000Y-71055000D01*
G75*
G02*
X69863000Y-70180000I875000J0D01*
G01*
G37*
G36*
G01*
X74438000Y-67430000D02*
X76438000Y-67430000D01*
G75*
G02*
X77188000Y-68180000I0J-750000D01*
G01*
X77188000Y-69680000D01*
G75*
G02*
X76438000Y-70430000I-750000J0D01*
G01*
X74438000Y-70430000D01*
G75*
G02*
X73688000Y-69680000I0J750000D01*
G01*
X73688000Y-68180000D01*
G75*
G02*
X74438000Y-67430000I750000J0D01*
G01*
G37*
D23*
X75438000Y-74930000D03*
%TD*%
D24*
%TO.C,J4*%
X133350000Y-64897000D03*
D25*
X128270000Y-64897000D03*
%TD*%
D26*
%TO.C,J3*%
X113030000Y-147955000D03*
X110490000Y-147955000D03*
X107950000Y-147955000D03*
D27*
X105410000Y-147955000D03*
%TD*%
D26*
%TO.C,J1*%
X100330000Y-147955000D03*
X97790000Y-147955000D03*
X95250000Y-147955000D03*
X92710000Y-147955000D03*
X90170000Y-147955000D03*
X87630000Y-147955000D03*
X85090000Y-147955000D03*
X82550000Y-147955000D03*
X80010000Y-147955000D03*
X77470000Y-147955000D03*
X74930000Y-147955000D03*
X72390000Y-147955000D03*
D27*
X69850000Y-147955000D03*
%TD*%
D28*
%TO.C,D9*%
X88745000Y-73025000D03*
X85245000Y-73025000D03*
%TD*%
D29*
%TO.C,D2*%
X135255000Y-76330000D03*
X135255000Y-73530000D03*
%TD*%
D19*
%TO.C,C29*%
X100330000Y-66755000D03*
D22*
X100330000Y-71755000D03*
%TD*%
%TO.C,C28*%
G36*
G01*
X161386000Y-127637250D02*
X161386000Y-127124750D01*
G75*
G02*
X161604750Y-126906000I218750J0D01*
G01*
X162042250Y-126906000D01*
G75*
G02*
X162261000Y-127124750I0J-218750D01*
G01*
X162261000Y-127637250D01*
G75*
G02*
X162042250Y-127856000I-218750J0D01*
G01*
X161604750Y-127856000D01*
G75*
G02*
X161386000Y-127637250I0J218750D01*
G01*
G37*
G36*
G01*
X159811000Y-127637250D02*
X159811000Y-127124750D01*
G75*
G02*
X160029750Y-126906000I218750J0D01*
G01*
X160467250Y-126906000D01*
G75*
G02*
X160686000Y-127124750I0J-218750D01*
G01*
X160686000Y-127637250D01*
G75*
G02*
X160467250Y-127856000I-218750J0D01*
G01*
X160029750Y-127856000D01*
G75*
G02*
X159811000Y-127637250I0J218750D01*
G01*
G37*
%TD*%
D30*
%TO.C,C27*%
X145002000Y-132588000D03*
D15*
X143002000Y-132588000D03*
%TD*%
D30*
%TO.C,C26*%
X142907000Y-125222000D03*
D15*
X144907000Y-125222000D03*
%TD*%
D30*
%TO.C,C25*%
X145002000Y-118872000D03*
D15*
X143002000Y-118872000D03*
%TD*%
D30*
%TO.C,C24*%
X80740000Y-111125000D03*
D15*
X78740000Y-111125000D03*
%TD*%
%TO.C,C23*%
G36*
G01*
X75534000Y-106555250D02*
X75534000Y-106042750D01*
G75*
G02*
X75752750Y-105824000I218750J0D01*
G01*
X76190250Y-105824000D01*
G75*
G02*
X76409000Y-106042750I0J-218750D01*
G01*
X76409000Y-106555250D01*
G75*
G02*
X76190250Y-106774000I-218750J0D01*
G01*
X75752750Y-106774000D01*
G75*
G02*
X75534000Y-106555250I0J218750D01*
G01*
G37*
G36*
G01*
X73959000Y-106555250D02*
X73959000Y-106042750D01*
G75*
G02*
X74177750Y-105824000I218750J0D01*
G01*
X74615250Y-105824000D01*
G75*
G02*
X74834000Y-106042750I0J-218750D01*
G01*
X74834000Y-106555250D01*
G75*
G02*
X74615250Y-106774000I-218750J0D01*
G01*
X74177750Y-106774000D01*
G75*
G02*
X73959000Y-106555250I0J218750D01*
G01*
G37*
%TD*%
D30*
%TO.C,C22*%
X80740000Y-121920000D03*
D15*
X78740000Y-121920000D03*
%TD*%
%TO.C,C21*%
G36*
G01*
X78734500Y-117350250D02*
X78734500Y-116837750D01*
G75*
G02*
X78953250Y-116619000I218750J0D01*
G01*
X79390750Y-116619000D01*
G75*
G02*
X79609500Y-116837750I0J-218750D01*
G01*
X79609500Y-117350250D01*
G75*
G02*
X79390750Y-117569000I-218750J0D01*
G01*
X78953250Y-117569000D01*
G75*
G02*
X78734500Y-117350250I0J218750D01*
G01*
G37*
G36*
G01*
X77159500Y-117350250D02*
X77159500Y-116837750D01*
G75*
G02*
X77378250Y-116619000I218750J0D01*
G01*
X77815750Y-116619000D01*
G75*
G02*
X78034500Y-116837750I0J-218750D01*
G01*
X78034500Y-117350250D01*
G75*
G02*
X77815750Y-117569000I-218750J0D01*
G01*
X77378250Y-117569000D01*
G75*
G02*
X77159500Y-117350250I0J218750D01*
G01*
G37*
%TD*%
%TO.C,C18*%
G36*
G01*
X114043750Y-111475000D02*
X114556250Y-111475000D01*
G75*
G02*
X114775000Y-111693750I0J-218750D01*
G01*
X114775000Y-112131250D01*
G75*
G02*
X114556250Y-112350000I-218750J0D01*
G01*
X114043750Y-112350000D01*
G75*
G02*
X113825000Y-112131250I0J218750D01*
G01*
X113825000Y-111693750D01*
G75*
G02*
X114043750Y-111475000I218750J0D01*
G01*
G37*
G36*
G01*
X114043750Y-109900000D02*
X114556250Y-109900000D01*
G75*
G02*
X114775000Y-110118750I0J-218750D01*
G01*
X114775000Y-110556250D01*
G75*
G02*
X114556250Y-110775000I-218750J0D01*
G01*
X114043750Y-110775000D01*
G75*
G02*
X113825000Y-110556250I0J218750D01*
G01*
X113825000Y-110118750D01*
G75*
G02*
X114043750Y-109900000I218750J0D01*
G01*
G37*
%TD*%
%TO.C,C17*%
G36*
G01*
X126743750Y-122270000D02*
X127256250Y-122270000D01*
G75*
G02*
X127475000Y-122488750I0J-218750D01*
G01*
X127475000Y-122926250D01*
G75*
G02*
X127256250Y-123145000I-218750J0D01*
G01*
X126743750Y-123145000D01*
G75*
G02*
X126525000Y-122926250I0J218750D01*
G01*
X126525000Y-122488750D01*
G75*
G02*
X126743750Y-122270000I218750J0D01*
G01*
G37*
G36*
G01*
X126743750Y-120695000D02*
X127256250Y-120695000D01*
G75*
G02*
X127475000Y-120913750I0J-218750D01*
G01*
X127475000Y-121351250D01*
G75*
G02*
X127256250Y-121570000I-218750J0D01*
G01*
X126743750Y-121570000D01*
G75*
G02*
X126525000Y-121351250I0J218750D01*
G01*
X126525000Y-120913750D01*
G75*
G02*
X126743750Y-120695000I218750J0D01*
G01*
G37*
%TD*%
%TO.C,C16*%
G36*
G01*
X68323750Y-84805000D02*
X68836250Y-84805000D01*
G75*
G02*
X69055000Y-85023750I0J-218750D01*
G01*
X69055000Y-85461250D01*
G75*
G02*
X68836250Y-85680000I-218750J0D01*
G01*
X68323750Y-85680000D01*
G75*
G02*
X68105000Y-85461250I0J218750D01*
G01*
X68105000Y-85023750D01*
G75*
G02*
X68323750Y-84805000I218750J0D01*
G01*
G37*
G36*
G01*
X68323750Y-83230000D02*
X68836250Y-83230000D01*
G75*
G02*
X69055000Y-83448750I0J-218750D01*
G01*
X69055000Y-83886250D01*
G75*
G02*
X68836250Y-84105000I-218750J0D01*
G01*
X68323750Y-84105000D01*
G75*
G02*
X68105000Y-83886250I0J218750D01*
G01*
X68105000Y-83448750D01*
G75*
G02*
X68323750Y-83230000I218750J0D01*
G01*
G37*
%TD*%
%TO.C,C15*%
G36*
G01*
X126743750Y-99410000D02*
X127256250Y-99410000D01*
G75*
G02*
X127475000Y-99628750I0J-218750D01*
G01*
X127475000Y-100066250D01*
G75*
G02*
X127256250Y-100285000I-218750J0D01*
G01*
X126743750Y-100285000D01*
G75*
G02*
X126525000Y-100066250I0J218750D01*
G01*
X126525000Y-99628750D01*
G75*
G02*
X126743750Y-99410000I218750J0D01*
G01*
G37*
G36*
G01*
X126743750Y-97835000D02*
X127256250Y-97835000D01*
G75*
G02*
X127475000Y-98053750I0J-218750D01*
G01*
X127475000Y-98491250D01*
G75*
G02*
X127256250Y-98710000I-218750J0D01*
G01*
X126743750Y-98710000D01*
G75*
G02*
X126525000Y-98491250I0J218750D01*
G01*
X126525000Y-98053750D01*
G75*
G02*
X126743750Y-97835000I218750J0D01*
G01*
G37*
%TD*%
%TO.C,C13*%
G36*
G01*
X110233750Y-84805000D02*
X110746250Y-84805000D01*
G75*
G02*
X110965000Y-85023750I0J-218750D01*
G01*
X110965000Y-85461250D01*
G75*
G02*
X110746250Y-85680000I-218750J0D01*
G01*
X110233750Y-85680000D01*
G75*
G02*
X110015000Y-85461250I0J218750D01*
G01*
X110015000Y-85023750D01*
G75*
G02*
X110233750Y-84805000I218750J0D01*
G01*
G37*
G36*
G01*
X110233750Y-83230000D02*
X110746250Y-83230000D01*
G75*
G02*
X110965000Y-83448750I0J-218750D01*
G01*
X110965000Y-83886250D01*
G75*
G02*
X110746250Y-84105000I-218750J0D01*
G01*
X110233750Y-84105000D01*
G75*
G02*
X110015000Y-83886250I0J218750D01*
G01*
X110015000Y-83448750D01*
G75*
G02*
X110233750Y-83230000I218750J0D01*
G01*
G37*
%TD*%
%TO.C,C12*%
G36*
G01*
X84833750Y-99410000D02*
X85346250Y-99410000D01*
G75*
G02*
X85565000Y-99628750I0J-218750D01*
G01*
X85565000Y-100066250D01*
G75*
G02*
X85346250Y-100285000I-218750J0D01*
G01*
X84833750Y-100285000D01*
G75*
G02*
X84615000Y-100066250I0J218750D01*
G01*
X84615000Y-99628750D01*
G75*
G02*
X84833750Y-99410000I218750J0D01*
G01*
G37*
G36*
G01*
X84833750Y-97835000D02*
X85346250Y-97835000D01*
G75*
G02*
X85565000Y-98053750I0J-218750D01*
G01*
X85565000Y-98491250D01*
G75*
G02*
X85346250Y-98710000I-218750J0D01*
G01*
X84833750Y-98710000D01*
G75*
G02*
X84615000Y-98491250I0J218750D01*
G01*
X84615000Y-98053750D01*
G75*
G02*
X84833750Y-97835000I218750J0D01*
G01*
G37*
%TD*%
%TO.C,C11*%
G36*
G01*
X83563750Y-133065000D02*
X84076250Y-133065000D01*
G75*
G02*
X84295000Y-133283750I0J-218750D01*
G01*
X84295000Y-133721250D01*
G75*
G02*
X84076250Y-133940000I-218750J0D01*
G01*
X83563750Y-133940000D01*
G75*
G02*
X83345000Y-133721250I0J218750D01*
G01*
X83345000Y-133283750D01*
G75*
G02*
X83563750Y-133065000I218750J0D01*
G01*
G37*
G36*
G01*
X83563750Y-131490000D02*
X84076250Y-131490000D01*
G75*
G02*
X84295000Y-131708750I0J-218750D01*
G01*
X84295000Y-132146250D01*
G75*
G02*
X84076250Y-132365000I-218750J0D01*
G01*
X83563750Y-132365000D01*
G75*
G02*
X83345000Y-132146250I0J218750D01*
G01*
X83345000Y-131708750D01*
G75*
G02*
X83563750Y-131490000I218750J0D01*
G01*
G37*
%TD*%
%TO.C,C10*%
G36*
G01*
X68323750Y-133065000D02*
X68836250Y-133065000D01*
G75*
G02*
X69055000Y-133283750I0J-218750D01*
G01*
X69055000Y-133721250D01*
G75*
G02*
X68836250Y-133940000I-218750J0D01*
G01*
X68323750Y-133940000D01*
G75*
G02*
X68105000Y-133721250I0J218750D01*
G01*
X68105000Y-133283750D01*
G75*
G02*
X68323750Y-133065000I218750J0D01*
G01*
G37*
G36*
G01*
X68323750Y-131490000D02*
X68836250Y-131490000D01*
G75*
G02*
X69055000Y-131708750I0J-218750D01*
G01*
X69055000Y-132146250D01*
G75*
G02*
X68836250Y-132365000I-218750J0D01*
G01*
X68323750Y-132365000D01*
G75*
G02*
X68105000Y-132146250I0J218750D01*
G01*
X68105000Y-131708750D01*
G75*
G02*
X68323750Y-131490000I218750J0D01*
G01*
G37*
%TD*%
%TO.C,C9*%
G36*
G01*
X83563750Y-122270000D02*
X84076250Y-122270000D01*
G75*
G02*
X84295000Y-122488750I0J-218750D01*
G01*
X84295000Y-122926250D01*
G75*
G02*
X84076250Y-123145000I-218750J0D01*
G01*
X83563750Y-123145000D01*
G75*
G02*
X83345000Y-122926250I0J218750D01*
G01*
X83345000Y-122488750D01*
G75*
G02*
X83563750Y-122270000I218750J0D01*
G01*
G37*
G36*
G01*
X83563750Y-120695000D02*
X84076250Y-120695000D01*
G75*
G02*
X84295000Y-120913750I0J-218750D01*
G01*
X84295000Y-121351250D01*
G75*
G02*
X84076250Y-121570000I-218750J0D01*
G01*
X83563750Y-121570000D01*
G75*
G02*
X83345000Y-121351250I0J218750D01*
G01*
X83345000Y-120913750D01*
G75*
G02*
X83563750Y-120695000I218750J0D01*
G01*
G37*
%TD*%
%TO.C,C8*%
G36*
G01*
X112773750Y-133065000D02*
X113286250Y-133065000D01*
G75*
G02*
X113505000Y-133283750I0J-218750D01*
G01*
X113505000Y-133721250D01*
G75*
G02*
X113286250Y-133940000I-218750J0D01*
G01*
X112773750Y-133940000D01*
G75*
G02*
X112555000Y-133721250I0J218750D01*
G01*
X112555000Y-133283750D01*
G75*
G02*
X112773750Y-133065000I218750J0D01*
G01*
G37*
G36*
G01*
X112773750Y-131490000D02*
X113286250Y-131490000D01*
G75*
G02*
X113505000Y-131708750I0J-218750D01*
G01*
X113505000Y-132146250D01*
G75*
G02*
X113286250Y-132365000I-218750J0D01*
G01*
X112773750Y-132365000D01*
G75*
G02*
X112555000Y-132146250I0J218750D01*
G01*
X112555000Y-131708750D01*
G75*
G02*
X112773750Y-131490000I218750J0D01*
G01*
G37*
%TD*%
%TO.C,C7*%
G36*
G01*
X98803750Y-133065000D02*
X99316250Y-133065000D01*
G75*
G02*
X99535000Y-133283750I0J-218750D01*
G01*
X99535000Y-133721250D01*
G75*
G02*
X99316250Y-133940000I-218750J0D01*
G01*
X98803750Y-133940000D01*
G75*
G02*
X98585000Y-133721250I0J218750D01*
G01*
X98585000Y-133283750D01*
G75*
G02*
X98803750Y-133065000I218750J0D01*
G01*
G37*
G36*
G01*
X98803750Y-131490000D02*
X99316250Y-131490000D01*
G75*
G02*
X99535000Y-131708750I0J-218750D01*
G01*
X99535000Y-132146250D01*
G75*
G02*
X99316250Y-132365000I-218750J0D01*
G01*
X98803750Y-132365000D01*
G75*
G02*
X98585000Y-132146250I0J218750D01*
G01*
X98585000Y-131708750D01*
G75*
G02*
X98803750Y-131490000I218750J0D01*
G01*
G37*
%TD*%
%TO.C,C6*%
G36*
G01*
X128013750Y-111475000D02*
X128526250Y-111475000D01*
G75*
G02*
X128745000Y-111693750I0J-218750D01*
G01*
X128745000Y-112131250D01*
G75*
G02*
X128526250Y-112350000I-218750J0D01*
G01*
X128013750Y-112350000D01*
G75*
G02*
X127795000Y-112131250I0J218750D01*
G01*
X127795000Y-111693750D01*
G75*
G02*
X128013750Y-111475000I218750J0D01*
G01*
G37*
G36*
G01*
X128013750Y-109900000D02*
X128526250Y-109900000D01*
G75*
G02*
X128745000Y-110118750I0J-218750D01*
G01*
X128745000Y-110556250D01*
G75*
G02*
X128526250Y-110775000I-218750J0D01*
G01*
X128013750Y-110775000D01*
G75*
G02*
X127795000Y-110556250I0J218750D01*
G01*
X127795000Y-110118750D01*
G75*
G02*
X128013750Y-109900000I218750J0D01*
G01*
G37*
%TD*%
%TO.C,C5*%
G36*
G01*
X98803750Y-122270000D02*
X99316250Y-122270000D01*
G75*
G02*
X99535000Y-122488750I0J-218750D01*
G01*
X99535000Y-122926250D01*
G75*
G02*
X99316250Y-123145000I-218750J0D01*
G01*
X98803750Y-123145000D01*
G75*
G02*
X98585000Y-122926250I0J218750D01*
G01*
X98585000Y-122488750D01*
G75*
G02*
X98803750Y-122270000I218750J0D01*
G01*
G37*
G36*
G01*
X98803750Y-120695000D02*
X99316250Y-120695000D01*
G75*
G02*
X99535000Y-120913750I0J-218750D01*
G01*
X99535000Y-121351250D01*
G75*
G02*
X99316250Y-121570000I-218750J0D01*
G01*
X98803750Y-121570000D01*
G75*
G02*
X98585000Y-121351250I0J218750D01*
G01*
X98585000Y-120913750D01*
G75*
G02*
X98803750Y-120695000I218750J0D01*
G01*
G37*
%TD*%
%TO.C,C3*%
G36*
G01*
X128013750Y-133065000D02*
X128526250Y-133065000D01*
G75*
G02*
X128745000Y-133283750I0J-218750D01*
G01*
X128745000Y-133721250D01*
G75*
G02*
X128526250Y-133940000I-218750J0D01*
G01*
X128013750Y-133940000D01*
G75*
G02*
X127795000Y-133721250I0J218750D01*
G01*
X127795000Y-133283750D01*
G75*
G02*
X128013750Y-133065000I218750J0D01*
G01*
G37*
G36*
G01*
X128013750Y-131490000D02*
X128526250Y-131490000D01*
G75*
G02*
X128745000Y-131708750I0J-218750D01*
G01*
X128745000Y-132146250D01*
G75*
G02*
X128526250Y-132365000I-218750J0D01*
G01*
X128013750Y-132365000D01*
G75*
G02*
X127795000Y-132146250I0J218750D01*
G01*
X127795000Y-131708750D01*
G75*
G02*
X128013750Y-131490000I218750J0D01*
G01*
G37*
%TD*%
%TO.C,C2*%
G36*
G01*
X68323750Y-111475000D02*
X68836250Y-111475000D01*
G75*
G02*
X69055000Y-111693750I0J-218750D01*
G01*
X69055000Y-112131250D01*
G75*
G02*
X68836250Y-112350000I-218750J0D01*
G01*
X68323750Y-112350000D01*
G75*
G02*
X68105000Y-112131250I0J218750D01*
G01*
X68105000Y-111693750D01*
G75*
G02*
X68323750Y-111475000I218750J0D01*
G01*
G37*
G36*
G01*
X68323750Y-109900000D02*
X68836250Y-109900000D01*
G75*
G02*
X69055000Y-110118750I0J-218750D01*
G01*
X69055000Y-110556250D01*
G75*
G02*
X68836250Y-110775000I-218750J0D01*
G01*
X68323750Y-110775000D01*
G75*
G02*
X68105000Y-110556250I0J218750D01*
G01*
X68105000Y-110118750D01*
G75*
G02*
X68323750Y-109900000I218750J0D01*
G01*
G37*
%TD*%
%TO.C,C1*%
G36*
G01*
X68323750Y-122270000D02*
X68836250Y-122270000D01*
G75*
G02*
X69055000Y-122488750I0J-218750D01*
G01*
X69055000Y-122926250D01*
G75*
G02*
X68836250Y-123145000I-218750J0D01*
G01*
X68323750Y-123145000D01*
G75*
G02*
X68105000Y-122926250I0J218750D01*
G01*
X68105000Y-122488750D01*
G75*
G02*
X68323750Y-122270000I218750J0D01*
G01*
G37*
G36*
G01*
X68323750Y-120695000D02*
X68836250Y-120695000D01*
G75*
G02*
X69055000Y-120913750I0J-218750D01*
G01*
X69055000Y-121351250D01*
G75*
G02*
X68836250Y-121570000I-218750J0D01*
G01*
X68323750Y-121570000D01*
G75*
G02*
X68105000Y-121351250I0J218750D01*
G01*
X68105000Y-120913750D01*
G75*
G02*
X68323750Y-120695000I218750J0D01*
G01*
G37*
%TD*%
D19*
%TO.C,BZ1*%
X151765000Y-82062000D03*
D22*
X151765000Y-89662000D03*
%TD*%
M02*
